<?xml version="1.0" standalone="no"?>
<!DOCTYPE svg PUBLIC "-//W3C//DTD SVG 1.1//EN" "http://www.w3.org/Graphics/SVG/1.1/DTD/svg11.dtd" >
<svg xmlns="http://www.w3.org/2000/svg" xmlns:xlink="http://www.w3.org/1999/xlink" version="1.1">
<metadata>
Created by FontForge 20170731 at Sat Nov 12 02:36:08 2016
 By Aleksey,,,
Copyright (c) 2016 by Jakob Fischer / pizzadude.dk. All rights reserved.
</metadata>
<defs>
<font id="NicknameDEMO" horiz-adv-x="255" >
  <font-face 
    font-family="Nickname DEMO"
    font-weight="400"
    font-stretch="normal"
    units-per-em="1000"
    panose-1="2 0 5 6 0 0 0 2 0 4"
    ascent="750"
    descent="-250"
    x-height="666"
    cap-height="662"
    bbox="-48 -330 1185.25 978.235"
    underline-thickness="50"
    underline-position="-200"
    unicode-range="U+0020-FB02"
  />
<missing-glyph horiz-adv-x="207" 
 />
    <glyph glyph-name=".notdef" horiz-adv-x="207" 
 />
    <glyph glyph-name=".null" horiz-adv-x="0" 
 />
    <glyph glyph-name="nonmarkingreturn" horiz-adv-x="333" 
 />
    <glyph glyph-name="space" unicode=" " horiz-adv-x="207" 
 />
    <glyph glyph-name="exclam" unicode="!" horiz-adv-x="266" 
d="M238 562h-1v-31q0 -8 -0.5 -17.5t-1.5 -20t-1 -17.5l-4 -74q0 -31 -7 -71l-8 -56q-2 -32 -5 -48q-2 -12 -14 -14q-15 -1 -44 -1q-15 -1 -45 -1h-51q-16 0 -16 15q0 8 -1 21.5t-1.5 24.5t-0.5 21q0 13 2 36.5t2 31.5v43q2 38 2 54q0 2 0.5 3t0.5 3q0 30 2 86q0 7 0.5 15
t1.5 17.5t1 14.5v34q0 12 2 36q2 12 7.5 16t17.5 3q25 -3 66 -5l58 -2q6 0 16 -2q20 -3 20 -23q2 -62 2 -92zM33 44h1q0 25 2 75q0 2 2 12q3 12 15 14q12 3 25 3q49 0 73 -1q18 0 33 -4q20 -3 19 -22q0 -8 -0.5 -17.5t-1.5 -21t-1 -17.5v-40q1 -15 -5 -21.5t-23 -6.5h-32h-8
q-25 -3 -65 -5q-3 -1 -15 -1q-16 1 -17 17z" />
    <glyph glyph-name="quotedbl" unicode="&#x22;" horiz-adv-x="563" 
d="M354 484v1h-27q-19 0 -20 18l-3 32l-3 89q0 9 2 15q3 16 18 16q42 2 62 2q42 -2 63 -5l48 -3q9 0 12 -1q14 -3 16 -17q1 -5 1.5 -10t1 -10.5t0.5 -8.5q3 -25 5 -66q3 -39 -6 -77q-2 -5 -3 -14t-2 -13q-9 -55 -50 -90q-36 -27 -43 -30q-41 -21 -89 -10q-9 1 -17 6
q-11 3 -11 14q-2 45 -1 66q1 16 18 16t26 1q10 2 16 5q20 10 35 26q15 15 10 43q-4 9 -12 8q-9 0 -31 -2q-13 0 -16 -1zM114 665v1q65 -3 66 -3q27 -3 49 -9q19 -3 21 -24q3 -20 5 -56q2 -32 2 -48q0 -18 -3 -35q-2 -27 -5 -43q-5 -29 -20 -50q-17 -26 -42 -41
q-35 -20 -58 -28q-41 -11 -77 4q-17 9 -17 27v54q0 19 20 21q17 2 30 5q28 6 41 31q10 15 3 40q-3 8 -13 8l-33 -3q-5 0 -16 -0.5t-17 -0.5q-19 0 -19 19q-1 21 -1 65q2 33 4 41q3 18 20 23q14 2 18 2h42z" />
    <glyph glyph-name="numbersign" unicode="#" horiz-adv-x="670" 
d="M146 14v1q-22 0 -33 1q-17 0 -17 15q-1 1 -0.5 20.5t0.5 20.5q0 9 2 25q0 10 2 40q0 10 -11 12q-4 1 -13 1h-11h-12.5h-10.5q-15 0 -15 15q0 7 0.5 20t0.5 19q0 10 0.5 29.5t0.5 28.5v10q1 11 12 13q10 2 29 4t29 3h3q14 2 15 15q2 14 2 19t0.5 15t0.5 16q0 15 -15 16
q-36 2 -44 4q-1 0 -3 0.5t-4 0.5q-15 4 -15 19q0 24 2 72q0 20 1 31q0 12 3 24q5 17 22 18l46 3l10 2q10 3 11 13q0 50 -2 58t0 17l6 33q2 10 6 13t14 2q50 -3 60 -4q3 0 25 -2t33 -6q5 -1 11 -4q12 -8 11 -18l-3 -32q-1 -9 -3 -26t-4 -25q-2 -15 14 -15q19 3 57 5h7h8.5
h7.5h3q14 1 18 4.5t5 15.5l3 79q0 6 3 12q4 12 17 12q15 2 44 3.5t44 2.5h47q17 0 18 -16q1 -15 1 -47q0 -4 -0.5 -9.5t-0.5 -7.5q-2 -22 -2 -30q0 -13 13 -13h25q21 0 21 -22l-3 -60q-2 -12 -4 -65q0 -10 -4.5 -15t-14.5 -4q-13 0 -20 1h-7q-12 -2 -13 -11l-3 -23
q-2 -38 -2 -52q-1 -11 2.5 -14.5t14.5 -2.5q6 0 16 2q22 1 25 -20l2 -27q2 -42 2 -62q0 -16 -16 -16q-15 0 -45 2q-16 0 -19 -16q-2 -10 -4 -29t-3 -29q-3 -16 -11 -52q-3 -17 -20 -20q-12 -2 -18 -1q-40 0 -60 1q-29 3 -34 4q-17 3 -16 19l3 78v30q0 12 -12 11
q-13 0 -43 -2q-14 -2 -21 -2h-49q-13 3 -16 -13q0 -5 -1 -6q0 -22 -2 -76q0 -21 -4 -37q-2 -15 -19 -16h-32zM370 296h9q14 0 16 14q2 11 4 62q0 15 -15 15q-1 0 -15 -2l-82 -4q-14 -2 -17 -15q-1 -3 -4 -21q-2 -22 -2 -33q-1 -13 12 -14h6q27 4 54 0q22 -2 34 -2z" />
    <glyph glyph-name="dollar" unicode="$" horiz-adv-x="376" 
d="M294 399l-36 3l-36 3q-18 1 -36 -3q-22 -7 -10 -28q8 -14 23 -22q16 -9 50 -25q37 -16 56 -41q22 -28 27 -68q4 -34 -6 -67q-16 -51 -70 -68q-23 -8 -23 -28q0 -22 -4 -38q0 -1 -3 -16q-5 -11 -16 -11h-21q-13 2 -67 4q-14 2 -14 14q0 5 2 32q1 7 1 18q0 10 -11 13
q-7 1 -21 1q-23 0 -45 6q-17 5 -17 20q0 20 1 29q0 4 0.5 11.5t0.5 10.5q-1 21 8 55q6 20 25 14q1 0 13 -5q17 -8 47 -10q24 -2 41 15q18 18 -1 32q-8 8 -18 12l-56 34q-23 15 -32 32q-15 24 -12 55q3 49 35 87q30 36 74 53q18 8 21 26q3 25 11 86q2 12 6 16t15 5
q37 1 73 -3h14q17 -2 17 -17q0 -49 -4 -73q-1 -7 -1 -16q0 -13 13 -16q7 -2 30 -4q12 -2 15.5 -6t2.5 -15l-8 -46l-8 -43l-3 -7q-3 -11 -15 -11h-28z" />
    <glyph glyph-name="percent" unicode="%" horiz-adv-x="828" 
d="M803 284q1 -50 -10 -110q-13 -57 -40 -99q-25 -42 -76 -53q-64 -15 -133 25q-12 9 -20 22q-12 22 -17 52q-4 34 -2 81q3 57 3 58q1 13 1.5 45t3.5 50q6 35 14 53q27 48 64 58q19 6 66 16q11 3 30 -2q64 -16 100 -75q11 -19 12 -42q2 -11 4 -55v-24zM685 257l-2 42
q-1 23 -6 45q-2 18 -20 22q-31 10 -36 -21l-2 -34q0 -9 -0.5 -25t-0.5 -25q3 -52 2 -57v-18q2 -23 25 -18q19 4 27 24q11 20 13 65zM377 39q-10 0 -29.5 0.5t-29.5 0.5h-51q-18 -1 -20 19q0 5 1 6q2 24 5 36q1 7 12 47q16 54 23 81l20 73q6 22 24.5 83.5t27.5 95.5
q14 54 29 102l15 57l3 13q1 11 12 12q5 0 13 0.5t13 0.5q31 -4 71 1q15 2 21 -4.5t3 -20.5q-2 -12 -4.5 -37t-4.5 -38q-4 -32 -12 -71q-4 -17 -10 -49.5t-9 -48.5q-4 -19 -11 -46q-22 -77 -34 -112q-2 -4 -3.5 -11.5t-2.5 -11.5q-9 -32 -25 -98l-11 -55q-1 -4 -4 -14
q-5 -11 -16 -11h-16zM308 500l2 -36q0 -44 -14 -91q-10 -33 -26 -62q-6 -10 -28 -32q-13 -13 -32 -14q-56 -8 -84 -5q-45 5 -66 40q-26 42 -30 68q-5 38 -1 68q1 12 3.5 37t3.5 38q6 55 12 78q10 43 54 60q9 4 23 7q16 5 27 4q37 0 64 -13q4 -2 12.5 -5t9.5 -4
q37 -16 55 -63q9 -24 15 -75zM134 452h1v-18q0 -20 9 -38q8 -19 27 -10q12 5 14 19v19l2 37q0 21 -11 41q-6 11 -18 14q-16 4 -19 -11q-1 -10 -2 -26.5t-3 -26.5z" />
    <glyph glyph-name="ampersand" unicode="&#x26;" horiz-adv-x="534" 
d="M452 -28v1l-33 -3q-2 0 -6.5 0.5t-6.5 0.5h-10q-18 1 -36 0q-16 0 -22 15l-9 24q-5 15 -20 11l-28 -8q-33 -11 -73 -6q-10 2 -27.5 4t-26.5 3q-36 6 -61 28q-15 11 -41 37q-9 9 -20 35q-10 21 -10 43q0 32 8 54q3 6 8.5 20t8.5 20q14 32 55 66q3 4 10 9t11 8q10 8 4 21
q-1 2 -14 31.5t-20 45.5q-22 52 -15 98q7 54 31 81q21 21 34 27q40 19 68 25q6 1 36 4q25 5 43 5q49 3 86 -29q22 -20 29 -58q2 -9 6 -30.5t6 -33.5q3 -17 -3 -50q-12 -71 -48 -138q-2 -5 -20 -28q-1 -1 -2.5 -4t-3.5 -4q-5 -8 -1 -15q12 -18 17 -28q1 0 1 -1q1 0 4 -2.5
t5 -1.5q3 0 6 8q1 5 2.5 14.5t2.5 15.5v9q1 16 16 19q9 3 18 3q21 -1 59 5q1 1 5 1q17 2 20 -16q2 -6 2 -15q5 -87 -26 -150q-1 -2 -10 -18q-7 -12 -1 -24l38 -78l9 -26q6 -16 -11 -21q-4 -1 -24 -4h-20zM233 504l-3 -18q5 -40 13 -61q4 -9 9 -16q8 -11 17 0q23 33 34 79
q3 14 -9 22q-19 12 -42 10q-16 -1 -19 -16zM243 126q1 2 5 3t6 3q5 5 -2 12q-8 11 -19.5 34.5t-13.5 26.5q-3 8 -7 12q-8 11 -15 1t-12 -24q-12 -32 12 -50q16 -13 46 -18z" />
    <glyph glyph-name="quotesingle" unicode="'" horiz-adv-x="206" 
d="M38 461h1l-2 83q-2 38 -2 57q-3 57 -3 58q-1 12 2.5 16t15.5 6q26 3 60 -2q6 -1 15 -2t15 -3q8 -1 22 -7q14 -7 12 -21l-3 -39l-4 -54l-2 -68q0 -11 0.5 -31t0.5 -30q0 -8 -2 -22q-3 -14 -17 -12q-2 0 -16 2q-10 2 -26.5 3t-26.5 3q-19 2 -23 4q-14 5 -14 17z" />
    <glyph glyph-name="parenleft" unicode="(" horiz-adv-x="365" 
d="M292 700v-14q-2 -22 -2 -35q2 -52 4 -62q3 -25 -17 -36q-15 -10 -36 -39q-23 -35 -32 -65q-17 -47 -24 -94q-9 -46 9 -101q12 -46 35 -85q27 -43 39 -55q15 -16 36 -15h10q16 0 18 -17l2 -38q1 -19 0 -38q0 -5 2 -33q1 -7 1 -22t-13 -16q-28 -6 -42 -3q-6 1 -16.5 1.5
t-16.5 2.5q-23 3 -58 25q-29 19 -57 41q-21 14 -61 58q-22 27 -35 78q-3 11 -16 82q-5 18 -1 32v23q-1 36 9 106q10 58 14 73l21 77q11 39 35 79q31 53 79 73q18 9 24 13q11 7 54 23q7 3 18 3q15 0 16 -15q1 -1 1 -7z" />
    <glyph glyph-name="parenright" unicode=")" horiz-adv-x="350" 
d="M328 306q-2 -86 -3 -92q-4 -52 -23 -103q-5 -13 -14.5 -36.5t-12.5 -30.5q-9 -23 -25 -39q-51 -54 -107 -75q-34 -12 -67 -11q-20 0 -20 20q0 15 0.5 46t0.5 47q0 2 -0.5 7t-0.5 8q-3 19 16 25l14 3q21 6 35 18l21 22q13 13 18 39q8 48 8 57v62q-1 42 -15 102
q-5 24 -18 66q-3 8 -8.5 25.5t-9.5 26.5q-12 29 -39 49q-13 10 -30 13q-10 1 -12.5 4t-2.5 13q0 71 1 107q0 17 3 32q4 19 24 19q15 -2 30 -6q22 -6 55 -18q53 -20 92 -56q51 -48 61 -117q3 -17 9 -51.5t10 -52.5q5 -29 6 -58q0 -3 4 -65z" />
    <glyph glyph-name="asterisk" unicode="*" horiz-adv-x="569" 
d="M354 566v-27v-36q0 -18 17 -13q7 2 23.5 7t25.5 7l80 20q17 3 23 -11q24 -60 28 -87q3 -17 -10 -24q-7 -5 -21 -13l-68 -35l-20 -8q-14 -8 -8 -20q1 -2 3 -8t4 -8l55 -103q8 -14 6 -21t-17 -15q-58 -33 -86 -44l-16 -8q-15 -7 -23 6t-16 30l-37 72l-15 30q0 1 -2 3
q-8 15 -16 1q-5 -7 -13 -23q-8 -15 -22.5 -43t-20.5 -40q-5 -8 -14 -29q0 -2 -4 -9q-8 -11 -18 -5q-3 1 -5 3q-12 11 -63 40q-28 16 -35 21q-17 10 -10 30q9 26 24 47l31 42l30 45q6 6 3 9q-5 5 -10 3q-8 -1 -16.5 -1.5t-19 -1t-16.5 -0.5q-9 -2 -43 -4q-6 0 -11 3
q-7 4 -7 13l-3 63l-3 29q-1 19 16 22q47 5 77 2q41 -6 82 -3h8q17 0 19 17q0 13 2 43q2 62 4 74q0 17 2 49q0 18 16 18q0 1 20 1l19 -1q7 0 22 -0.5t22 -0.5q16 0 19 -16q2 -8 4 -45z" />
    <glyph glyph-name="plus" unicode="+" horiz-adv-x="444" 
d="M253 57l-1 -1l-80 8q-23 3 -20 27q6 50 2 92q-1 5 -1.5 17t-2.5 17q-3 15 -18 15q-32 5 -57 1q-35 -2 -46 0q-17 3 -17 19q0 11 2 33q5 34 2 55q-1 6 0 13q0 14 15 14q9 0 29 -0.5t29 -0.5q15 -1 47 -1q17 2 17 18q0 12 4 41.5t3 45.5q-1 5 2 28q0 5 4 12q3 7 11 7h1
q12 -1 33.5 -1t33.5 -1q6 -2 18 -2h15q22 -1 22 -22q0 -28 5 -63q2 -10 2 -45q1 -17 18 -18q43 -2 64 -5h17q20 -2 20 -20l2 -64q2 -16 2 -26q0 -17 -16 -18l-75 -9l-26 -2q-21 -3 -16 -23q6 -37 5 -68q-2 -34 -5 -54q-3 -17 -19 -18q-4 0 -12.5 -0.5t-12.5 -0.5z" />
    <glyph glyph-name="comma" unicode="," horiz-adv-x="264" 
d="M235 62q-1 -11 -2.5 -35t-3.5 -37q-11 -68 -71 -103q-11 -7 -35 -9q-5 0 -20 -1t-24 0q-11 0 -28 5q-14 5 -13 18v36q1 7 1 19q0 16 16 20q4 1 15.5 3.5t17.5 4.5q16 3 22 19l2 8q0 10 -11 12h-5l-38 2q-9 0 -14.5 5.5t-4.5 14.5v72v29l3 15q5 16 23 16q22 -2 30 -2
q10 0 29.5 -0.5t29.5 -0.5q5 0 17 0.5t18 0.5q14 0 23 -4q15 -5 17 -22q1 -14 2.5 -43t3.5 -43z" />
    <glyph glyph-name="hyphen" unicode="-" horiz-adv-x="366" 
d="M294 215v-2l-56 9q-20 5 -38 6q-37 5 -63 -1q-18 -5 -36 0q-20 4 -46 4q-21 0 -21 21v104q0 13 13 16q11 1 31 1h36q19 0 28 1q3 0 23 1.5t31 1.5q22 -1 64 -7q26 -2 45 -8t20 -22q3 -21 5 -54v-46q0 -7 -1 -10q-3 -15 -19 -15h-16z" />
    <glyph glyph-name="period" unicode="." horiz-adv-x="235" 
d="M33 38h-1l4 43v9q0 32 1 49q0 18 17 21q54 11 59 11q12 2 65 -1q16 -1 19 -19q5 -40 2 -65q-1 -12 -4 -69q0 -8 -1 -10q-5 -14 -17 -13q-9 0 -31 2q-2 0 -4 0.5t-4 0.5q-13 -1 -26.5 0t-30.5 4t-26 4q-2 0 -3 1h-2q-15 4 -17 21v11z" />
    <glyph glyph-name="slash" unicode="/" horiz-adv-x="335" 
d="M81 -2v-3q-15 3 -49 5q-1 0 -5 2q-16 4 -12 19l4 31q5 30 31 144q34 144 45 189q28 110 34 132q4 15 10 42t9 37q13 42 16 51q4 13 18 13q16 2 47.5 3t47.5 3q9 0 31 -2q12 -2 10 -13q0 -13 -4 -22q-5 -24 -12 -92q-3 -42 -9 -84q-6 -45 -26 -113l-49 -170
q-3 -10 -5.5 -22t-5 -26t-4.5 -22q-9 -42 -14 -70l-3 -11q-5 -14 -19 -17q-12 -4 -29 -4q0 -1 -28 0h-29z" />
    <glyph glyph-name="zero" unicode="0" horiz-adv-x="487" 
d="M234 683q37 -2 56 -11l56 -23q23 -8 46 -35q42 -46 55 -119q3 -18 10 -64q5 -34 1 -64q-7 -71 -17 -127q-1 -3 -5 -26t-7 -35q-13 -59 -50 -105q-24 -31 -54 -41q-4 -2 -13.5 -6t-15.5 -6q-35 -12 -78 -7q-70 13 -111 36q-41 24 -59 81q-12 39 -16 79q-1 15 -1 41
q0 4 -0.5 12t-0.5 12q0 37 5 82q11 113 18 152q10 55 46 103q24 29 62 50q27 16 60 20q3 0 7.5 0.5t5.5 0.5zM181 369l-8 -95q2 -34 2 -38q-1 -21 12 -37q1 -1 3 -5t4 -5q16 -25 48 -17q50 15 63 72q7 29 9 88v23v28q-2 29 -5 44q-1 6 -3.5 26.5t-4.5 31.5q-3 21 -19 38
q-9 9 -22.5 10.5t-23.5 -7.5q-12 -10 -16 -17q-21 -33 -27 -62q-8 -45 -12 -78z" />
    <glyph glyph-name="one" unicode="1" horiz-adv-x="318" 
d="M119 217l-2 57q-1 11 -0.5 16.5t2 19t1.5 21.5q2 11 3.5 33.5t2.5 33.5l4 54q1 2 1 11q-1 10 -11 7q-7 -1 -17 -7l-43 -21q-2 0 -3 -1t-2 -1q-15 -6 -21 9l-11 31q-5 18 -10 32l-4 19q-3 13 8 21l100 84q4 3 8.5 8t8.5 7q10 6 16 7l64 3q14 1 44 -1q19 0 19 -19
q4 -36 4 -82q1 -13 0 -35t-1 -30q0 -6 0.5 -18.5t0.5 -18.5q0 -13 -0.5 -37t-0.5 -37q0 -37 2 -115q0 -6 -0.5 -15.5t-0.5 -13.5v-59q0 -8 -0.5 -23t-0.5 -22v-19.5t-1 -18.5q0 -32 -5 -56q-2 -11 -6.5 -15.5t-15.5 -6.5l-54 -8q-8 -1 -22 -3t-21 -4q-15 -4 -21 14
q-1 4 -4 28q-5 33 -6 67q-1 11 -1 33z" />
    <glyph glyph-name="two" unicode="2" horiz-adv-x="496" 
d="M290 208q9 -4 13 -4q11 -1 33 -1h22q15 0 49 2q13 0 37 2q24 1 27 -21q1 -8 1 -24v-77q0 -5 0.5 -16t0.5 -16q0 -16 -17 -21l-59 -15q-14 -2 -15 -2l-50 3q-4 0 -10 -0.5t-9 -0.5h-34.5t-43.5 2q-6 2 -42 0.5t-42 -1.5q-30 2 -42 2h-24q-5 -1 -17 -1q-12 2 -14 14
q-2 16 -2 24q0 43 2 125q0 4 1.5 10.5t1.5 8.5q1 7 13 15l87 51q32 19 52 51q23 34 30 48q18 38 1 82q-2 4 -5 8q-27 27 -53 27q-4 0 -9 0.5t-9 0.5q-40 0 -79 -10l-14 -3q-16 -3 -21 14q-4 17 -4 22q-2 8 -4 24.5t-3 24.5q-2 8 -4 43q-1 3 -1 13q-1 16 13 24l4 2t3.5 1.5
l4.5 1.5t5 2q61 21 97 21q11 -1 30.5 0t25.5 1q41 0 69 -11q45 -18 68 -46q33 -43 48 -84q2 -5 9 -52q7 -31 -11 -93q-7 -23 -31 -65q-1 -3 -3 -6t-4.5 -7t-3.5 -6q-20 -37 -57 -74q-7 -7 -11 -13z" />
    <glyph glyph-name="three" unicode="3" horiz-adv-x="524" 
d="M188 517v1q-54 -3 -64 -4h-15q-11 0 -14.5 4t-3.5 13l-4 79q-1 8 -1 23q0 16 15 19l45 8q15 3 40.5 8.5t35.5 7.5q15 3 31 3l39 2q17 3 44 -4l15 -5q31 -6 56 -38q26 -34 37 -72q3 -12 3 -25v-33q1 -18 -6 -34l-20 -44q-5 -10 -4 -14.5t9 -10.5q19 -12 28 -20
q19 -16 36 -60q10 -31 5 -78q-4 -43 -28 -86q-22 -41 -48 -67q-17 -21 -27 -29q-25 -23 -65 -31q-42 -9 -66 -8q-23 2 -29 4q-2 0 -7 0.5t-7 0.5q-18 -2 -83 10q-40 9 -91 35q-2 2 -5 4t-5 3q-13 10 -7 25l10 24l13 34q3 8 11 24l10 22q7 16 24 10q12 -3 34 -9t34 -10
q12 -3 26 -3h17t16 -1q23 0 69 10q23 6 39 25q7 10 9 24t-6 28q-24 34 -62 34l-57 -3q-1 0 -2 -1q-12 -1 -16.5 4t-3.5 17q2 9 2 24v19v24q0 12 12 15q3 1 22 4q27 1 54 20q12 9 14 24t-9 27q-15 19 -36 23q-6 2 -34 4h-29z" />
    <glyph glyph-name="four" unicode="4" horiz-adv-x="567" 
d="M309 15v35q-2 12 5 60q3 20 5 55q0 13 -13 14l-39 2l-63 3q-13 1 -40 1l-62 4q-4 0 -13 -1t-13 -1q-39 3 -41 3q-17 3 -15 20q0 12 2 42q0 7 1 20t1.5 23.5t0.5 19.5q1 7 1 21v22l4 68l3 41q2 57 5 85q1 19 6 43l2 18q2 17 18 20l48 6q28 4 64 4q3 0 13 2q11 1 15 -4
t3 -15q-3 -18 -5 -52q-1 -9 -4 -58q0 -3 1 -8.5t0 -9.5q-2 -50 -4 -60q-2 -12 -4 -35.5t-3 -35.5v-6q2 -14 14 -14q17 -2 35 0q56 3 61 2q1 -1 9 -0.5t9 0.5q16 0 15 15q0 10 -0.5 27.5t-0.5 25.5q-1 9 -1 26q-1 9 -2.5 28t-2.5 29v12q1 16 18 19q66 11 92 8l26 -4
q16 -4 16 -17q2 -32 2 -39q-1 -6 -1 -54q1 -15 1 -45v-4q0 -15 17 -17q25 0 32 -2q14 -1 18 -17l2 -36q3 -38 -7 -112q-3 -17 -20 -19q-11 -1 -33 -1q-19 1 -19 -16v-55q-2 -50 -5 -76q-1 -22 -25 -20q-2 0 -3 0.5t-3 0.5q-6 2 -33 -1q-34 -6 -71 -9q-10 -1 -14.5 4t-4.5 15
z" />
    <glyph glyph-name="five" unicode="5" horiz-adv-x="495" 
d="M236 -23l-37 -3q-11 2 -40.5 2.5t-45.5 4.5q-46 10 -65 20q-1 0 -2.5 1t-2.5 2t-2 1q-15 9 -11 25q1 10 20 76l8 30l2 9q5 21 26 15q37 -13 99 -11q35 1 75 31q31 22 43 60q20 67 -37 96q-1 0 -3 2t-4 2q-23 14 -55 20q-34 5 -95 11q-2 0 -5 0.5t-4 0.5q-12 2 -15 14
q-3 27 -3 28q-3 24 -5 68q-2 54 -2 80v127q0 14 5 19t19 5q24 -2 38 -2q16 0 46 2q7 0 20.5 1t19.5 1q28 -1 68 4q35 3 91 -2l9 -2q13 -4 14 -17q1 -3 1 -11v-67q0 -6 2 -20v-6q1 -11 -5 -15.5t-17 -3.5l-31 4q-22 0 -33 -1l-48 -3q-22 -2 -26 -4q-13 -3 -13 -15l3 -69
q0 -10 11 -12l39 -6q33 -5 60 -22l22 -13q35 -21 50 -51q5 -11 25 -44q15 -28 23 -66q4 -23 2 -55q-1 -60 -36 -121q-19 -34 -53 -58q-33 -24 -63 -39q-38 -18 -82 -23z" />
    <glyph glyph-name="six" unicode="6" horiz-adv-x="504" 
d="M204 420q9 0 11 1q34 8 51 13q26 8 67 -1q34 -8 50 -15q30 -12 49 -45q23 -43 35 -94q18 -77 -12 -140q-16 -35 -44 -63q-29 -32 -62 -48q-25 -11 -48 -11q-10 0 -28 -2q-17 -1 -63 8q-32 5 -58 17q-40 21 -57 39q-27 27 -38 44q-10 16 -16 32q-12 36 -14 77q-1 34 0 69
v45q2 11 4 33.5t4.5 40t7.5 33.5q9 27 20 49q15 33 24 43q37 52 69 70q4 1 8 5q23 18 90 46q12 6 44 12q8 1 26 -1l44 -10q35 -9 68 -42q9 -7 4 -18l-8 -19q-13 -32 -40 -77q-10 -15 -24 -12q-4 1 -12.5 2t-12.5 2q-31 5 -55 1q-32 -6 -51 -28q-8 -9 -29 -39q-5 -7 -4 -17z
M272 176h8q39 6 54 18q22 16 16 46q0 2 -0.5 4t-0.5 3q-15 57 -73 59q-43 0 -68 -25q-14 -13 -30 -27q-8 -8 -4 -19q20 -32 38 -43q25 -16 60 -16z" />
    <glyph glyph-name="seven" unicode="7" horiz-adv-x="413" 
d="M32 525v56v56q0 21 21 21q19 1 57 1q6 0 16 1t18.5 1.5t15.5 0.5q12 1 38 -1q4 0 17.5 -1t20.5 0q1 0 40 -3q10 -1 29.5 -3t29.5 -3q6 -1 17.5 -2t17.5 -3q12 -1 16.5 -5.5t6.5 -16.5l2 -45q0 -5 1 -14t1 -14q0 -1 -3 -16q-30 -84 -42 -136q-1 -3 -7 -21.5t-8 -28.5
q-2 -8 -5.5 -23t-3.5 -17q-8 -34 -13 -50q-10 -34 -17 -50q-9 -27 -16 -42l-9 -23q-20 -39 -33 -77q-2 -6 -6.5 -16t-6.5 -15q-8 -18 -30 -19q-5 -1 -17 -1l-75 -3q-22 -2 -33 -2q-19 0 -18 19q2 15 4 19l44 124q6 16 23.5 58t26.5 66q4 10 9.5 29.5t8.5 28.5t13.5 41
t17.5 49q2 5 16 46q4 14 -11 16h-43h-31l-63 -4q-8 0 -24 2q-7 0 -11 9q-2 8 -2 11z" />
    <glyph glyph-name="eight" unicode="8" horiz-adv-x="505" 
d="M32 156q-1 16 8 51q5 15 17 38q11 20 28 39q11 13 -1 27q-18 21 -35 44q-20 31 -19 71q1 33 8 75q6 39 30 78q22 32 45 55l13 15q33 30 76 41q11 3 31 3l13 -1q13 0 13 1q41 1 85 -23q19 -8 32 -18q33 -25 59 -69q17 -25 21 -50q8 -57 3 -78q-12 -51 -33 -80
q-9 -12 -28 -46q-7 -12 5 -21q28 -21 42 -38q31 -37 33 -89q2 -50 -26 -94q-18 -28 -45 -58q-13 -15 -28 -28q-30 -26 -58 -35q-40 -12 -69 -11q-53 2 -89 16q-75 27 -108 87q-23 44 -23 98zM248 368v1h8q23 -1 40 19q11 14 17 28q8 20 1 54q-7 25 -21 36l-20 15
q-18 13 -41 10q-46 -6 -59 -49q-10 -34 0 -67q10 -32 44 -42q12 -3 31 -5zM251 99q20 -2 38.5 12.5t22.5 32.5q3 17 3 32q0 34 -31 53q-11 6 -23 3l-39 -15q-9 -5 -18 -12q-14 -14 -18 -36t5 -42q10 -18 27 -22q5 -1 16 -3t17 -3z" />
    <glyph glyph-name="nine" unicode="9" horiz-adv-x="507" 
d="M260 694v-1h17q17 3 49 -5l29 -8q31 -10 58 -33q13 -12 20 -21q40 -49 46 -117q6 -83 -23 -166q-5 -13 -20 -60t-24 -72q-27 -68 -28 -71q-6 -14 -14.5 -42t-13.5 -42l-8 -24q-5 -17 -23 -17l-87 -3q-2 0 -8 -0.5t-8 -0.5q-16 0 -13 16q3 9 8.5 34.5t10.5 39.5
q4 10 9.5 31t8.5 31l15 44q3 10 4 15q1 7 -5 7q-3 0 -11 -2q-32 -6 -47 -6q-35 -1 -73 20q-36 20 -67 65q-31 41 -43 96q-5 27 0 64q1 4 15 58q4 13 20 38q28 45 62 72q36 30 79 46q18 8 40 12q5 2 14 2h11zM321 458q-3 17 -4 21q-4 16 -18 32q-13 14 -43 30q-24 10 -39 2
q-33 -16 -45 -41q-19 -38 -7 -79q9 -24 37 -38q20 -12 44 -8q14 1 27 6q15 3 24 15q24 27 24 60z" />
    <glyph glyph-name="colon" unicode=":" horiz-adv-x="225" 
d="M95 493v-2h74q15 0 16 -15q1 -1 1 -3q0 -9 0.5 -28.5t0.5 -29.5q-2 -41 -8 -71q-5 -17 -24 -18q-60 -2 -79 -5q-4 -1 -21 2q-12 2 -14 16l-4 78q-2 38 -2 57q-1 15 14 17zM137 100l-75 4q-14 2 -17 15l-2 7q-2 38 -2 52q-2 11 -4 62v6q1 15 15 15q10 1 62 4q4 0 18.5 1.5
t22.5 1.5q16 1 20 -15q1 -5 3 -16t3 -17l8 -94q2 -20 -17 -23q-8 -2 -21 -2.5t-14 -0.5z" />
    <glyph glyph-name="semicolon" unicode=";" horiz-adv-x="239" 
d="M43 11h-1q2 27 5 43q2 11 6.5 15.5t15.5 6.5q22 6 28 14q5 6 7 12q3 15 -11 15q-2 0 -6 -0.5t-6 -0.5q-1 0 -2 -0.5t-2 -0.5q-15 -2 -21 3t-8 21l-4 61q-1 15 -1 45q2 18 19 15q22 -3 44 0q9 2 27.5 3t28.5 2q1 0 25 3q20 5 23 -16q1 -11 1 -30q1 -10 4 -63
q1 -43 -17 -95l-8 -22q-10 -31 -40 -49q-38 -23 -85 -20q-2 0 -8 2q-14 3 -14 17q-1 0 -0.5 9t0.5 10zM138 327l-59 -3h-18q-17 2 -18 17q-1 6 -4 36q-1 14 -2.5 42.5t-3.5 42.5v22q2 17 18 17q49 0 67 -4l48 -8l7 -2q16 -4 16 -22q0 -24 1 -37q0 -4 0.5 -11t0.5 -10
q2 -9 4 -43q0 -1 2 -15q3 -21 -18 -22h-12.5h-15h-13.5z" />
    <glyph glyph-name="less" unicode="&#x3c;" horiz-adv-x="419" 
d="M291 651q38 -2 55 -2l11 -2q15 -4 9 -19q-2 -6 -5 -10q-28 -45 -53 -80q-10 -13 -27 -40.5t-27 -41.5q-4 -6 -34 -43l-5 -6q-9 -11 -2 -23q2 -4 6 -10t5 -8q60 -92 64 -97q10 -14 23 -41.5t18 -36.5q11 -21 28 -63.5t26 -61.5q6 -14 3.5 -19.5t-15.5 -9.5
q-31 -10 -73 -17q-8 -2 -45 -4q-18 -2 -24 14q-13 37 -44 74q-7 8 -20 25t-18 23q-27 34 -54 66q-23 26 -65 61q-17 13 -16 31v42v14.5t2 17.5q2 10 7 18q9 11 27 33.5t27 34.5q47 59 82 122q2 4 5.5 13.5t5.5 13.5l6 12q4 13 19 13l97 8q0 -1 1 -1z" />
    <glyph glyph-name="equal" unicode="=" horiz-adv-x="373" 
d="M335 407h-2q2 -38 2 -55q0 -18 -17 -16q-12 0 -36 2q-12 2 -35.5 3.5t-35.5 2.5q-37 4 -85 -1q-20 -1 -62 -7q-5 0 -6 -1q-18 0 -19 18v17q-2 42 -2 63q-2 18 -2 26q0 20 19 21l62 3q63 0 94 -1q30 -1 62 -6q19 -3 37 -3q11 -1 15.5 -4.5t6.5 -14.5q2 -8 4 -47zM335 193
h2l-3 -43l-3 -11q-5 -12 -17 -12l-58 3h-7q-31 -1 -77 4q-18 0 -27 -1l-47 -3q-22 -2 -30 -2q-18 0 -21 18q-1 7 -4 46q-1 17 -1 51q-2 17 15 19q2 1 29 3q29 2 100 -4l78 -8q11 -1 33 -1q5 0 19 -2q18 -3 19 -19q1 0 1 -19z" />
    <glyph glyph-name="greater" unicode="&#x3e;" horiz-adv-x="408" 
d="M179 28v-1q-40 3 -48 4l-53 4h-1q-25 3 -15 25q2 6 7 15.5t7 13.5q18 35 41 83q9 16 24.5 52.5t26.5 54.5q6 8 11 22q11 31 26 52q7 9 6.5 14.5t-7.5 13.5q-38 46 -66 85q-12 16 -33 47t-32 46l-27 36q-10 12 -16 24q-8 15 8 19q38 8 44 8q13 2 57 2q23 0 71 -2
q18 -2 26 -14q4 -6 12.5 -17t9.5 -13q43 -62 74 -96q25 -29 49 -48q11 -9 9 -24q-1 -8 1 -29v-9v-59q0 -16 -9 -31l-48 -79q-6 -8 -8 -13q-17 -33 -57 -97q-5 -9 -13.5 -25.5t-10.5 -20.5l-14 -26q-9 -17 -29 -17h-23z" />
    <glyph glyph-name="question" unicode="?" horiz-adv-x="481" 
d="M459 437v-14q3 -29 -20 -70q-27 -44 -73 -69q-14 -8 -21 -13q-20 -14 -20 -38q0 -20 2 -60v-7q0 -8 -6.5 -12.5t-12.5 -2.5q-13 2 -34 5.5t-30 4.5q-54 7 -68 7q-10 1 -41 7q-12 3 -13 18q-3 17 3 49q1 6 3 17t4 16q15 42 60 61q8 3 29.5 12t32.5 14q25 13 39 24
q24 18 24 52q-2 36 -27 55q-15 13 -40 11q-24 -2 -44 -11q-24 -10 -27 -40q-1 -7 -2 -21.5t-3 -22.5q0 -2 -0.5 -7t-0.5 -8q-3 -15 -17 -13q-6 0 -15 1.5t-14 1.5q-10 1 -28 2.5t-27 2.5l-36 3q-18 2 -17 21q2 81 27 144q21 50 47 78q21 23 49 33q20 9 47 16q27 8 55 5
l38 -2q21 -1 41 -12q7 -4 21 -10q23 -11 46 -32q38 -34 56 -93q14 -56 13 -103zM276 123q15 0 23 -1q17 -3 18 -18l3 -31l10 -70q0 -9 -1 -11q-2 -9 -11 -10h-12q-30 5 -89 -1h-22q-9 0 -25 2q-24 0 -26 21q-2 10 -4 41q-1 13 -1 39q-2 20 18 23q64 10 96 14q14 2 23 2z" />
    <glyph glyph-name="at" unicode="@" horiz-adv-x="775" 
d="M428 587q-17 -1 -48 -2t-47 -3q-52 -5 -89 -21q-40 -16 -57 -56q-4 -9 -11 -34l-9 -48q-5 -27 -6 -54q-2 -32 -1 -48q2 -49 20 -78q27 -45 82 -54q70 -13 77 -14q16 -2 26 -2q6 -1 39 -4q18 0 27 1q48 9 50 9q1 0 31 3l95 12q12 2 24 6q16 3 19 -13q12 -60 12 -106
q0 -12 -4 -17t-16 -8q-42 -13 -110 -22q-12 -2 -37 -2t-38 -2q-38 -2 -58 -5q-3 -1 -15 -1q-63 -3 -65 -3q-28 -3 -74 4q-37 6 -78 25q-5 3 -28 13q-27 13 -50 39q-30 35 -42 61q-21 44 -15 92l9 86q4 52 15 103q21 80 41 118q29 55 69 82q57 39 112 54q5 2 15.5 3.5
t16.5 2.5q9 2 41 4h22l51 -2q70 -6 98 -16q8 -2 11 -2q46 -6 106 -32q31 -14 57 -51l14 -19q25 -30 33 -77q3 -16 5 -48q0 -9 -1 -19.5t-3.5 -23.5t-3.5 -21q-10 -47 -42 -88q-14 -17 -29 -24q-5 -3 -14.5 -8t-15.5 -8q-27 -14 -51 -17q-45 -7 -59 -6q-43 2 -69 28
q-2 2 -4 2l-3 3q-6 5 -12 0l-8 -6q-19 -19 -52 -26q-40 -9 -83 5q-26 8 -46 29q-11 11 -29 35q-15 22 -15 49q0 34 8 53q10 31 36 46q35 19 62 24q32 4 69 -9l26 -9q13 -5 16 8q5 15 21 16l42 6q3 0 8.5 2t9.5 2q21 4 25 -16l3 -35q3 -32 4 -37q0 -6 3 -12q6 -15 22 -15
q44 -2 59 39q11 26 6 60q-3 19 -23 42q-15 16 -57 39q-4 2 -12.5 3.5t-12.5 2.5l-44 8q-7 1 -51 4zM362 408l-19 -2q-11 -2 -17.5 -12.5t-5.5 -19.5q4 -25 25 -36t44 0q14 8 17.5 21t-4.5 24q-14 26 -40 25z" />
    <glyph glyph-name="A" unicode="A" horiz-adv-x="498" 
d="M210 647v-3q13 2 38 4t37 3q1 0 4 0.5t4 0.5q35 -2 63 -7q6 -1 16 -3t16 -3q18 -5 21 -24q4 -18 16 -92l9 -60t10 -61q4 -26 10 -86q2 -12 3 -35t2 -34q5 -49 7 -110q1 -8 -2 -93q0 -16 -17 -16q-29 -2 -57 3l-45 8l-7 2q-15 5 -15 20l-2 49l-3 42t-4 42v14q-1 19 -20 19
t-30 -1q-8 -2 -26 -3t-26 -3q-8 -1 -11 -3.5t-5 -11.5l-8 -48q-2 -10 -4.5 -31t-4.5 -31q-5 -25 -11 -73q-2 -9 -6 -12.5t-14 -5.5l-48 -9q-2 0 -4 -1h-3q-38 -2 -54 -2t-15 16q1 18 6 41l9 50l13 80l11 66q13 73 22 118q21 115 28 143l13 55q2 9 5 28t5 28v4q1 8 4 12
t6.5 5.5t11.5 3.5t25.5 3t26.5 2zM307 366v14v1q0 11 -2 33l-8 86l-3 24q-3 10 -12 12q-2 0 -7 0.5t-7 0.5q-14 1 -18 -2.5t-6 -17.5l-16 -87q-10 -60 -11 -64q-3 -15 2 -19.5t20 -1.5q7 1 20 2t19 3l16 2q13 1 13 14z" />
    <glyph glyph-name="B" unicode="B" horiz-adv-x="489" 
d="M68 650h40q40 1 79 -6q9 -2 33.5 -4.5t37.5 -5.5q55 -14 76 -30q50 -38 67 -66q11 -18 16 -48q16 -94 -49 -165q-6 -7 -7 -10.5t1.5 -6.5t10.5 -7q36 -17 51 -32q23 -19 31 -45l9 -30q6 -30 -9 -62q-14 -29 -46 -58q-27 -26 -83 -46q-4 -2 -21 -4l-58 -8q-54 -5 -90 -4
q-50 2 -78 5q-10 1 -32 9q-12 4 -12 17q0 21 2 63l3 58l3 60q3 51 3 53q4 57 4 130q-1 35 -1 105q-2 63 2 107l2 18q1 11 15 13zM191 488l3 -64h-1l2 -46q1 -13 18 -17q21 -1 54 11q22 10 28 31q12 38 -18 72q-16 19 -61 33q-14 4 -19.5 -0.5t-5.5 -19.5zM230 252v-1
q-1 0 -8.5 0.5t-8.5 -0.5q-11 -2 -12 -13q0 -2 0.5 -4t0.5 -4l8 -70q1 -13 15 -17q21 -4 62 4q28 6 32 33q2 14 2 16q-6 46 -44 51q-15 3 -47 5z" />
    <glyph glyph-name="C" unicode="C" horiz-adv-x="397" 
d="M162 341q-4 -62 35 -122q13 -22 37 -36q25 -14 47 -17q42 -7 58 -10q19 -4 16 -23q0 -3 -0.5 -9t-0.5 -10q1 -27 1 -78q0 -9 -1 -12q-2 -20 -24 -19q-41 2 -61 5q-58 8 -89 24q-23 11 -56 30q-19 10 -43 38q-36 45 -47 95q-7 26 -13 77q-2 29 3 58q8 62 10 68
q22 82 53 126l21 26q37 44 99 68q35 15 58 16q50 3 58 1q19 -5 29 -13t8 -19q-3 -33 -4 -39q-3 -27 -11 -77q-2 -11 -5 -14t-15 -5q-12 -1 -25 0q-30 2 -53 -8q-9 -3 -27 -11q-49 -22 -55 -71z" />
    <glyph glyph-name="D" unicode="D" horiz-adv-x="469" 
d="M37 80v66v124q0 9 0.5 19.5t1.5 23t1 19.5q1 14 2 42.5t3 42.5q2 56 5 88q0 13 1 20q0 26 2 80q0 21 3 44q1 15 16 16q33 5 61 5q70 2 93 0q69 -5 116 -35q26 -17 51 -43q6 -6 12 -16q29 -57 38 -102q9 -43 2 -81l-8 -59q-3 -20 -19 -67q-2 -5 -6 -15.5t-5 -16.5
q-18 -47 -45 -87q-4 -5 -8 -9.5t-9 -10t-8 -8.5q-4 -4 -14 -15.5t-16 -16.5q-25 -23 -75 -65q-11 -9 -46 -20q-12 -4 -35.5 -10t-34.5 -9q-4 -2 -11.5 -2h-9.5q-6 0 -15.5 -0.5t-13.5 -0.5h-7q-17 2 -20 17q-2 18 -2 26v56zM193 448q0 -21 -2 -67q0 -19 -1 -30
q-4 -32 -4 -73v-16q0 -22 -2 -68q0 -16 14 -7q15 12 16 13l44 49q16 20 24 32q33 61 33 123q0 55 -38 89q-23 22 -71 27q-11 2 -14 -12v-7q0 -8 0.5 -25.5t0.5 -27.5z" />
    <glyph glyph-name="E" unicode="E" horiz-adv-x="378" 
d="M33 88h1l3 122q0 34 4 65v21q0 24 2 74q0 7 0.5 14t1.5 15.5t1 13.5l2 44q2 54 4 67q3 55 3 56l3 53l2 8q4 19 22 19q13 2 59 2q17 0 35 -3h13q30 -2 43 -2q4 0 17.5 1t20.5 0q10 0 29 -0.5t28 -0.5q12 -2 14 -13v-4q0 -18 0.5 -52t0.5 -51q0 -18 -17 -21q-31 -5 -55 -2
q-22 1 -54 -7q-10 -3 -10 -14q0 -5 0.5 -14t0.5 -13l3 -30l2 -7q3 -15 17 -12q22 5 57 -1l32 -3q15 -3 17 -20q3 -23 5 -71v-14q0 -15 -14 -17q-6 -2 -38 -4q-8 -1 -52 -4q-17 0 -26 -1q-11 -1 -14.5 -5t-3.5 -15l4 -63q0 -9 1 -11q1 -15 15 -15q34 -2 52 -2l46 -2
q20 0 21 -21v-1l2 -107v-6q0 -20 -19 -20q-9 0 -26.5 0.5t-31.5 1t-26 1.5l-93 9h-22l-61 2q-16 1 -18 16z" />
    <glyph glyph-name="F" unicode="F" horiz-adv-x="357" 
d="M95 641v-2q31 5 63 6q30 2 44 2h45l68 -4q15 0 19 -16q6 -21 3 -31v-6q0 -50 -1 -75v-7q-2 -12 -7.5 -15.5t-17.5 -2.5q-3 0 -10 -0.5t-10 -0.5h-58q-10 0 -28 -2q-10 -2 -13.5 -6t-3.5 -13q2 -42 2 -63q2 -22 2 -32l3 -11q1 -6 9 -6q5 -2 11 0q14 2 55 0q8 -1 26 -1h4
q13 -2 17.5 -6.5t4.5 -18.5l3 -79q0 -14 -5 -19t-19 -5l-78 -4q-13 0 -20 -1q-13 -2 -12 -15q2 -27 5 -43v-6l3 -70q2 -32 5 -46q0 -12 -1 -19q0 -10 -12 -13q-3 -1 -13 -1q-25 0 -75 2h-37q-9 0 -11 1q-11 3 -13 14v4l-2 88q0 1 -3 85v8v111v67q0 27 2 77q3 70 4 84
q2 58 4 71q0 19 21 20h27z" />
    <glyph glyph-name="G" unicode="G" horiz-adv-x="504" 
d="M474 239v-42q-2 -65 -4 -79q-2 -25 -12 -42q-7 -11 -17 -21q-19 -17 -39 -28q-20 -10 -44 -15l-60 -12q-31 -6 -62 -3q-32 2 -57 11q-19 5 -32 12q-38 22 -54 38q-30 28 -42 69q-12 37 -21 102q-7 50 2 104q11 70 39 126q28 59 78 100l27 22q27 21 71 33q28 5 48 4h18h18
t17.5 -3t17.5 -3q6 -2 20 -2t20 -2q2 0 16 -2q13 -4 12 -17q0 -6 -2 -17.5t-2 -15.5q-2 -8 -3.5 -26t-2.5 -26q-2 -21 -6 -40q-5 -17 -21 -17q-40 0 -60 -1q-6 0 -18.5 -2t-18.5 -3q-42 -4 -79 -29q-49 -31 -61 -86q-11 -57 19 -113q7 -12 16 -25q26 -38 76 -49q21 -3 41 7
q14 8 15 23q2 30 2 42v5q-1 8 -1.5 10.5t-5 5.5t-13.5 3q-8 0 -24 -0.5t-23 -0.5q-6 0 -16 2q-19 3 -16 22q0 5 2 14.5t3 15.5q2 46 1 55v12q-1 10 5 14.5t16 4.5q10 -2 14 -2q9 -2 49 1q3 1 12 1q12 -1 51.5 -3t60.5 -6q1 -1 6 -1q11 0 14.5 -3t5.5 -15l3 -37
q0 -11 0.5 -35t0.5 -35z" />
    <glyph glyph-name="H" unicode="H" horiz-adv-x="511" 
d="M334 647h59h39h21q24 -1 24 -25q-1 -20 -1 -61l-4 -117q0 -14 -2 -41.5t-3 -41.5q-1 -12 -1 -36q-3 -27 -5 -82q-1 -6 -1 -18v-18q-2 -17 -4 -95q-1 -16 -1 -49l-3 -49q0 -6 -1 -8q-5 -15 -18 -15q-6 0 -18.5 0.5t-18.5 0.5t-17.5 -0.5t-17.5 -0.5q-15 -1 -47 -1
q-14 0 -16 15q0 1 -0.5 3t-0.5 4q0 41 -2 119q0 9 -0.5 25t-0.5 25q0 8 1 24t1 24q0 11 -1 18q-1 12 -13 12q-40 1 -77 -4q-17 -4 -17 -20q0 -11 1 -31.5t1 -30.5q0 -16 -2 -48l-3 -78q-1 -3 -1 -16q0 -19 -19 -19h-39q-26 1 -65 -4q-4 -1 -13 -1q-13 0 -14 13q-1 1 -1 7
q0 9 -0.5 26t-0.5 27t2 34l8 105l8 98l2 55q3 27 5 80q1 14 2 40t3 39l4 48q0 5 0.5 14t0.5 14q0 10 9 37q4 13 19 13l56 -3q7 -1 21 -1q24 -2 36 -2q18 -1 18 -20q-3 -52 -4 -61q-9 -90 -11 -113q-2 -11 -2 -51q0 -7 3 -10.5t10 -2.5q25 3 63 -2h9q12 3 12 13q0 18 4 55
t4 58q0 11 2 32t2 29q0 16 -2 46v7q3 16 18 16z" />
    <glyph glyph-name="I" unicode="I" 
d="M32 39h1q-2 22 -2 32q0 14 2 44v14v55l3 58l3 57l6 102l2 51q2 32 5 48v10l3 94q0 8 2 24q2 11 7 15.5t17 6.5q6 0 19.5 2t21.5 3t25 2.5t26 2.5q10 0 26 2q3 0 11 -2q14 -3 15 -15q5 -38 1 -69q-3 -20 -5 -61q-1 -16 -3 -47t-4 -47q-1 -13 -1 -41l-3 -78v-19t-1 -18
q-1 -14 -3 -42.5t-4 -43.5v-8l-3 -94l-2 -36q-1 -25 -26 -27q-11 -2 -33 -2.5t-33 -1.5q-7 0 -21.5 -2t-22.5 -3q-3 -1 -12 -1q-16 0 -17 16v19z" />
    <glyph glyph-name="J" unicode="J" horiz-adv-x="541" 
d="M288 295v63q2 46 2 64q0 8 -0.5 16.5t-1.5 18.5t-1 16q0 10 -1 13q0 8 -4 12.5t-12 3.5q-49 -2 -74 -5q-36 -2 -55 1q-17 3 -16 22q4 23 6 69q0 12 2 34q2 13 15 14l53 4l59 2q12 0 19 1q19 4 46 2q7 -1 14.5 -1.5t16.5 -1t14 -0.5q10 -1 27 -2t27 -3q23 -3 71 -5h8
q19 -1 19 -19q-2 -34 -2 -50v-11q0 -19 -1 -28q0 -17 -17 -20l-37 -4q-15 -2 -18.5 -6t-3.5 -19q0 -19 2 -57q1 -41 -4 -99q-1 -14 -3 -42.5t-4 -42.5q-4 -24 -15 -55q-15 -46 -29 -68q-44 -74 -124 -93q-9 -2 -26.5 -4t-24.5 -3q-44 -6 -85 16q-24 13 -46 38q-4 3 -8.5 9.5
t-8.5 10.5q-33 36 -38 87q-4 46 -6 94q0 11 2 31.5t2 26.5l2 8q3 12 14 10q5 0 10 -0.5t11.5 -1.5t10.5 -1q52 -9 67 -11h24q7 0 9 -1q13 -3 12 -16q0 -6 -1 -17t-1 -16q0 -39 2 -50q3 -23 19 -43q15 -20 39 -9q26 13 34 42q10 37 9 76z" />
    <glyph glyph-name="K" unicode="K" horiz-adv-x="565" 
d="M185 200q-2 -11 -1 -13q2 -8 4 -64q0 -7 0.5 -14t1.5 -16t1 -14q1 -11 4 -70q0 -2 -0.5 -7t-0.5 -9q0 -7 -6.5 -12t-13.5 -4l-19 2q-23 4 -51 -1q-30 -2 -45 -2q-9 1 -13 4.5t-6 13.5q-1 7 -1 18q-4 36 -4 78v97q0 10 1 42t0 50t0.5 50.5t1.5 45.5q1 23 1 69q3 70 4 84
l3 58q1 2 1 8q3 14 17 12q23 -2 89 0q9 1 27 -1q11 -2 13 -14l12 -81l3 -51q0 -35 1 -52v-19q0 -2 3 -5q2 1 5 3t4 4q8 8 13 17q38 54 53 85q7 13 21 36t19 32q5 10 14 27.5t15 26.5q14 26 16 28q6 14 22 14q40 -1 79 -6q0 -1 19 0h20h1l1 1q13 -1 17 -5.5t0 -18.5l-25 -60
q-5 -10 -14 -32t-15 -33q-16 -36 -40 -76l-24 -45l-37 -58q-2 -2 -4 -6.5t-3 -6.5q-6 -11 3 -20q27 -27 56 -68q53 -71 91 -135q10 -16 17 -31q10 -20 -12 -24l-18 -2q-9 -2 -29 -3t-29 -3q-36 -2 -56 -5q-2 -1 -6 -1h-6q-15 -1 -24 11l-33 43q-22 27 -29 34q-5 5 -10.5 10
t-12.5 11t-11 10l-8 8l-9 9l-8 8l-33 30q-2 1 -4.5 2.5t-5.5 3.5t-5 3q-1 0 -1 -0.5t-1 -0.5z" />
    <glyph glyph-name="L" unicode="L" horiz-adv-x="394" 
d="M264 13q-24 1 -68 -4h-36q-4 0 -10 0.5t-10 0.5h-81q-8 0 -10 1q-11 2 -13 11q0 3 -0.5 6t-1 5t-0.5 3v74q0 55 4 102q0 16 2 50q2 66 4 80q11 114 12 126q2 22 14 124q1 14 6 28q4 15 22 15h39l46 -4h3q14 -3 17.5 -9t1.5 -21q-6 -39 -7 -54q-1 -19 -1 -58
q-2 -34 -2 -49l-3 -68l-3 -53q-1 -9 -1 -28v-90q0 -10 1 -13q2 -14 16 -11q14 5 29 6q10 2 44 2q7 1 21 1q44 0 67 -1q14 -2 15 -16v-8.5v-10v-8.5q0 -10 0.5 -30t0.5 -30q0 -14 -2 -38q-1 -21 -23 -25q-23 -5 -44 -6h-49z" />
    <glyph glyph-name="M" unicode="M" horiz-adv-x="664" 
d="M445 448q-4 -1 -11 -10q-4 -4 -16 -27q-28 -53 -53 -91l-28 -36l-5 -5q-13 -10 -22 1l-21 32q-48 82 -52 88q-2 4 -4.5 7.5t-5.5 7.5t-5 6l-20 25q-5 7 -11 6q0 -1 -1 -5t-1 -6q0 -6 0.5 -17.5t0.5 -16.5q0 -8 -0.5 -24t-0.5 -23t1 -19t1 -18q0 -10 -2 -32l-4 -52
q-1 -31 -1 -90q0 -4 0.5 -13.5t0.5 -13.5q0 -8 -0.5 -21t-0.5 -21v-24q0 -17 -18 -20q-22 -4 -45 -6q-31 -3 -63 -3q-21 0 -21 22q-1 25 -1 75q0 41 1 61v72v67q0 81 4 111v15q0 13 0.5 37t1 44t1.5 38q0 1 3 52q3 17 20 20q32 5 62 0q37 -5 63 -4q24 0 37 -21
q52 -81 66 -99q4 -5 10 -15l9 -12q9 -12 16 0q3 5 7.5 14t6.5 12l57 106l8 17q5 15 23 15q4 -1 13 -1q23 -3 69 -5q7 0 20 2t18 2q13 2 19 1q18 0 21 -19q2 -9 3 -26t2 -26l9 -73q1 -5 1 -14q2 -11 4 -55l3 -53l3 -81q0 -6 -0.5 -15t-0.5 -13l3 -80l8 -83q1 -5 0 -13.5
t-1 -11.5q0 -11 2 -33q0 -6 0.5 -17.5t0.5 -17.5q0 -11 -4 -15.5t-15 -6.5l-51 -3q-13 -1 -38 -1h-37q-4 0 -11 -0.5t-10 -0.5q-12 0 -14 11q-1 7 -1 18q-2 29 0 59q0 33 1 50v37q2 66 2 99v17.5v21.5v19q-2 72 -2 108q0 10 -4 13z" />
    <glyph glyph-name="N" unicode="N" horiz-adv-x="598" 
d="M211 355l-4 -22q0 -4 0.5 -12.5t0.5 -13.5q0 -3 -0.5 -9t-0.5 -10l-3 -62l-4 -31q-2 -11 -3.5 -33.5t-2.5 -33.5q-3 -23 -3 -92q0 -12 -1 -19q0 -16 -15 -16h-38q-16 1 -32 0q-23 -3 -60 4q-13 1 -13 16q0 13 2 35q3 93 3 94q0 36 4 67l3 38q3 49 4 58q2 44 5 68
q1 9 3 26t2 25q3 45 3 46l6 75q3 16 5 48q2 13 6.5 17.5t16.5 5.5q36 2 54 -1l24 -3l24 -3q30 -3 36 -4q1 0 9 -2q17 -3 23 -21q1 -3 3 -10t4 -11q12 -25 23 -44q33 -57 64 -130q32 -73 35 -79q2 -4 6 -9q4 2 6 11l2 16v46q2 54 2 77l2 49l4 81q2 30 2 44q2 18 19 18
q3 0 10.5 -1t12.5 0q10 0 34 2q27 2 32 2q15 -3 16 -16q1 -7 1 -17q1 -12 2 -36.5t3 -36.5l3 -57l2 -87q0 -12 0.5 -33t0.5 -33q1 -29 1 -88q0 -27 2 -89l4 -74q0 -7 0.5 -22t0.5 -23q0 -2 -0.5 -6t-0.5 -5q-3 -12 -15 -14l-59 -8q-5 -1 -16 -1h-16l-59 -4h-1l-1 -1
q-16 -1 -23 2.5t-13 17.5t-21 52t-23 58l-36 87q-9 20 -26.5 60t-26.5 60q-6 13 -14 17z" />
    <glyph glyph-name="O" unicode="O" horiz-adv-x="678" 
d="M650 340h-1v-5q3 -44 -21 -113l-2 -4t-1.5 -3.5l-1.5 -4.5t-2 -5q-8 -28 -37 -72q-13 -20 -24 -32q-4 -4 -11 -12.5t-11 -12.5q-49 -51 -107 -71q-16 -5 -67 -12q-15 -2 -74 0q-18 1 -43 13q-24 9 -60 29q-1 0 -20 14l-35 26q-35 24 -57 58q-38 62 -45 93q-3 9 -3 17
q-5 41 3 83q14 70 26 103q11 32 33 68q39 65 68 96q20 23 52 43q8 6 16 11q42 28 83 35q21 2 30 1q28 0 84 -2q22 -1 42 -12q16 -7 46 -23q24 -12 54 -47q29 -33 52 -91q15 -36 29 -106q1 -10 2 -31t3 -31zM476 342q0 22 -2 28q-1 6 -3 15t-2 13q-8 39 -45 87q-14 17 -49 32
q-31 15 -54 4h-2q-25 -5 -45 -22q-21 -18 -35 -37q-26 -35 -42.5 -86.5t-10.5 -93.5q8 -55 48 -92q14 -13 44 -28q34 -16 68 -15q48 5 68 33l7 7q34 38 48 93q7 20 7 62z" />
    <glyph glyph-name="P" unicode="P" horiz-adv-x="479" 
d="M466 452q1 -40 -15 -96q-8 -27 -26 -45q-63 -72 -76 -87q-10 -10 -18 -14q-54 -28 -106 -37q-13 -3 -14 -16v-74v-15v-16v-33q0 -14 -14 -14q-11 1 -23.5 -0.5t-27 -5t-22.5 -4.5q-39 -2 -47 -4q-14 -2 -19 -2q-16 -1 -21 15q-1 7 -1 18q0 28 1 43q0 1 -1 6t0 8
q0 8 0.5 25t0.5 26v33v119q0 48 3 96q2 49 6 98q2 17 4 52t3 53q1 11 2 33t3 34q1 8 1.5 11.5t5 8t13.5 6.5q11 2 29.5 4.5t23.5 3.5q48 2 74 5q1 0 5 -0.5t6 -0.5q61 -9 81 -15q5 -2 15.5 -4.5t18.5 -5t15 -6.5q31 -17 53 -36q10 -10 15 -17q39 -51 50 -117q2 -7 2 -33z
M203 436l-1 -1v-28l4 -57q1 -17 6 -21.5t23 -2.5q37 4 63 36q16 19 22 43q6 36 -13 80q-9 19 -27 30q-27 15 -71 15q-11 0 -12 -13q0 -4 0.5 -12t0.5 -12q1 -9 2.5 -28t2.5 -29z" />
    <glyph glyph-name="Q" unicode="Q" horiz-adv-x="662" 
d="M446 -169h-18q-43 0 -74 14q-12 6 -45 32q-41 33 -51 81l-3 18q-3 17 -21 23q-54 19 -84 42q-36 27 -57 48q-37 37 -54 92q-15 49 -17 106q0 6 -1 27t0 32q5 54 15 108q7 34 31 66q25 35 48 62q13 14 40 34q28 23 74 42q13 5 57 17q6 2 19 4t19 3q2 0 30 3q41 3 80 -8
q38 -14 52 -26q4 -4 13.5 -10t13.5 -10q33 -33 42 -47l26 -37q15 -21 26 -50q11 -25 18 -51q5 -17 11 -51q1 -7 1 -17q5 -62 -13 -110q-35 -97 -77 -153q-42 -59 -96 -86q-40 -19 -52 -22l-6 -2q-8 -5 -4 -12q0 -2 2 -4q26 -29 54 -24q22 3 22 -20q0 -21 -2 -61v-29
q0 -3 -2 -11q-3 -13 -17 -13zM230 354q33 0 43 -2q70 -17 94 -79q18 -45 18 -93q0 -11 1 -16q2 -11 11 -6q10 6 15 12q30 26 50 71q29 70 21 119q-9 61 -31 97q-22 37 -54 61q-9 8 -18 9q-35 2 -49 -4q-9 -3 -26.5 -11t-27.5 -11q-36 -15 -78 -60q-23 -25 -32 -76
q-1 -13 11 -13h13q26 2 39 2zM260 169q-1 6 -2.5 16t-3.5 16q-3 12 -15 24q-14 13 -45 11q-11 0 -6 -11l12 -18q21 -30 41 -46q8 -6 14 -3q2 2 5 11z" />
    <glyph glyph-name="R" unicode="R" horiz-adv-x="563" 
d="M212 208q-5 -5 -7 -18q-4 -37 -4 -84q-2 -47 -5 -70l-8 -63q0 -3 -2 -13q-4 -12 -17 -12l-42 3q-1 0 -30 2t-43 1q-21 0 -19 20q0 39 2 125q0 9 0.5 27t0.5 27l4 64v28q2 38 2 57q1 43 6 85l11 119q1 14 3 39.5t4 38.5l4 33q2 8 4 11q4 10 16 10q2 -1 9 -1q18 -3 55 3
q79 9 126 6q13 -1 57 -10q1 0 4 -1t5 -1q47 -9 82 -43q48 -48 61 -85q3 -7 5 -15.5t4 -18.5t3 -16q3 -17 3 -32q0 -19 -4 -34q-3 -30 -15 -57q-15 -33 -45 -60q-4 -4 -12 -9.5t-11 -8.5l-8 -6q-9 -9 -1 -18q8 -10 22 -29.5t21 -28.5l33 -46q34 -48 51 -80q3 -7 4 -9
q5 -14 -8 -17q-4 -1 -8 -1.5t-9 -1t-8 -0.5q-91 -8 -102 -10q-14 -3 -24 9q-42 46 -62 70l-67 79q-17 20 -34 37q-1 1 -3 2t-4 3zM214 368v-39q0 -17 15 -12q10 2 28.5 8t21.5 7q31 11 47.5 41.5t13.5 59.5q-3 33 -24 48t-47 14q-26 -2 -39 -5q-11 -2 -14.5 -6.5t-3.5 -15.5
q2 -66 2 -100z" />
    <glyph glyph-name="S" unicode="S" horiz-adv-x="508" 
d="M62 26v36q0 12 0.5 35.5t0.5 34.5l2 13q4 16 21 13l48 -9q20 -5 38 -2q15 4 40 -1q37 -6 70 12q16 8 18 24q1 4 -1 14q-6 20 -24 31q-17 10 -33 16q-39 17 -78 30l-22 8q-33 12 -58 34q-43 41 -53 98q-4 31 -3 62q1 24 14 59t36 67q26 37 71 54q6 2 17.5 7t17.5 7
q24 8 47 12q43 7 87 6q35 -2 71 -6q1 0 10 -3q12 -4 10 -18q-1 -6 -3 -19t-4 -20l-14 -68l-2 -6q-5 -14 -19 -13q-48 5 -90 6q-39 2 -63 -15q-7 -5 -14 -11q-8 -12 -7 -23q6 -33 33 -46q26 -14 61 -28l17 -8l46 -20q40 -18 80 -53q22 -17 36 -51q16 -39 19 -56q0 -2 1 -3v-2
q0 -65 -18 -107q-13 -32 -37 -56q-34 -34 -52 -44q-37 -21 -83 -34q-34 -10 -77 -10q-19 1 -39 6q-14 3 -40.5 8.5t-39.5 9.5l-25 9q-13 6 -13 20z" />
    <glyph glyph-name="T" unicode="T" horiz-adv-x="462" 
d="M303 2l-65 -3l-54 4q-1 1 -4 1q-16 4 -17 20q-3 60 -4 72q0 18 -2 52l-3 81q0 10 -1 13l-3 84q-4 39 -2 93q0 7 -0.5 22t-0.5 22v30q0 14 -4.5 18t-18.5 4q-38 0 -94 9q-16 3 -14 17q0 15 3 30l8 68l2 10q3 9 12 9q4 0 9.5 -0.5t7.5 -0.5q8 0 30 2q32 5 56 5q37 -1 115 9
q12 2 35.5 3.5t35.5 2.5l56 3q9 1 27 1q8 -1 11 -3.5t5 -10.5q0 -1 0.5 -4t0.5 -4q3 -23 5 -69q3 -26 3 -51q1 -19 -18 -19q-26 1 -89 -10q-2 0 -2 -1q-11 -2 -14.5 -7t-2.5 -16l4 -32q9 -71 11 -90v-8.5v-10v-9.5v-39q2 -42 4 -53l4 -61q1 -9 2 -27t2 -28l3 -54l2 -49
q0 -2 -2 -10q-2 -11 -14 -13q-16 -2 -25 -2z" />
    <glyph glyph-name="U" unicode="U" horiz-adv-x="583" 
d="M310 16h-37q-43 0 -59 4q-36 10 -50 21q-32 20 -34 22q-45 35 -72 93q-10 21 -13 50q-1 12 -3.5 34t-3.5 34q0 8 -2 24l-3 24q-2 41 0 82q0 15 2 53l4 40q1 7 4 46l3 33t4 34q0 5 1.5 15t1.5 11q3 20 22 17q14 -1 36 2l23 2q7 0 19.5 0.5t23.5 1t21 1.5q14 0 15 -13
q0 -3 -0.5 -8t-0.5 -7q-4 -46 -6 -93q0 -1 -3 -92q-1 -23 -1 -66q0 -67 2 -86q2 -42 5 -51q5 -20 20 -31q21 -17 43 -23q35 -12 58 17q18 20 29 51q15 43 20 96q2 11 3.5 32t2.5 32q0 4 -0.5 11t-0.5 10q1 24 1 72l-4 98q0 6 -0.5 18.5t-0.5 18.5q1 13 14 16q6 2 15 3t15 2
l60 12q6 1 55 1q11 2 14 -12l1 -2v-3q-2 -42 -2 -63q-1 -8 -1 -24q-2 -86 -4 -104l-8 -112q-6 -72 -22 -140q-4 -17 -14 -39q-21 -45 -32 -65q-14 -28 -30 -43q-41 -35 -64 -43q-31 -12 -67 -14z" />
    <glyph glyph-name="V" unicode="V" horiz-adv-x="633" 
d="M325 244q4 6 6 11l10 43q12 48 22 83l36 129l20 80l7 19q7 18 13 54q2 11 6 15t16 6q8 2 23 4t23 3q13 1 39 1q8 0 21 -1t21 -1q15 0 19.5 -6t0.5 -20l-20 -84q-2 -6 -17.5 -75.5t-26.5 -105.5l-27 -92l-38 -114l-48 -132l-12 -31q-7 -18 -27 -18q-50 -2 -99 3
q-24 3 -49 3q-21 1 -27 19q-12 37 -29 78q-4 8 -9 24t-8 24q-8 22 -10 26q-11 30 -13 35l-23 52q-19 42 -38 102q-7 20 -16 58t-14 53q-6 19 -16 56t-15 54q-2 5 -3.5 14l-2.5 15q-3 18 17 18q73 -3 87 -4q24 -2 46 -6q13 -2 17 -14q19 -41 22 -50q11 -42 59 -169
q16 -42 29 -93q3 -12 19 -55q2 -6 6 -10l1 -1h2z" />
    <glyph glyph-name="W" unicode="W" horiz-adv-x="913" 
d="M632 284h3q1 3 2.5 7t1.5 6l8 51q4 23 11 59q5 24 18.5 82t20.5 90q3 12 5 38l7 42q4 21 25 22q7 2 38 4q3 0 10.5 -0.5t11.5 -0.5h30q13 0 37 -2q5 0 12 -4q10 -4 10 -16q0 -2 -0.5 -6t-0.5 -5q-1 -9 -3.5 -26t-3.5 -26l-2 -17q-5 -21 -12 -88q-3 -36 -9 -71
q-12 -72 -27 -141q-2 -11 -8 -33t-8 -33q-4 -21 -15.5 -58.5t-15.5 -55.5q-8 -32 -17 -79q-3 -19 -22 -22q-53 -9 -74 -8q-9 0 -26.5 -2t-22.5 -2q-24 -3 -54 2q-21 3 -27 24q-31 109 -32 116q-2 12 -5 17l-33 120q-3 13 -7 19q-3 5 -6 5q-4 0 -6 -5q-1 -4 -3 -11.5
t-4 -11.5q-6 -24 -10 -36q-12 -44 -38 -132q-10 -34 -17 -51q-6 -19 -25 -15q-23 3 -45 0h-11.5t-11.5 -1q-8 -1 -25.5 -3t-26.5 -2q-8 -1 -22 -1q-12 0 -18 11l-4 10l-15 38q-8 23 -9 30q-1 13 -6 25q-1 3 -10.5 40.5t-16.5 56.5q-5 21 -19 63q-23 76 -34 130l-6 24
q-12 39 -28 119q-9 42 -14 89q0 1 -0.5 2t-0.5 2q2 11 11 11q14 0 26 -3q7 -2 74 -10q3 0 11 -0.5t11 -0.5q15 -2 20 -17q1 -3 2 -9t3 -9q3 -11 8.5 -30.5t10 -35.5t8.5 -30q5 -20 14.5 -60.5t15.5 -60.5l24 -90q1 -5 4 -11q1 -2 6 -7q6 3 8 13l22 89l24 90l22 89
q13 61 16 70q4 16 19 15q7 -1 81 2q11 0 33 -2q10 -1 16 -15l15 -51q4 -11 7.5 -34.5t7.5 -35.5q27 -100 50 -159q2 -5 23 -65q1 -2 3 -7.5t4 -8.5z" />
    <glyph glyph-name="X" unicode="X" horiz-adv-x="650" 
d="M539 49v1h-46q-4 0 -13 0.5t-15 0.5q-9 1 -16 8l-6 6q-10 13 -29.5 38.5t-28.5 38.5l-34 47l-18 24q-13 16 -21 -2q-2 -5 -19 -40l-8 -16q-15 -26 -31 -75q-9 -28 -32 -72q-6 -15 -24 -14h-54q-6 0 -18 0.5t-18 0.5t-15 -0.5t-13 -0.5q-23 0 -34 1q-16 1 -10 16
q7 17 15 34l27 55q21 46 53 106l55 90q4 8 10 23.5t9 21.5q6 13 -3 27l-13 20l-36 61q-12 20 -34 62l-48 94q-1 2 -6 13t-9 16q-2 4 -7 10t-7 8t-4 5t-3 4q-5 8 4 12q2 1 5 1q1 1 2 1q8 2 23 4t23 3q14 2 21 2q55 0 82 -1q11 0 17 -8l20 -24q5 -9 13 -17q26 -23 55 -73
q16 -25 19 -29q7 -10 11 -9q2 0 4 1t2.5 2.5t1.5 3.5t2 3l14 40q5 13 14 41.5t15 42.5q5 12 11 15.5t19 2.5q36 -3 72 0q13 1 39 -1q10 -1 12 -13q0 -12 -1 -19l-20 -66q-20 -69 -25 -86q-4 -16 -12 -30l-22 -50q-2 -7 -8 -17.5t-8 -14.5q-9 -15 1 -28l44 -57
q3 -4 11.5 -14.5t12.5 -16.5l72 -102q24 -33 31 -45q11 -20 17 -40q8 -22 -16 -23z" />
    <glyph glyph-name="Y" unicode="Y" horiz-adv-x="606" 
d="M44 671h22q42 2 64 2q20 0 31 -1q11 0 19 -12q4 -4 9.5 -13.5t9.5 -13.5q20 -27 41 -50q33 -43 65 -80q8 -11 13 -10t10 14q47 96 52 105t14.5 27.5t15.5 28.5q8 15 24 14q4 0 15.5 1t17.5 0q48 -3 57 -4q21 -1 44 -6h5q16 -3 13 -19q0 -2 -2 -8l-23 -57q-18 -38 -29 -57
q-18 -33 -54.5 -92.5t-45.5 -74.5q0 -1 -2 -3q-12 -12 -14 -40q-3 -68 -2 -83q1 -11 0 -29t-1 -25q-1 -5 -1 -14v-13q-3 -31 -5 -93v-10.5v-13v-11.5q0 -2 -0.5 -6t-0.5 -5q-4 -18 -21 -18l-70 3l-31 2q-11 0 -35 2q-15 2 -15 20q-1 16 -1 47l1 13q0 14 -1 14q0 18 -2 64
l1 21q0 21 -1 22q0 5 -0.5 13t-0.5 12v29q0 48 -1 72q0 18 -10 31q-13 17 -36 49.5t-32 44.5q-27 39 -51 83q-4 3 -5 8q-21 25 -53 76q-8 13 -17 22q-7 7 -8 9q-4 5 -2 9t9 4h20z" />
    <glyph glyph-name="Z" unicode="Z" horiz-adv-x="541" 
d="M272 216l-9 -11q7 -5 15 -5q39 0 44 -1q13 -1 39.5 -2t40.5 -2l60 -3q14 0 22 -1q20 0 22 -21v-1q1 -1 1 -3q0 -10 0.5 -30.5t0.5 -31.5q0 -21 -2 -59q-1 -18 -20 -17l-46 3q-64 3 -66 3q-19 1 -51 -5q-31 -6 -76 -8q-35 -1 -107 -1q-61 -2 -81 -6q-1 -1 -6 -1
q-14 0 -17 13q-2 16 -2 25q0 12 0.5 36t0.5 36q0 2 0.5 7.5t0.5 9.5q2 46 4 56q0 10 7 16l12 11q10 10 35.5 32.5t37.5 34.5q10 10 29 30.5t29 30.5q6 5 16.5 14.5t15.5 15.5q25 24 95 107q2 4 7.5 9t7.5 8q10 13 -6 17q-19 5 -48 3q-64 -5 -105 -2q-63 2 -81 -1
q-8 -2 -30 0q-15 0 -16 16l-3 40q0 10 -0.5 30.5t-0.5 30.5q0 20 19 21q55 6 77 7q9 1 19.5 1.5t22.5 1t19 0.5q22 1 46 6l34 8q21 5 52 3q1 0 49 -3q32 -4 72 -1q0 1 8 1l7 -1q17 0 21 -15q5 -14 6 -29q10 -94 10 -108q0 -11 2 -41q0 -21 -8 -31q-12 -19 -21 -29
q-63 -76 -90 -103l-67 -63q0 -2 -2 -2q-5 -5 -14.5 -14t-17 -17t-14.5 -15z" />
    <glyph glyph-name="bracketleft" unicode="[" horiz-adv-x="329" 
d="M33 8h-1q2 10 3 27t2 26l4 73q3 42 9 86q2 10 2 43q-2 42 0 86q0 15 -2 92v9.5t-1 10.5v82q0 75 1 112q0 8 2 30q2 19 21 21q8 0 24.5 2t24.5 3h22q12 1 35 1q3 0 7 0.5t7 0.5q11 0 32 -0.5t31 -0.5q12 0 17 -4t7 -16q2 -8 10 -80l4 -34q0 -12 -1 -17q-2 -14 -14 -12
q-8 0 -26 2q-11 3 -32 5q-19 2 -18 -15q2 -12 3 -37t2 -37v-4q0 -18 0.5 -51.5t0.5 -49.5q0 -10 -0.5 -21t-1.5 -24t-1 -21q-1 -23 -1 -69q2 -38 2 -56v-14q0 -13 14 -15h22q20 0 29 -1q17 -3 17 -22q1 -6 1 -15.5v-15.5l4 -69v-12.5v-15v-12.5q-1 -15 -16 -16
q-6 -1 -16.5 -1h-15.5q-12 0 -36 -2q-10 0 -31 -2t-32 -3q-30 -2 -41 -2q-17 0 -51 2q-21 0 -21 22q-1 3 -1 16v15z" />
    <glyph glyph-name="backslash" unicode="\" horiz-adv-x="334" 
d="M253 -5v3h-57q-17 0 -29 4q-14 3 -19 17l-3 11q-5 28 -14 70q0 2 -5.5 29t-9.5 41l-49 170q-20 68 -26 113q-6 42 -9 84q-7 68 -12 92q-4 9 -4 22q-2 11 10 13q22 2 31 2q16 -2 47.5 -3t47.5 -3q14 0 18 -13q3 -9 16 -51q3 -10 9 -37t10 -42q7 -22 34 -132
q11 -45 45 -189q26 -114 31 -144l4 -31q4 -15 -12 -19l-5 -2q-34 -2 -49 -5z" />
    <glyph glyph-name="bracketright" unicode="]" horiz-adv-x="336" 
d="M297 531h1v-51q0 -10 1 -30.5t1 -30.5t-2 -40v-29v-83q0 -7 0.5 -21t0.5 -21v-32q0 -6 0.5 -18.5t0.5 -18.5q0 -63 -1 -94q-1 -35 -6 -77q0 -1 -2 -9q-2 -11 -13 -13q-14 -2 -22 -2t-26 2q-14 0 -43 0.5t-45 0.5q-8 0 -30 -2q-7 -2 -21.5 -3t-21.5 -2q-3 0 -17 -2
q-19 -1 -19 18q0 57 1 85q0 5 0.5 13.5t0.5 12.5q1 15 14 19q26 6 39 10l26 9q14 6 14 22q-1 41 6 104q1 1 1 7q0 74 2 95q1 10 -2 63q0 21 -2 61l-8 69q-2 14 -16 15q-11 1 -33 1l-13 2q-14 2 -14 16v49q0 8 1 24t1 24l2 25q2 17 17 20q12 3 36 5q54 2 81 2l75 -3
q16 -1 21 -18q1 -4 4 -24l8 -77q2 -8 2 -36v-37z" />
    <glyph glyph-name="asciicircum" unicode="^" horiz-adv-x="471" 
d="M165 268h-19q-19 2 -72 -7l-23 -4q-2 -1 -9 -1q-13 -2 -17 3.5t-1 16.5q13 82 29 124q15 40 40 132q6 20 17.5 57.5t16.5 56.5l6 14q3 9 7 12t15 3q1 0 15 -0.5t15 0.5l50 3q30 2 41 2l49 3q15 1 20 -2.5t11 -17.5q13 -36 24 -60q11 -27 20 -66l27 -121q2 -11 4.5 -30
t3.5 -25l8 -69v-9q0 -13 -14 -19q-26 -9 -73 -7q-6 0 -20 0.5t-20 0.5q-20 -2 -24 18q-7 49 -24 103l-21 78q0 1 -2 7l-6 6q-1 -1 -3 -2.5t-3 -3.5q-2 -3 -3.5 -8t-2.5 -8l-12 -47l-24 -107l-2 -8q-5 -19 -24 -18z" />
    <glyph glyph-name="underscore" unicode="_" horiz-adv-x="334" 
d="M33 -1l3 51q0 2 2 10q5 14 19 17h4l78 2q7 0 25 1t29 0q7 0 14 -0.5t16 -1.5t14 -1l37 -2h3q16 -2 21.5 -7.5t4.5 -20.5l-3 -101q0 -19 -16 -19q-4 0 -13 -0.5t-14 -0.5q-11 0 -32 0.5t-33 0.5q-22 2 -30 2q-4 0 -11.5 -0.5t-11.5 -0.5q-28 -1 -84 -1q-18 0 -18 17
q-2 11 -4 55z" />
    <glyph glyph-name="grave" unicode="`" horiz-adv-x="261" 
d="M87 662q6 -2 18 -3.5t19 -2.5l56 -8q14 -2 18 -16l9 -45q16 -62 23 -93l2 -10q3 -15 -12 -18l-56 -9q-19 -4 -32 14l-86 140q-13 20 -14 23q-12 20 10 24l5 2q8 0 40 2z" />
    <glyph glyph-name="a" unicode="a" horiz-adv-x="605" 
d="M571 73l4 -38q0 -8 -2.5 -11t-10.5 -5l-27 -3q-22 -2 -30 -2q-6 0 -17.5 0.5t-16.5 0.5q-21 0 -32 -1q-23 -3 -26 20l-13 74l-9 63q-3 15 -7 19.5t-20 9.5q-37 8 -66 8q-27 0 -42 1q-10 1 -13.5 -1.5t-4.5 -12.5q-1 -5 -4.5 -33t-4.5 -44q-1 -20 -7 -60q-2 -18 -5 -27
q-4 -15 -22 -17l-84 -8q-11 -2 -32.5 -3t-32.5 -2q-6 0 -8 1q-15 2 -12 17q2 6 4 19t3 19l22 111q3 15 8.5 41.5t7.5 35.5l21 100q3 11 5 37q14 82 29 142l23 96q1 8 5 17q6 23 30 24q69 8 102 5q11 -2 32.5 -2t31.5 -2l60 -8l70 -8q9 -1 13.5 -2t7.5 -6t3 -7t2 -12l8 -66
q2 -33 5 -49q7 -79 10 -95q2 -14 7 -40.5t7 -39.5l8 -51q4 -24 6 -49l3 -30l3 -30q1 -12 3 -35.5t4 -35.5q0 -17 1 -25zM373 362v1q0 1 -0.5 1t-0.5 1l-9 72q-7 34 -10 46t-15 14q-18 2 -27 2q-11 0 -16 -12q-2 -4 -3.5 -13t-2.5 -13q-4 -15 -16 -86q-5 -11 -6 -21
q-1 -8 2.5 -12t11.5 -3q5 0 6 1l71 4q15 2 15 18z" />
    <glyph glyph-name="b" unicode="b" horiz-adv-x="503" 
d="M51 602h-1l3 55q0 1 2 9q3 20 22 24q44 9 55 11t32 4.5t28 3.5h6l59 -3q2 0 5 -0.5t5.5 -1t4.5 -1.5q63 -17 111 -49q11 -7 28.5 -23t24.5 -21l9 -13l22 -44q11 -26 6 -58q-6 -48 -43 -89q-5 -5 -10.5 -9.5t-12 -9.5t-10.5 -8q-8 -6 -10 -9t0.5 -5.5t10.5 -6.5
q45 -21 65 -79l7 -19q10 -25 4 -54q-6 -47 -28 -83q-12 -18 -14 -19l-36 -36q-2 -2 -6 -4.5t-6 -3.5t-12 -5.5t-15 -8.5q-7 -5 -16.5 -9.5t-15.5 -6.5t-18 -5.5t-17 -4.5l-53 -13q-3 -2 -21 -4q-68 -3 -81 -4q-9 -1 -26 -3t-26 -2q-1 -1 -15 -0.5t-15 0.5q-6 0 -10.5 4.5
t-4.5 11.5q0 17 1 26q4 15 2 46l-4 61v52q0 7 -0.5 20t-0.5 21q-1 32 5 101q1 8 1.5 17t1 19t0.5 16l3 66q2 26 2 41q2 70 2 106zM220 226v-12l2 -46q0 -10 3.5 -13t13.5 -2q28 5 52 17q9 4 17 12q29 29 15 62q-15 32 -45 39q-16 3 -47 -3q-10 -1 -10 -14q-1 -13 -1 -40z
M317 486q0 30 -25 39q-29 12 -62 16q-15 2 -19.5 -3t-2.5 -20q2 -7 4 -31q1 -4 4 -27t5 -35q1 -16 18 -13q16 3 31 9q46 17 47 65z" />
    <glyph glyph-name="c" unicode="c" horiz-adv-x="453" 
d="M23 303q0 65 12 126q4 26 12 53q2 8 13 32l36 63q18 31 64 60q23 15 71 37q20 10 68 18q13 2 27 0q40 -2 48 -4q18 -2 23 -4q14 -5 14 -20q1 -26 -6 -100l-3 -10q-5 -15 -20 -18l-72 -11l-25 -3q-60 -9 -90 -65q-16 -29 -18 -67q0 -56 20 -107l22 -50q21 -35 43 -44
q16 -7 36 -9q8 -1 24 -2.5t24 -3.5q18 -4 43 -2q21 1 22 -18q3 -19 5 -56q1 -10 1.5 -21.5t1 -25.5t0.5 -22q0 -18 -17 -21q-6 -2 -12.5 -3t-15 -2.5t-13.5 -2.5q-11 -2 -32.5 -4t-31.5 -3q-21 -3 -55 4q-47 9 -89 34q-59 34 -88 87q-23 39 -30 82l-9 42q-1 9 -1.5 19
t-1 22.5t-0.5 19.5z" />
    <glyph glyph-name="d" unicode="d" horiz-adv-x="557" 
d="M232 708q39 4 108 -17q32 -8 44 -16q34 -18 60 -47q19 -22 39 -59q26 -46 34 -71q19 -57 16 -123q-1 -25 -6 -51q-2 -9 -4.5 -24t-3.5 -20q-4 -27 -18 -65q-21 -49 -30 -63q-3 -3 -4 -6q-15 -35 -74 -90q-19 -19 -79 -51q-18 -10 -62 -20q-34 -9 -82 -14q-7 0 -19 -0.5
t-18 -0.5q-13 -1 -37 -1q-17 0 -22 15q-2 3 -3.5 9.5t-2.5 10.5q-8 29 -13 78q-4 35 -14 105q-1 9 -4 58q-2 54 -2 83l3 60v6q-1 38 4 92q1 16 3 49t4 49q1 12 3 36.5t3 37.5q1 19 20 25q17 6 31 10q67 19 126 15zM191 457v-57h-1q4 -48 4 -110q1 -29 7 -85l3 -18
q3 -12 15 -11q47 7 58 11l28 11q30 12 44 30q40 49 48 112q2 27 -5 42q-2 4 -3.5 12t-3.5 12q-15 48 -43 76q-14 11 -16 12q-38 18 -42 19q-38 14 -74 9q-13 -3 -17.5 -8.5t-3.5 -19.5v-2q0 -11 2 -35z" />
    <glyph glyph-name="e" unicode="e" horiz-adv-x="487" 
d="M406 602l3 -53v-6q-1 -13 -14 -16q-7 -1 -16 -1q-21 -3 -92 -5q-34 -2 -51 -5q-11 -2 -13.5 -5.5t-2.5 -15.5q-2 -19 0 -39q0 -26 2 -33q1 -12 13 -13q1 -1 9 -0.5t9 0.5h47q29 0 44 -1q39 -1 77 -6q19 -2 20 -21l6 -78q2 -14 2 -22q0 -14 -13 -17q-47 -7 -54 -7
q-4 0 -9.5 0.5t-8.5 0.5q-32 1 -110 -10l-25 -3q-12 -4 -12 -13q-2 -24 -2 -35q-1 -8 -1 -23q0 -13 17 -15q25 -2 44 2q21 4 64 4h46t45 -1q9 0 12 -1q11 -3 13 -15v-13q0 -2 1.5 -24.5t1.5 -33.5q1 -12 -1 -35v-12q-2 -14 -14 -16q-17 -3 -50 -5h-18.5t-18.5 -1l-33 -3
q-23 -3 -68 -3q-63 5 -120 -8q-34 -7 -55 -4q-9 1 -28 -1q-9 -1 -14.5 4t-4.5 14q2 25 5 38v7v78q2 66 5 101q1 42 6 86l9 118q7 86 7 111q1 26 7 76l3 27q2 23 24 24h15q12 1 34 1q6 0 17 -0.5t17 -0.5q60 3 61 3q15 1 45 -1q46 -6 68 -5q10 1 30 -1q16 0 19 -15
q2 -7 2 -30q0 -15 -1 -23z" />
    <glyph glyph-name="f" unicode="f" horiz-adv-x="445" 
d="M433 635v-54v-57q-2 -17 -17 -17q-43 -2 -74 2q-7 1 -21 1h-90q-4 0 -18 -2q-11 -2 -11 -12q0 -23 2 -71q0 -19 1 -30q0 -6 1 -8q3 -10 12 -7q16 4 47 5t38 2l41 2q9 0 11 -1q15 -1 17 -16l3 -20q3 -27 5 -81q2 -11 0 -21q0 -14 -15 -17q-70 -14 -103 -13h-39
q-2 0 -16 -2q-11 -2 -11 -13v-78q0 -23 1 -34l3 -57q1 -11 -3 -15.5t-15 -4.5q-13 0 -39 2q-30 4 -67 -1q-10 -1 -25 2q-12 2 -13 17q0 4 0.5 12t0.5 13v8q0 9 -0.5 25t-0.5 25q0 17 2 55q0 8 0.5 23t0.5 22q1 35 1 102q0 40 -1 60q0 9 -0.5 27t-0.5 27q0 10 1 30t1 31
q0 20 -2 66q0 24 -1 36q0 8 -0.5 21t-0.5 21q0 16 16 16q32 4 70 4h24h24q36 0 47 2q32 0 36 -1q8 -1 24 -1q60 0 76 -3q30 -5 52 -2h5q12 0 16.5 -4.5t4.5 -15.5z" />
    <glyph glyph-name="g" unicode="g" horiz-adv-x="554" 
d="M520 334h-1l3 -89q0 -42 -1 -62q-2 -32 -5 -53v-8q-1 -27 -1 -78q0 -19 -19 -25l-29 -7q-6 -2 -18.5 -3.5t-18.5 -2.5q-30 -4 -60 -3q-58 0 -75 2q-57 5 -94 21l-79 35q-15 7 -26 19l-12.5 12.5l-12.5 12.5q-9 6 -14 18q-34 69 -30 125q2 74 13 125q1 6 2.5 17.5
t3.5 17.5q3 20 23 66q22 46 27 54q6 12 26 38q53 64 147 88q31 8 66 3q24 -4 61 2q25 2 44 -2q17 -5 17 -23q-1 -21 -1 -63q0 -6 0.5 -18t0.5 -18q0 -2 -2 -12q-2 -9 -11 -11q-5 -1 -16 -1q-50 -2 -69 -8q-40 -11 -86 -47q-32 -26 -50 -75q-12 -26 -16 -48q-5 -22 -10 -61
q-3 -43 26 -72q18 -17 48 -23q30 -5 72 -5q14 2 14 16v40v36q0 11 -11 13q-7 0 -29 -2q-5 0 -13 -1t-12 -1q-14 -2 -17 14q-2 14 -2 15q2 22 2 35l2 30q2 31 5 46q2 17 21 16l87 -4q5 0 14.5 0.5t13.5 0.5l44 3q11 1 33 1q20 0 20 -19q1 -13 2 -38.5t3 -38.5z" />
    <glyph glyph-name="h" unicode="h" horiz-adv-x="599" 
d="M391 558v77v7q1 18 17 19h60q8 0 24 -0.5t24 -0.5h15q15 0 19 -13q2 -10 2 -13q2 -12 3.5 -37t3.5 -38l3 -36t2 -36t-0.5 -34.5t-0.5 -33.5l-3 -48q-2 -144 -2 -213q0 -14 0.5 -29t1.5 -34t1 -29v-18q-3 -15 -18 -14q-15 2 -55 -6l-28 -8q-17 -4 -51 -4q-13 0 -16 14
q-3 9 -5 27l-3 45l-3 43q0 5 0.5 11t1.5 13.5t1 11.5l3 24t2 24q1 14 -1 41q0 14 -14 14q-4 0 -14 -2q-23 -4 -53 -1h-19h-17.5h-21.5h-19q-5 0 -7 -1q-15 0 -16 -16q-1 -8 -1 -24q-1 -10 -4 -61v-6q-1 -27 -1 -79q0 -16 -2 -48q-2 -15 -16 -15q-29 0 -38 2l-80 9l-9 2
q-12 2 -15.5 6t-4.5 15q0 7 -0.5 22t-0.5 23q0 52 -1 79q0 57 5 98l2 52q3 37 5 107q3 51 3 53v92q0 4 -1.5 12.5t-0.5 12.5q0 31 10 58q6 19 27 19q6 0 18 -1t18 -1l50 -2q9 0 27 -2q12 -3 15 -17l8 -69q0 -1 0.5 -3t0.5 -4q0 -16 0.5 -46t0.5 -46l-3 -57q0 -18 16 -18
q37 0 56 -1q20 -1 60 -7q14 -2 23 -2q12 0 14 14v13q2 78 2 114z" />
    <glyph glyph-name="i" unicode="i" 
d="M37 118q0 8 0.5 23.5t0.5 22.5q0 8 -1 23.5t-1 23.5q-1 0 0 18v18v15q2 43 1 51q-1 9 0 25t1 21v59t1 59l4 125q1 12 1 37q1 15 15 20q14 2 15 2q29 1 69 -5q8 -2 23 -2t22 -2h6q15 0 21 -6t7 -21q0 -69 -11 -144q-10 -45 -4 -95q1 -4 1 -11v-10q0 -13 2 -40t3 -41v-23
v-27.5v-23.5v-5q-2 -72 -2 -107q0 -36 1 -53q0 -18 -6 -24t-23 -5l-60 2q-9 0 -28.5 -0.5t-29.5 -0.5q-3 -2 -8 0q-14 1 -16 16l-3 35q0 9 -0.5 25.5t-0.5 24.5z" />
    <glyph glyph-name="j" unicode="j" horiz-adv-x="501" 
d="M201 517v2h-35q-18 0 -18 18l-3 82q0 5 -1.5 15.5t-1.5 13.5v11q3 16 16 16q6 0 16 0.5t16 0.5l36 -3q2 0 8 0.5t8 0.5l58 3q5 0 16.5 0.5t17.5 0.5q1 0 40 -3q13 -1 38.5 -3t39.5 -4q19 -1 19 -20q0 -6 0.5 -15t0.5 -13t-0.5 -12t-0.5 -11q0 -16 2 -54q0 -7 -1 -9
q-2 -11 -13 -14h-13q-11 -2 -12 -10q-1 -3 -1 -12l3 -95q2 -38 2 -56q4 -39 4 -87q-2 -84 -14 -131q-14 -46 -29 -68q-14 -19 -39 -39q-16 -12 -41 -27q-28 -15 -64 -10q-29 1 -64 8q-20 3 -34 10q-31 12 -55 28q-14 8 -40 43q-22 32 -30 74q-8 34 -12 70q-2 14 -2 61
q0 18 18 18q11 0 33 -2q3 0 9 -0.5t9 -0.5q36 2 72 -3l10 -2q14 -5 14 -17q0 -28 8 -62q5 -29 22 -45q13 -12 29.5 -11t27.5 14q21 27 28 68q5 26 -1 69l-4 47q-1 18 -2.5 52t-2.5 51q0 15 -1 22q0 18 -1 27q-2 12 -14 12q-24 1 -71 1z" />
    <glyph glyph-name="k" unicode="k" horiz-adv-x="622" 
d="M216 416l10 10q40 50 86 104l45 54q28 35 51 80q8 14 19 14q4 0 11.5 -1t10.5 -1q48 -4 98 -15l27 -3q26 -3 10 -24q-27 -36 -53 -82q-2 -4 -18 -26.5t-22 -36.5q-9 -17 -20.5 -34t-27.5 -39t-23 -32q-6 -9 -29 -32q-13 -13 0 -25q5 -4 15.5 -14t15.5 -14q43 -40 67 -71
q14 -19 41.5 -53.5t31.5 -40.5l30 -42q2 -2 3 -4t3 -4q10 -18 -9 -21q-9 -3 -18 -3q-17 -2 -51.5 -3t-52.5 -3l-18 -2q-12 0 -21 11q-9 12 -27.5 35t-27.5 34l-33 32q-48 42 -56 51q-49 49 -56 55q-8 6 -12 4q-2 -8 -2 -9q0 -18 2 -50q0 -8 0.5 -16t1.5 -18t1 -16
q0 -5 1 -23t0 -29q0 -13 -0.5 -40.5t-0.5 -41.5q-1 -13 -15 -16q-18 -2 -27 -2l-88 -8q-11 -1 -34 -1q-13 0 -16 14q-1 3 -1 11q0 54 -1 81q0 14 -0.5 39t-0.5 39q0 6 1 24t0 28q-1 30 5 91q2 34 2 52l2 101q2 77 4 93q6 67 17 103q2 10 6.5 13.5t15.5 3.5h30q25 1 73 -1
q12 0 15 -1q14 -3 15 -16v-23q0 -6 -0.5 -18.5t-0.5 -18.5q-2 -10 -3 -31t-2 -31v-8l-4 -74l-2 -46q0 -10 6 -13z" />
    <glyph glyph-name="l" unicode="l" horiz-adv-x="422" 
d="M283 19q-20 0 -62 -2q-2 0 -6 0.5t-6 0.5q-45 6 -68 3q-9 -1 -25 0t-22 1h-22q-3 -1 -11 -1q-12 2 -15 13l-2 12v46l-4 44q-2 46 -2 69q-2 46 -2 67q0 31 2 95v28q2 12 4 64l2 39q0 43 1 66q2 40 5 65q0 1 0.5 3t0.5 3q5 21 24 24q9 3 23 5q8 2 22 4l21 3h7h8.5h6.5
l52 -4q11 -1 15 -5t3 -15q-1 -13 -4 -37.5t-5 -44.5t-3 -38q0 -2 -3 -53l-3 -71q0 -15 -1 -22l-3 -62q-2 -65 -1 -78v-30q0 -8 1 -10q1 -8 9 -10q1 -1 7 -1q17 0 100 -13q9 -1 26 -2.5t26 -3.5q18 -2 19 -16q5 -26 10 -68q2 -8 2 -37q0 -20 -18 -23q-24 -5 -49 -6
q-13 -2 -60 -2z" />
    <glyph glyph-name="m" unicode="m" horiz-adv-x="716" 
d="M106 -1h-15q-32 0 -42 2q-14 2 -14 18q1 16 4 94q1 5 1 14v13q0 15 2 47q0 3 0.5 10t0.5 10q0 7 1 22t1 23q-1 39 4 95q2 32 2 49q1 17 4 107q2 38 2 52q2 11 2.5 33t2.5 34q0 11 4 20q3 15 18 17q4 1 28 4l69 9q9 1 27 -1q7 -1 14 -10q4 -6 21 -28q47 -65 85 -105
q10 -13 11 -14q10 -10 20 -1q5 5 6 7q4 5 15.5 20t17.5 24q9 12 24 36t18 29v1l1 2q14 25 40 23q5 0 57 8q18 3 21 2q38 -5 85 3h1q1 1 2 1q24 2 24 -20q0 -2 1 -4q2 -46 2 -69q0 -32 5 -77q1 -15 -1 -44v-9l-4 -98l-3 -58l-4 -48l-2 -57q0 -7 0.5 -19.5t0.5 -18.5
q2 -80 5 -96v-32q0 -15 -15 -18q-40 -8 -49 -7q-8 1 -19 -2q-21 -4 -49 -1q-6 2 -32 4q-20 2 -20 22q1 9 1 27v28t0.5 21t1.5 24t1 21v42q2 58 2 88q2 42 2 64v14v15v12q2 22 2 32q0 11 -3 21q0 4 -5 7q-6 2 -7 -4l-23 -31l-63 -95l-36 -47l-5 -5q-9 -7 -17 1q-5 5 -6 7
l-56 81q-3 4 -8.5 12.5t-8.5 13.5q-14 21 -28 33l-19 20q-4 4 -7 3q-4 0 -4 -8q1 -11 2 -32t3 -32q5 -33 2 -53v-3q0 -10 -0.5 -30t-0.5 -30q0 -49 -2 -147q0 -20 -2 -58q0 -3 -2 -13q-3 -12 -15 -14z" />
    <glyph glyph-name="n" unicode="n" horiz-adv-x="654" 
d="M216 359q-3 -4 -4 -8t-0.5 -8t-0.5 -8q-1 -15 -2 -46t-3 -46l-4 -37l-4 -55q-1 -27 -1 -77q0 -31 -1 -47q0 -22 -23 -24h-16l-74 -4q-5 0 -16 -0.5t-16 -0.5q-16 0 -16 16q-2 17 0 34q1 9 5 47t5 58q0 9 0.5 27t0.5 27l4 56q2 34 2 51q2 17 4 90v15l2 52v36q2 16 3 47.5
t3 47.5q1 13 7 39q3 14 19 14q5 1 16.5 1h17.5q13 0 37 2q32 2 38 2q8 -1 23 -1q17 0 24 -16q8 -21 9 -23q20 -38 29 -51q22 -34 35 -65q12 -25 22 -38q25 -32 69 -99q3 -5 11 -15q2 -3 12 -13q3 3 5 9q2 10 2 12v58q0 11 0.5 30.5t1 36t1.5 31.5q1 11 0 31t-1 26
q0 9 0.5 26t0.5 27q1 4 1 13q0 17 15 18t45 1q4 0 13 -0.5t15 -0.5q5 0 14 -1t16 -1.5t14 -0.5q17 -2 23 -17q6 -11 6 -42q0 -32 1 -49l4 -69q1 -11 4 -73q3 -68 2 -82q-2 -33 2 -56v-9l-2 -34q0 -6 -1 -18t-1.5 -21.5t-0.5 -17.5q-1 -9 -1 -25.5v-24.5q0 -1 -3 -37
q-1 -7 -3 -20.5t-4 -20.5q-1 -13 -15 -19q-33 -12 -72 -18h-21l-41 2l-21 2q-14 2 -20 15l-14 31l-31 55q-3 6 -8 17.5t-9 17.5l-14 34q-8 17 -16 30l-43 67q-8 14 -24.5 39t-24.5 38q-4 7 -12 10z" />
    <glyph glyph-name="o" unicode="o" horiz-adv-x="639" 
d="M29 300h-1q2 16 2.5 48.5t2.5 48.5q7 57 27 110q20 51 38 78q31 48 82 68q30 12 67 17q5 1 48 1q6 0 19 -0.5t21 -0.5q24 -3 29 -4q41 -11 76 -26q49 -23 86 -60q16 -16 38 -56q23 -44 39 -113q11 -50 8 -92q-1 -16 -1 -46q1 -20 -7 -58q-11 -42 -42 -87q-4 -7 -12 -17
l-22 -24q-9 -10 -71 -59q-48 -35 -88 -40l-65 -9q-78 -5 -127 36q-7 6 -20 16t-23.5 18.5t-19.5 16.5q-31 28 -58 87q-21 50 -26 107v40zM446 338v16q-1 16 -3 24l-8 39q-19 73 -91 94q-13 2 -19 1q-15 0 -32 -3l-12 -3t-12 -4q-39 -20 -58 -56q-28 -58 -34 -99
q-2 -18 -1 -26q0 -27 11 -54q15 -53 62 -80q42 -23 71 -18q36 6 51 18q40 28 61 75q12 28 14 76z" />
    <glyph glyph-name="p" unicode="p" horiz-adv-x="546" 
d="M187 651q21 0 83 -2q34 -1 67 -6q57 -8 107 -29q11 -5 36 -30q27 -27 39 -74q9 -32 11 -51q1 -4 1 -33q0 -12 -2 -36q-1 -40 -18 -81q-26 -71 -100 -117q-26 -18 -50 -28q-27 -12 -83 -26l-14 -2q-27 0 -40 -1q-13 0 -15 -14v-29q1 -10 3 -29t3 -29q1 0 1 -18l-1 -18
q0 -17 -18 -17q-14 0 -44 2q-45 2 -55 4q-7 1 -21.5 3t-22.5 4q-18 3 -16 20q0 14 0.5 41.5t0.5 41.5v33v63q0 21 -1 63t-1 64q0 46 2 140q2 40 2 58q2 15 4 86q1 1 1 3q2 15 6 19.5t19 7.5q4 2 11.5 3t10.5 3q32 13 94 11zM211 401h-2l2 -51l4 -56q2 -14 14 -12q3 0 9 0.5
t10 0.5q47 2 76 23l22 15q22 17 29 35q13 30 10 65q0 7 -5 19q-16 36 -53 58q-15 9 -34 11l-29 3q-26 5 -47 -1q-12 -1 -12 -14q0 -17 1 -26q2 -48 5 -70z" />
    <glyph glyph-name="q" unicode="q" horiz-adv-x="681" 
d="M332 672h36q33 2 57 -3q49 -7 89 -40q9 -7 23 -21l17 -17q42 -41 70 -106q15 -39 20 -68q2 -8 3.5 -25t2.5 -25q7 -42 -5 -94q-1 -5 -3 -19.5t-4 -21.5q-27 -73 -56 -113q-28 -40 -51 -59q-8 -8 -13 -11l-46 -25q-21 -9 -3 -23q12 -9 28 -9l55 -4q14 -2 14 -16
q5 -50 -10 -112l-2 -8q-5 -14 -19 -17l-45 -8l-1 -1h-2q-7 1 -20.5 1.5t-22 1.5t-20 3.5t-20.5 7.5q-23 12 -41 37q-31 48 -40 104l-1 1v4q-2 9 -5.5 12t-12.5 4q-7 2 -22 4t-23 3q-26 5 -59 24q-35 18 -66 49q-38 36 -55 67q-13 24 -18 39q-12 27 -21 44q-15 27 -18 59
q-6 44 -2 72l8 54q6 40 35 93q23 42 49 67q44 45 90 64q6 2 18.5 5.5t17.5 5.5l56 16q7 2 38 4zM502 338q-2 8 -3 23.5t-2 23.5q-6 42 -30 82q-17 30 -67 47q-8 2 -23 5.5t-17 3.5h-8q-37 0 -65 -16q-32 -15 -45 -34q-7 -10 -40 -60q-6 -11 -11 -29q-8 -18 13 -15q1 0 15 2
q65 12 122 -27l20 -16q13 -9 21 -23l8 -12q33 -45 42 -100q3 -11 4 -13q3 -9 12 -4q3 1 7 5q16 16 22 31q20 46 25 126zM240 248h-12q-17 -3 -7 -16q11 -18 25 -29l34 -26l18 -9q8 -4 12 -1.5t3 12.5v3q-7 30 -28 51q-17 17 -45 15z" />
    <glyph glyph-name="r" unicode="r" horiz-adv-x="622" 
d="M209 188v-36q0 -9 1 -30.5t1 -34.5q0 -7 -0.5 -23t-0.5 -24q0 -11 -1 -18q0 -17 -17 -19h-4.5h-5.5h-5q-6 -1 -16.5 -1h-16.5q-4 0 -13 -0.5t-14 -0.5q-34 -2 -52 -2q-12 0 -16.5 4t-5.5 17q-2 14 -4 79q-1 13 -1 40q0 50 4 89v35q0 8 -2 24q-5 87 -1 155v9l2 112
q0 17 2 55q0 4 2 14q2 12 13 16q21 10 48 13l92 8q4 0 12.5 -0.5t12.5 -0.5h21t19 -1q65 -2 101 -7q44 -6 68 -13q17 -5 28 -14q39 -33 57 -79q22 -60 18 -104q-6 -91 -73 -165q-21 -24 -53 -34q-13 -5 -13.5 -9.5t8.5 -13.5l31 -33q22 -22 42 -38q9 -10 29 -27.5t30 -26.5
q10 -10 28.5 -31t26.5 -30l3 -4q7 -13 -5 -19l-28 -8q-20 -4 -60 -10l-61 -9q-2 0 -6 -0.5t-6 -0.5q-11 -2 -19 10q-11 13 -32 39.5t-33 39.5q-34 39 -54 61q-6 6 -17 15.5t-16 14.5l-28 25q-11 9 -15 7q-5 -2 -5 -15zM264 515q-16 -1 -36 -6q-16 -5 -15 -21v-28v-134
q0 -10 3.5 -13t13.5 -2q2 0 2 1h3q49 9 89 42q18 13 27 33q20 44 0 86q-15 32 -47 38q-7 2 -40 4z" />
    <glyph glyph-name="s" unicode="s" horiz-adv-x="526" 
d="M232 706q12 -3 38 -5q14 -2 17 -2q41 0 61 1q27 0 40 -1q14 -1 27 -6q17 -5 17 -22l-4 -50l-6 -48q0 -1 -2 -15q-5 -15 -21 -14q-24 3 -68 5q-27 0 -50 -4q-22 0 -28 -2q-26 -5 -39 -18t-16 -21q-9 -21 11 -43q7 -10 30 -20q27 -13 73 -22q12 -3 36.5 -9t36.5 -8
q20 -5 37 -17q5 -5 16.5 -15t17.5 -15q24 -25 36 -72l4 -23q8 -25 3 -63q-2 -34 -7 -50q-15 -54 -47 -86q-46 -44 -99 -55q-20 -4 -97 -14q-5 -1 -51 2l-28 2q-38 4 -93 23q-1 1 -8 3q-15 8 -14 24l3 18q6 56 22 107q1 2 2.5 5.5t1.5 4.5q6 12 19 8q11 -3 21 -9
q29 -17 80 -19q19 -1 37 -6q33 -10 70 7q13 6 19 20q6 13 -2 25q-9 12 -22 19q-23 12 -75 25q-82 20 -126 57q-51 41 -66 95q-12 55 -9 90q2 43 14 80q10 35 37 73q41 49 93 53q27 2 52 6q4 0 6 1z" />
    <glyph glyph-name="t" unicode="t" horiz-adv-x="491" 
d="M349 366v-77q0 -52 1 -79q0 -57 2 -73q4 -37 3 -75q0 -12 -2 -34q-1 -16 -18 -18q-10 -1 -28.5 -3.5t-27.5 -3.5q-7 -2 -23 -1t-22.5 1.5t-22.5 3t-23 3.5q-16 1 -16 19q2 42 2 63q1 11 1 30l2 111q0 8 1.5 21t1.5 19q0 9 -0.5 19.5t-1.5 23t-1 19.5q0 16 1 24v9v33
q0 23 -2 69q0 7 -1 8q-3 10 -12 10q-31 -3 -32 -3q-40 -9 -72 -10q-1 0 -3 -0.5t-4 -0.5q-14 0 -17 12q-7 15 -7 33q0 26 -2 74q-1 17 -6 34v1q-1 1 -1 3q-2 14 3 19t18 6q20 0 58 2q90 0 102 1q25 1 73 7q17 1 50 1q6 0 19.5 0.5t21.5 0.5l54 -3q15 -1 30 0q18 0 20 -19
q0 -18 0.5 -54t0.5 -54q0 -11 -1 -16q-1 -16 -17 -18q-12 -4 -26 -4l-56 -2h-19q-11 -2 -11 -13v-16q3 -48 9 -94q1 -2 1 -9z" />
    <glyph glyph-name="u" unicode="u" horiz-adv-x="611" 
d="M32 402h2v60q0 10 2 28l3 27q2 32 2 47q1 19 1 58q0 16 17 19t45 -2q50 -6 81 -1l17 2q1 0 5 -0.5t6 -0.5q13 -3 13 -16q0 -41 -1 -62q-2 -45 -5 -68l-2 -54l-3 -62l-3 -48l-2 -16q0 -39 17 -71q1 -3 3.5 -8l4.5 -9t4 -7q11 -17 29 -21t35 5q31 16 45 59q4 12 11 66l8 59
q2 18 2 28q2 13 4 74q1 9 -1 27q-6 40 0 80q3 16 1 49q0 14 3 17.5t17 4.5q39 4 88 -1q15 -2 65 -2q4 0 10 0.5t10 0.5q20 2 18 -18q-2 -15 -3 -44t-3 -44v-16t-2 -20l-13 -97l-9 -74q-8 -67 -10 -81q-7 -38 -22 -66q-25 -52 -40 -77q-27 -46 -62 -74q-24 -19 -63 -31
q-4 -1 -9.5 -2.5t-7.5 -1.5q-13 -4 -32 -4q-15 0 -49 -2q-40 -4 -85 21q-27 16 -59 44q-15 15 -27 37q-30 52 -45 121q-2 9 -3.5 27t-2.5 26q-1 20 -2 57t-3 57z" />
    <glyph glyph-name="v" unicode="v" horiz-adv-x="644" 
d="M334 246l5 10l11 43q18 71 23 95q23 91 39 142q16 56 24 114q2 18 19 22q27 10 58 10q42 0 84 3h10q14 -2 14 -16q0 -3 -2 -11q-8 -43 -26 -129l-16 -74q-3 -12 -7.5 -36.5t-8.5 -36.5q-13 -48 -16 -57q-5 -15 -33.5 -113.5t-46.5 -150.5q-6 -20 -26 -22l-59 -9
q-38 -5 -62 -2h-24q-10 0 -27 0.5t-27 0.5t-15 12q-14 29 -26 72q-12 53 -36 110q-32 75 -38 94l-39 101q-14 32 -19 49q-15 50 -34 116l-11 41q-6 25 19 25l48 2q18 0 23 2q22 5 57 -1q21 -3 22 -3q16 -1 20 -16l33 -99q3 -8 12.5 -35.5t14.5 -43.5q3 -8 5.5 -18t5 -22.5
t4.5 -19.5l23 -88q11 -39 16 -50q2 -8 9 -11z" />
    <glyph glyph-name="w" unicode="w" horiz-adv-x="945" 
d="M458 358l-4 -12l-12 -40q-16 -46 -22 -95q-1 -16 -5 -29q-19 -83 -39 -138q-6 -17 -23 -21q-52 -7 -70 -6q-9 0 -26 -0.5t-26 -0.5q-8 0 -24 1t-24 1q-5 0 -13 -0.5t-13 -0.5q-16 -1 -22 14q-11 25 -15 48q-2 7 -6 22t-5 22q-25 122 -26 125q-4 20 -8.5 59.5t-5.5 47.5
q-8 44 -17 115q-16 109 -18 137q-2 18 -2 26q-2 18 17 18l99 -2q6 0 17.5 -2t15.5 -2q16 -3 19 -20q3 -9 5 -28q11 -66 12 -70q14 -93 25 -142q5 -21 14 -79q0 -1 1 -3.5t2 -5.5l2 -6q1 -5 6 -9q3 2 5 6.5t3 5.5q4 12 8.5 35t5.5 27q9 55 17 85l21 86q2 3 3.5 9.5t2.5 9.5
q9 25 24 92q2 16 5 24q3 13 15 13q32 4 72 4q1 0 46 -3q4 0 12 -0.5t12 -0.5q16 0 22 -13q7 -13 17 -35q23 -47 33 -95q5 -28 20 -78q5 -12 11.5 -34.5t8.5 -27.5l9 -29l6 -9q6 2 8 12l15 46q0 1 1 3.5t2 5.5l2 6q9 21 16 57l19 90q1 7 3 22t4 23q2 5 3.5 16t3.5 17
q4 14 19 16q58 8 68 8l83 3q12 1 18 -4t5 -18q0 -19 -6 -57q-1 -3 -15 -86q-1 -7 -3.5 -29.5t-4.5 -34.5q-5 -33 -14 -56q-5 -15 -14.5 -42t-12.5 -36l-26 -80q-11 -26 -17 -50q-4 -13 -16 -71q-14 -56 -17 -79q-3 -17 -21 -23q-32 -10 -68 -4q-14 2 -19 2q-10 0 -27.5 0.5
t-25.5 0.5q-16 0 -31 -3q-17 -2 -23.5 2t-11.5 21q0 1 -4 14.5t-5 20.5q-3 24 -18 80q-3 8 -5 23t-4 21q-2 13 -8 36t-7 30l-24 84q-2 12 -10 17z" />
    <glyph glyph-name="x" unicode="x" horiz-adv-x="699" 
d="M260 682v-1h29q17 1 27 -16q4 -5 9 -16t8 -16l56 -92l11 -19q8 -14 16 -1q4 5 9.5 14t9.5 13l28 40q9 13 29 59l12 24q6 10 23 10q9 0 26 0.5t25 0.5h13q24 -3 46 0q5 1 16 1q10 0 10 -9q0 -8 -2 -14q-9 -27 -14 -35l-43 -78q-40 -77 -46 -92q-34 -74 -65 -115l-2 -3
q-11 -14 -2 -31l23 -48q4 -7 37 -66q4 -6 10.5 -14.5t9.5 -13.5q32 -48 40 -57l17 -25l33 -49q8 -10 4 -18q-4 -7 -18 -7q-31 -2 -47 1q-10 0 -28 -2q-10 -1 -31 -2t-31 -3l-40 -2q-16 -1 -25 16l-32 63l-23 52l-19 42q-10 23 -25 52q-1 1 -2 3.5t-1.5 3.5t-2.5 2.5t-4 1.5
t-4 -1t-2.5 -2.5t-1.5 -4t-2 -3.5l-14 -40q-11 -34 -27 -61q-13 -21 -50 -96q-7 -14 -19 -14q-10 0 -27 -1t-27 -1q-8 0 -22 1.5t-22 1.5q-1 1 -33 0.5t-33 -0.5h-14q-14 2 -10 15q2 7 3 8l28 56q10 21 22 49q19 39 47 73q6 7 15.5 19.5t14.5 18.5q21 28 29 42l33 51
q4 6 9.5 17.5t8.5 16.5q4 9 0 18q-6 12 -15 34t-15 34q-12 27 -27 54q-7 13 -14 27.5t-15.5 32.5t-13.5 29q-2 6 -7.5 16.5t-7.5 14.5t-5 12q-3 17 12 18q5 1 37 4q16 1 47.5 3t47.5 4z" />
    <glyph glyph-name="y" unicode="y" horiz-adv-x="594" 
d="M194 67h-1l6 66l4 44q3 24 5 72q2 51 -2 77q-2 14 -10 26q-5 9 -14 23t-12 19l-15 21q-17 18 -42 68q-9 16 -26.5 48.5t-26.5 48.5l-33 57q-6 9 -9 19q-5 17 11 18q7 2 30 2q11 1 32 3t32 4l45 3q22 0 29 -18l14 -27q3 -7 23 -44q18 -30 41 -89q8 -22 10 -26l6 -12
q5 -8 10 0l6 9l48 107q27 62 59 105q8 11 23 11l32 -2q8 -2 23.5 -3t23.5 -2q7 -1 21 -1l23 -2q15 -3 12 -18q-7 -23 -23 -69q-2 -7 -20 -45l-44 -89q-3 -6 -8.5 -18.5t-9.5 -18.5l-27 -50q-9 -16 -25 -48q-6 -10 -4 -27q2 -46 2 -65l2 -113q0 -3 1.5 -32.5t1.5 -45.5
q0 -2 -2 -18q-4 -12 -16 -12q-1 0 -20.5 1.5t-29.5 1.5l-61 2q-2 0 -6.5 -0.5t-7.5 -0.5q-19 0 -57 -2q-14 -1 -18.5 3.5t-5.5 18.5v20z" />
    <glyph glyph-name="z" unicode="z" horiz-adv-x="524" 
d="M35 542v35v62q0 16 15 17h7h8.5h6.5l59 2q38 2 57 2l70 2q37 2 56 5l33 3q50 2 75 2q17 0 32 -3q15 -1 15 -14q2 -38 2 -57q1 0 1 -22l-1 -22q3 -31 4 -37q5 -29 -19 -50l-31 -30q-25 -24 -42 -54q-33 -52 -46 -67q-12 -15 -46 -71q-6 -10 -10 -15q0 -1 -1.5 -3.5
t-1.5 -4.5q-5 -14 9 -14h19q19 3 65 -4q22 -3 36 -2q26 1 61 -4q14 -2 15 -15l3 -31q6 -32 7 -50q2 -32 -2 -55q-1 -14 -18 -18q-37 -3 -45 -4q-46 -3 -92 -12q-76 -12 -94 -14q-50 -6 -96 -2q-10 1 -63 -1h-34q-13 0 -13 14q0 24 1 35q0 1 3 40q6 61 4 84q-1 14 10 30
q13 18 39.5 48.5t34.5 40.5q35 40 68 98q18 32 29 48q6 8 15.5 23.5t14.5 22.5q2 2 2 3q6 13 -7 13h-33q-54 -2 -82 -2q-12 0 -36.5 1.5t-28.5 1.5t-9 -0.5t-8 -0.5q-18 0 -18 17v29z" />
    <glyph glyph-name="braceleft" unicode="{" horiz-adv-x="383" 
d="M268 -32q-61 -1 -111 38q-23 18 -29 48q-2 6 -3.5 19.5t-2.5 19.5q-1 16 -0.5 24t2 23.5t1.5 23.5t-2 22q-7 32 -19 55q-17 32 -53 38l-16 3q-12 3 -15 15l-3 25q-1 11 -2 32.5t-3 32.5q0 4 -0.5 11.5t-0.5 10.5q-1 6 0 12q2 13 14 14q5 1 17 2.5t19 3.5l24 8q24 8 34 32
q8 22 5 41q-11 78 35 135q20 25 30 32q25 19 57 22q28 3 33 2q16 0 34 -5q12 -3 12 -16q0 -12 -0.5 -36t-0.5 -36v-11.5v-14v-11.5q0 -11 -3 -14.5t-13 -6.5q-33 -12 -35 -47v-48q0 -4 0.5 -10.5t0.5 -9.5q-2 -21 -19 -34l-28 -20q-3 -3 -6 -4q-7 -7 0 -13q1 -1 7.5 -6.5
t9.5 -9.5q10 -10 19 -22q10 -16 8 -48q-1 -7 -4 -27t-3.5 -27t0.5 -27q0 -12 3 -24q2 -11 13 -21q16 -13 37 -18q9 0 16 -4q13 -5 14 -18q1 -10 3 -31t4 -32l2 -35q0 -4 0.5 -12.5t0.5 -13.5q0 -12 -11 -17q-20 -8 -37 -12q-5 -1 -11 -1.5t-13 -1t-11 -0.5z" />
    <glyph glyph-name="bar" unicode="|" horiz-adv-x="230" 
d="M203 610h-1v-24l-3 -60q-4 -44 -2 -104q2 -66 1 -99q0 -49 -4 -88q0 -40 -2 -53q-2 -5 -0.5 -37.5t1.5 -37.5q0 -1 2 -15q1 -12 3 -33t3 -32v-12q-1 -15 -16 -15l-39 3h-24q-7 0 -14 -0.5t-15.5 -1.5t-13.5 -1q-18 -2 -27 -2q-21 0 -21 21v90v56q0 7 2 53q3 19 1 56
q0 18 -2 56q-1 19 -1 55q-1 20 -1 61q0 55 1 83q0 3 0.5 8t0.5 9v99q0 5 2 19q3 13 16 14l41 2l90 2q21 0 21 -20q1 -17 1 -52z" />
    <glyph glyph-name="braceright" unicode="}" horiz-adv-x="385" 
d="M369 364h-1q2 -11 4 -54q0 -2 -0.5 -6t-0.5 -5q-3 -13 -15 -18q-8 -2 -10 -2q-22 -4 -48 -12q-24 -8 -25 -36q0 -15 2 -47q2 -56 -1 -77q-2 -7 -3 -20.5t-3 -19.5q-20 -72 -95 -91q-47 -13 -99 -4q-11 2 -15 7t-5 16v13q0 7 -0.5 19t-0.5 18q0 9 0.5 26t0.5 27
q2 18 20 21q3 1 14.5 3.5t17.5 4.5q32 15 37 54q2 13 -5 50q-6 39 -3 79q1 14 18 35l12 12q8 8 -2 14q-1 1 -4 3t-5 3q-29 16 -27 53q4 38 -5 80q0 1 -8 19q-10 19 -32 22q-9 1 -25 1q-9 0 -11 1q-13 2 -14 15v11q1 29 1 87l3 33q1 13 15 16q64 14 120 4q41 -7 73 -36
q30 -25 38 -68q2 -14 3.5 -39t2.5 -36q0 -16 5 -34q5 -19 23 -26q4 -1 11 -3.5t10 -3.5l10 -3q18 -6 18 -24l3 -45q0 -6 0.5 -18t0.5 -19z" />
    <glyph glyph-name="asciitilde" unicode="~" horiz-adv-x="634" 
d="M602 403q0 -50 -7 -93q-3 -12 -5 -31q-4 -30 -21 -80q-12 -37 -38 -66q-39 -47 -110 -42q-31 2 -54 11q-25 10 -44 32q-44 52 -64 106q-9 28 -21 42q-8 11 -20 14q-25 6 -32 -16t-6 -46q7 -65 12 -85v-6q2 -14 -2.5 -19t-19.5 -6q-1 0 -71 -3l-35 -4q-1 -1 -5 -1
q-10 -2 -14 1t-6 14q-1 7 -1 18l-3 63q0 3 -0.5 11t-0.5 12q-5 73 12 129q9 26 11 39q4 19 21 33q6 5 20 15t21 16q3 2 16 12q13 11 27 16q35 12 60 16q20 3 35 -1l25 -8q13 -4 22 -16q24 -29 27 -55q0 -8 3 -16q8 -21 18 -77q4 -16 13 -40q11 -25 39 -29q13 -4 25 8
q14 14 20 36q11 30 11 60q3 39 3 40q1 23 -4 53l-3 15q0 15 15 17q6 0 17.5 1t21 1.5t17.5 0.5q33 -2 50 1q18 2 21 -18l3 -30q0 -8 0.5 -23t0.5 -22z" />
    <glyph glyph-name="uni00A0" unicode="&#xa0;" horiz-adv-x="0" 
 />
    <glyph glyph-name="exclamdown" unicode="&#xa1;" horiz-adv-x="266" 
d="M33 116h1v31q0 8 0.5 17.5t1.5 20t1 17.5l4 74q0 31 7 71l8 56q2 32 5 48q2 12 14 14q15 1 44 1q15 1 45 1h51q16 0 16 -15q0 -8 1 -21.5t1.5 -24.5t0.5 -21q0 -13 -2 -36.5t-2 -31.5v-43q-2 -38 -2 -54q0 -2 -0.5 -3t-0.5 -3q0 -30 -2 -86q0 -7 -0.5 -15t-1.5 -17.5
t-1 -14.5v-34q0 -12 -2 -36q-2 -12 -7.5 -16t-17.5 -3q-25 3 -66 5l-58 2q-6 0 -16 2q-20 3 -20 23q-2 62 -2 92zM238 634h-1q0 -25 -2 -75q0 -2 -2 -12q-3 -12 -15 -14q-12 -3 -25 -3q-49 0 -73 1q-18 0 -33 4q-20 3 -19 22q0 8 0.5 17.5t1.5 21t1 17.5v40q-1 15 5 21.5
t23 6.5h32l4 -1q4 0 4 1q25 3 65 5q3 1 15 1q16 -1 17 -17z" />
    <glyph glyph-name="cent" unicode="&#xa2;" horiz-adv-x="326" 
d="M279 626l1 -1l-8 -59q0 -2 -0.5 -4t-0.5 -3q-1 -10 10 -13h8q13 -1 13 -14v-8q0 -3 -2 -17q0 -35 -1 -54v-9q0 -18 -21 -16q-39 5 -71 -5q-31 -8 -50 -27q-12 -12 -15 -28q-8 -31 25 -43q11 -3 33 -1l59 9q2 0 3 1h1q15 1 20 -13q3 -12 5 -31l8 -54q3 -19 -13 -31
q-19 -11 -43 -16q-2 0 -5.5 -1t-4.5 -1t-3.5 -1t-3 -1.5t-2 -2.5t-2 -4t-1 -5.5t-1.5 -7.5l-9 -73l-2 -34q-2 -25 -4 -31q-3 -18 -20 -18q-21 0 -32 1q-25 2 -37 5h-4q-12 3 -16 8t-3 17l3 27q2 10 3.5 30.5t2.5 30.5q3 34 4 41q0 1 0.5 4t0.5 5q4 18 -13 27q-29 16 -48 56
q-14 30 -18 54q-17 83 28 154q12 20 31 33q29 21 53 30q15 4 15 23q0 38 12 84q4 14 18 16l77 8q20 2 20 -18v-19z" />
    <glyph glyph-name="sterling" unicode="&#xa3;" horiz-adv-x="604" 
d="M40 276v42v45q0 19 20 19h24q18 -2 18 17q0 24 1 36q2 59 18 107q16 49 65 67q51 19 100 15q14 -2 39.5 -3t38.5 -2q17 -2 22 -7.5t5 -22.5q0 -36 -6 -106q0 -2 -2 -8q-4 -16 -20 -11q-40 8 -61 8q-3 0 -13 -2q-27 -8 -26 -34q1 -7 1 -21q2 -14 16 -13l38 4q6 2 12 0
q17 -2 20 -19q0 -1 3 -31q1 -11 1 -31q0 -23 -18 -28q-28 -7 -57 -12q-9 -2 -12.5 -5t-5.5 -12q-3 -13 -5 -30q-1 -13 12 -13q25 0 38 -1q37 -3 62 -28l18 -18q26 -26 52 0q14 16 14 37q1 10 -1 31v13q0 19 20 17l25 -3l40 -3q4 0 18 -2q12 -1 15 -13q0 -2 1.5 -8.5
t1.5 -10.5q5 -53 2 -86q-3 -57 -41 -100q-31 -36 -75 -51q-37 -12 -71 17q-10 9 -36 44q-10 14 -17 21q-15 15 -37 16t-37 -9q-24 -14 -38 -38q-18 -33 -60 -51l-32 -12q-16 -5 -50 -5q-20 0 -36 4q-22 3 -19 25q1 4 1 13l3 55q0 5 0.5 14t0.5 13q0 17 19 20q12 2 20 5
q40 13 49 49q4 21 0 43q0 3 -2 8.5t-2 8.5q-2 12 -7.5 16.5t-19.5 2.5q-18 -2 -28 -2q-10 -1 -14.5 4t-4.5 15z" />
    <glyph glyph-name="currency" unicode="&#xa4;" horiz-adv-x="558" 
d="M125 578q12 0 18 -7q18 -17 33 -33q13 -13 15.5 -14t20.5 4q33 11 62 10q16 -1 50 -9q8 -2 35 -11q13 -4 21 6q6 6 15.5 19t14.5 19l11 12q11 11 25 2l24 -20q33 -29 52 -55l6 -8q5 -9 -1 -22q-12 -21 -30 -39l-28 -28q-10 -9 -7 -23q6 -32 7 -41q2 -30 0 -41l-8 -56
q-1 -10 5 -20l21 -32q6 -10 15.5 -30t14.5 -29l2 -6q5 -14 -8 -22q-2 -2 -8 -5.5t-9 -5.5q-32 -22 -47 -34q-20 -14 -35 4q-8 8 -21 24.5t-21 25.5q-3 4 -12 13q-10 8 -19 4q-47 -18 -107 -6q-18 3 -30 -10q-6 -9 -19 -24t-16 -19l-11 -12q-14 -13 -28 1q-6 6 -15 18t-14 17
l-29 30q-12 11 -13.5 18.5t6.5 21.5q4 11 20 32q12 17 3 33q-35 71 -5 150l6 14q7 13 -3 25q-14 14 -40 44q-14 13 -16 17q-11 12 1 25l11 9l39 35l37 26q4 3 9 3zM341 327v9q-5 39 -37 54q-3 2 -8 3.5t-7 3.5q-20 9 -46 -1.5t-35 -29.5q-5 -11 -10 -30q-5 -26 16 -43
q35 -29 79 -23q41 7 47 42q1 3 1 15z" />
    <glyph glyph-name="yen" unicode="&#xa5;" horiz-adv-x="626" 
d="M154 93q-27 0 -39 1q-18 0 -21 17l-3 27q-1 8 -2 24.5t-3 24.5v17q0 14 14 14q21 0 67 -2q1 0 46 -3q10 -1 13 3.5t4 14.5q0 3 -0.5 8t-0.5 7q-1 21 -14 35q-6 6 -15 18t-14 17q-4 5 -14 13q-12 8 -18 22q-3 6 -10.5 26t-12.5 31q-8 17 -25 50t-25 49l-27 55l-27 55
l-4 11q-3 11 8 14q3 1 11 1h17h19.5h16.5l60 -4l31 -3q19 -1 25 -18q13 -40 16 -48q10 -26 17 -41q27 -62 34 -76q5 -11 17 -30.5t15 -23.5q7 -7 9 -7q6 0 8 9q5 12 13 36q19 69 37 111q20 46 25 87q1 1 1 2q3 15 8.5 20t20.5 7q10 0 27 2t26 3q14 1 42 -1l52 -3h5
q24 -2 17 -24q-3 -10 -7 -21.5t-9 -25.5t-8 -22l-38 -97q-5 -13 -27 -62q-25 -57 -75 -133l-11 -14q-13 -15 -5 -43q1 -7 11 -7h29h29q11 0 33 -2q15 -1 15 -18q0 -4 -0.5 -13t-0.5 -15q0 -33 -1 -52v-7q-2 -25 -25 -23l-75 3q-14 1 -18 -2t-6 -17l-3 -37q0 -13 -12 -17
q-11 -3 -34 -5l-19 -2l-99 -12q-19 -1 -21 17q-2 38 -2 57q0 11 -4 15t-15 5q-34 2 -49 2z" />
    <glyph glyph-name="brokenbar" unicode="&#xa6;" horiz-adv-x="249" 
d="M96 688l37 2q24 1 57 -4l12 -4q12 -5 13 -17q2 -14 2 -15q0 -16 -2 -48q-1 -13 -3 -38.5t-4 -38.5q-2 -12 -4 -37t-3 -37v-44l-3 -45q0 -1 -2 -9q-3 -13 -17 -13q-9 0 -27 1t-28 1l-48 -3q-10 -1 -25 2q-11 3 -11 14q0 9 2 31q5 44 -1 82v8q-2 54 -2 81q0 7 0.5 23
t0.5 23q2 42 2 62q0 13 12 16zM37 81h-2q1 18 2 53.5t2 53.5q0 32 4 59q1 21 21 27q46 14 69 14q6 0 17 2t15 2q21 3 24 -17q1 -9 3 -28t4 -28q9 -58 14 -94q4 -24 10 -72q3 -21 -3 -41q-3 -14 -18 -16q-31 -4 -67 -4q-6 0 -15 -1.5t-15 -1.5q-16 -1 -49 -1q-16 1 -16 20v73
z" />
    <glyph glyph-name="section" unicode="&#xa7;" horiz-adv-x="510" 
d="M410 656h-2v-65q0 -7 -1 -10q-2 -11 -10 -11q-28 -2 -40 -1q-46 3 -50 2q-34 -2 -56 -11q-16 -6 -22 -23q-5 -15 7 -27q18 -18 40 -22q5 -1 16 -3t16 -4q8 -2 14 -6q11 -8 23 -10q23 -6 41 -18q14 -9 28 -34q15 -31 3 -77l-4 -15q-1 -9 5 -17l9 -8q20 -16 43 -52
q13 -20 15 -56q3 -30 -18 -71q-20 -39 -44 -60q-43 -36 -64 -46l-26 -13q-9 -5 -51 -12q-16 -3 -56 3q-2 0 -4 1h-3q-42 2 -62 2q-31 -2 -63 9q-21 6 -30 9q-24 8 -20 30q4 17 4 44q0 3 2 17l9 30q4 16 20 12q15 -4 85 -14q1 0 11 -1.5t15 -1.5q15 0 27 4q16 5 41 17
q3 1 8 6q20 17 0 34q-7 7 -31 13q-49 8 -55 9q-53 10 -85 55q0 1 -5 8q-36 47 -29 105q1 18 10 35q1 1 2 4q6 13 -5 26q-2 1 -19 24q-12 14 -18 47q-5 26 12 82q14 48 73 84q7 4 27 11q44 9 55 11q37 6 66 5l35 -3q1 -1 4 -1l60 -3q7 0 29 -2q19 -1 18 -20v-21zM252 303
q18 0 32 14q21 23 -4 39q-22 15 -61 22q-11 2 -20 -9t-4 -23q4 -10 7 -13q7 -10 31 -25q12 -5 19 -5z" />
    <glyph glyph-name="dieresis" unicode="&#xa8;" horiz-adv-x="380" 
d="M213 587q1 9 1.5 25t2.5 24q4 21 24 22l84 4q16 1 21 -17q12 -41 7 -89l-2 -17q-3 -16 -16 -17q-24 -3 -25 -3q-21 -4 -49 -4q-4 0 -26 2q-15 3 -16 18q-1 9 -2.5 26.5t-3.5 25.5zM27 590v44q0 12 3.5 17t14.5 7q20 5 38 6q29 2 48 -3q16 -4 16 -21q0 -25 -1 -38
q0 -17 -2 -55v-8q0 -20 -19 -20q-7 0 -21 0.5t-22 0.5q-12 0 -36 -2q-16 -1 -17 12q-1 7 -1.5 14.5t-1 16.5t-0.5 14q0 3 0.5 8t0.5 7z" />
    <glyph glyph-name="copyright" unicode="&#xa9;" horiz-adv-x="700" 
d="M678 384l3 -48q-2 -49 -8 -83q-1 -4 -3 -20t-5 -25q-17 -50 -54 -93l-16 -20q-25 -30 -56 -46q-6 -2 -14.5 -7t-13.5 -8q-47 -26 -84 -32l-55 -8q-26 -3 -74 7q-6 1 -18.5 3t-18.5 3q-22 4 -48 16q-36 17 -64 45l-41 42q-27 28 -57 86q-15 31 -19 63q-9 47 6 106l14 65
l9 34q17 50 29 72q40 67 93 97q40 21 41 22q29 13 83 26q19 4 57 4q2 0 16 2q20 4 52 -5l41 -11q62 -23 81 -41q34 -30 52 -58q5 -9 17 -26.5t18 -28.5q31 -68 37 -133zM134 309v-24q0 -7 1 -9q16 -82 85 -132q40 -29 95 -46q51 -15 91 -3q64 18 92 38q18 13 21 16
q36 33 47 65q17 47 21 93q2 46 0 62q-9 57 -21 90q-14 41 -41 67l-29 27q-8 8 -26 18q-26 12 -63 17q-16 4 -40 -1q-83 -25 -105 -38q-30 -16 -37 -23l-21 -23q-29 -31 -48 -75q-22 -54 -22 -119zM395 494h14q15 0 18 -14q1 -6 3 -17t3 -16q2 -6 3.5 -19t2.5 -19
q2 -17 -13 -20q-6 -2 -31 -4q-7 -1 -22 -3t-23 -3q-23 -4 -42 -29q-4 -4 -5 -9q-5 -17 4 -34t26 -23q27 -10 61 -10h18q16 0 17 -15q3 -24 -4 -61q-3 -12 -4 -13q-5 -14 -15 -14q-12 -1 -35 -1q-20 0 -46 7q-38 9 -56 26q-34 28 -52 69q-14 29 -9 61q2 23 4 30q1 16 12 33
q37 57 108 83l29 10q13 7 34 5z" />
    <glyph glyph-name="ordfeminine" unicode="&#xaa;" horiz-adv-x="388" 
d="M363 303v-23q-1 -22 -22 -23q-24 -3 -66 -5q-14 -1 -19.5 3.5t-7.5 16.5q-4 30 -10 65q0 6 -1 7q-3 10 -14 12q-35 2 -53 -1q-16 -1 -20 -17l-12 -60l-2 -8q-5 -14 -17 -12q-13 0 -39 2l-35 3h-6q-14 3 -13 16q0 15 3 30q7 66 10 82q15 93 29 162l16 95q2 10 5.5 14
t13.5 6q7 1 26.5 4.5t33 4.5t27.5 0q4 0 14 1t16 0q8 0 18 -0.5t22 -1.5t19 -1q16 -1 22 -19q12 -36 25 -101q4 -16 10 -47t9 -47q1 -8 3.5 -23.5t3.5 -23.5l8 -64zM190 532q-12 0 -16.5 -3.5t-6.5 -17.5q-1 -8 -2 -21.5t-3 -20.5q-1 -10 3.5 -14t14.5 -2q4 1 27 4
q16 0 15 16l-4 32q-1 10 -5 16q-3 10 -14 10q-1 0 -4 0.5t-5 0.5z" />
    <glyph glyph-name="guillemotleft" unicode="&#xab;" horiz-adv-x="652" 
d="M486 49v1h-3.5h-4.5h-3q-16 -1 -24 13q-12 17 -34 51q-12 17 -34 49t-32 46q-3 4 -52 76q-10 15 -3 31q35 71 81 149q22 38 35 52q4 4 9 12.5t6 9.5q1 3 3 5q8 18 29 15q24 -4 66 -6q11 0 41 -6q18 -4 13 -23l-10 -24l-33 -67l-32 -56l-34 -68q-8 -14 5 -28
q38 -48 55 -73q5 -9 16.5 -23t14.5 -18q14 -17 53 -72q6 -7 8 -16q3 -10 -8 -15l-14 -2q-8 0 -22 -2zM195 545q10 -2 32 -4t32 -3q7 -2 20.5 -3t20.5 -2q27 -3 17 -28q-3 -10 -12 -29q-30 -58 -42 -74q-9 -11 -21 -31t-16 -26q-13 -18 -31 -39l-7 -7q-5 -11 -1 -17
q1 -3 5 -7q34 -50 53 -75q8 -11 32 -52q4 -8 12.5 -21t12.5 -21l12 -19q9 -20 -10 -24q-30 -9 -68 -14q-5 0 -15.5 1t-16.5 1q-13 1 -38 1q-22 2 -29 21q-8 18 -37 71l-52 99q-19 36 -22 42q-9 15 1 28q8 13 26 38.5t26 39.5q7 11 19 32t16 27q2 3 9 15.5t12 18.5l34 50
q9 11 26 11z" />
    <glyph glyph-name="logicalnot" unicode="&#xac;" horiz-adv-x="436" 
d="M267 381h8q32 0 48 -1q35 -2 55 -5q12 -2 14 -14q2 -14 2 -15q0 -22 7 -99q2 -7 2 -20v-16q4 -27 -2 -70q-1 -12 -7 -34q-4 -16 -23 -18q-36 -4 -82 -4q-22 0 -20 20q0 15 0.5 46t0.5 47q0 8 -2 24q-3 15 -17 13q-39 -3 -40 -3q-51 0 -62 2q-22 5 -37 5q-1 0 -49 -3
q-7 -1 -17 -1q-19 0 -19 19q0 12 2 42q0 7 2 25q0 15 1 23q2 14 14 17q20 4 60 10q15 3 45 5h15t15 1q39 4 86 4z" />
    <glyph glyph-name="registered" unicode="&#xae;" horiz-adv-x="768" 
d="M28 324q-1 45 16 94q12 42 22 74q9 24 29 51q45 62 99 92q69 41 140 66q24 9 59 7q1 0 7 -2q8 -3 69 -16q26 -5 44 -10q14 -4 31 -12q10 -5 36 -19t40 -22q21 -13 42 -38q15 -17 44 -70q12 -21 25 -49q6 -13 12 -45q7 -46 4 -63q-2 -28 -6 -56q-12 -73 -38 -124
q-19 -39 -53 -75q-9 -9 -25 -23t-22 -19q-34 -28 -108 -57q-35 -12 -69 -18q-32 -6 -70 -4q-14 1 -47 7q-38 6 -57 10q-39 10 -77 36q-15 9 -50 36q-24 19 -45 54q-22 34 -33 85q-2 8 -8 33t-8 39zM626 363q-3 32 -4 37q-4 38 -21 72q-15 33 -23 42q-22 28 -55 54
q-30 24 -66 34q-45 12 -85 2q-22 -4 -40 -14q-44 -17 -60 -26q-35 -19 -65 -56q-23 -23 -33 -52q-11 -31 -18 -56q-17 -58 -13 -114q5 -40 25 -67q4 -7 14.5 -19.5t15.5 -20.5q24 -33 60 -53q4 -2 33 -13q49 -16 79 -13l36 4q25 2 45 11q57 23 111 78q32 32 46 70
q18 48 18 100zM363 319q-2 -11 -1 -12q2 -10 3.5 -28t3.5 -27q1 -11 1 -35q0 -14 -13 -15q-36 -3 -37 -3q-2 0 -19 2l-30 3q-16 1 -15 16q2 34 6 69q2 44 4 55l4 61q3 54 2 59q-1 9 1 27q2 11 11 12q29 6 74 13q21 3 37 -1q1 -1 3 -0.5t3 0.5q45 5 76 -9q26 -10 37 -34
q14 -30 18 -54q7 -49 -35 -77q-10 -6 -13 -9.5t-2 -7.5t7 -13q21 -37 29 -53q4 -7 10 -21.5t8 -18.5q6 -14 -9 -18l-21 -3q-6 -2 -38 -4q-12 -1 -20 10l-19 32q-25 42 -51 75q-4 6 -15 9zM381 447h-5q-13 -1 -17 -5t-4 -17v-27q0 -9 2 -27q2 -12 15 -11q12 2 24 6
q24 8 36 30q10 22 -9 37q-20 14 -42 14z" />
    <glyph glyph-name="macron" unicode="&#xaf;" horiz-adv-x="453" 
d="M145 653v-1q16 3 48 5q24 0 37 -1q3 -1 35 2q2 0 6 0.5t6 0.5h120q1 0 15 -2q13 -6 13 -17q0 -32 -1 -48q-1 -13 -16 -17q-5 -1 -30 1h-29q-4 0 -14 1t-16 0q-6 0 -18 -0.5t-18 -0.5q-17 -1 -89 -8h-8q-7 -1 -7 0q-1 2 -27 1t-27 -1q-35 -2 -66 -11q-2 -1 -10 -1
q-14 -2 -17 13l-2 27q-2 16 -2 26q-2 20 18 25q6 2 29 4q46 2 70 2z" />
    <glyph glyph-name="degree" unicode="&#xb0;" horiz-adv-x="453" 
d="M264 314q-26 2 -42 5q-6 1 -24 4.5t-28 6.5q-74 20 -106 74q-27 46 -26 85l2 47q3 43 34 78q28 32 59 49q46 25 92 29q10 0 19 -4q40 -17 52 -25q7 -5 23 -11q28 -13 49 -36q21 -24 38 -53q19 -34 19 -72q-2 -46 -17 -84q-6 -16 -19 -29l-23 -22q-35 -31 -63 -37
q-6 -2 -19.5 -3t-19.5 -2zM295 492q0 18 -9 32q-16 26 -56 31q-18 1 -30 -11q-17 -16 -17 -44q0 -16 10 -26q22 -22 46 -27q23 -5 39.5 8t16.5 37z" />
    <glyph glyph-name="plusminus" unicode="&#xb1;" horiz-adv-x="374" 
d="M132 336h1v24q-1 9 -3 11t-10 1q-19 0 -61 -2h-18q-15 0 -15 15q-2 30 0 60q1 14 5.5 20.5t19.5 8.5q45 8 73 11q5 1 7 2t4.5 2.5t3 4t0.5 6.5v39q0 27 1 42q0 16 18 19q21 3 42 0q26 -2 38 -2q18 0 18 -17q0 -7 -1 -21t-1 -22q0 -6 0.5 -20t0.5 -20q1 -11 12 -13l24 -3
l39 -6q17 -3 16 -21q-7 -57 -9 -66q-1 -16 -20 -17q-33 -2 -42 -4q-13 -1 -13 -15q0 -1 3 -25l2 -39q0 -7 -2 -11q-5 -9 -12 -8q-14 2 -22 2h-54h-22q-20 2 -20 20zM300 72v-1q-25 3 -66 5q-3 0 -9.5 -0.5t-10.5 -0.5t-11.5 0.5t-10.5 0.5q-16 1 -48 -5q-36 -5 -74 -3
q-16 1 -19 16q-3 14 -5 38q-1 16 -1 48q-1 11 6.5 19t19.5 9q62 6 90 6q39 0 59 -1q5 0 10.5 -0.5t13 -1.5t11.5 -1q22 0 33 -1h30q20 0 21 -18q1 -15 2 -44t3 -44v-8q-1 -13 -15 -13h-29z" />
    <glyph glyph-name="twosuperior" unicode="&#xb2;" horiz-adv-x="363" 
d="M216 295l11 -3h17q40 -3 47 -4q13 -2 27 -6q15 -4 15 -21q2 -29 1 -43q0 -34 -4 -61q0 -1 -0.5 -3t-0.5 -4q-5 -12 -16 -11l-36 4q-1 1 -7 1q-82 2 -123 2q-1 0 -46 -3q-40 -2 -60 -2q-8 -1 -12.5 3.5t-4.5 13.5v51q0 3 -0.5 11t-0.5 11q0 11 1 18l6 33q3 11 14 16
q6 3 16.5 8t16.5 9l31 19q19 12 31 27q2 3 7.5 9.5t8.5 10.5q29 41 25 81q-4 36 -42 48q-4 2 -20 4q-2 0 -24.5 2t-25.5 -1h-3h-4h-3q-17 3 -17 19v41l-2 50q-1 12 2 16t14 6q64 9 112 5q60 -7 98 -38q36 -30 44 -77q4 -25 2 -74q0 -5 -1 -6q-17 -55 -21 -65
q-18 -44 -58 -77q-11 -8 -15 -20z" />
    <glyph glyph-name="threesuperior" unicode="&#xb3;" horiz-adv-x="334" 
d="M298 510h1l-2 -32q-4 -36 -36 -70l-15 -14q-7 -9 -7 -12.5t8 -9.5q11 -8 18 -15q55 -48 37 -114q-1 -5 -20 -48q-8 -17 -34 -47q-21 -22 -59 -29q-22 -6 -53 -4q-4 0 -16 1.5t-18 2t-15.5 2.5t-17 5t-14.5 7l-3 2q-22 9 -19 34l8 58q3 14 18 13q4 0 11.5 -1.5t8.5 -1.5
q49 -5 78 32q8 11 1 24q-11 22 -36 29q-2 1 -26 9q-19 6 -18 27q2 43 4 54q0 9 2.5 13.5t6 6t12.5 3.5q3 1 6.5 1.5t8 1t6.5 0.5q21 4 34 17q24 24 6 49q-11 18 -25 22q-51 17 -81 16q-4 0 -10 -0.5t-10 -0.5q-16 0 -18 17l-3 59v21q0 16 16 20q18 8 37 9q7 0 14.5 0.5
t16.5 1.5t14 1q12 0 34 -2q32 -6 48 -11q29 -9 48 -28q31 -27 43 -62q7 -15 9 -44q1 -3 1 -13z" />
    <glyph glyph-name="acute" unicode="&#xb4;" horiz-adv-x="261" 
d="M173 662q32 -2 40 -2l5 -2q22 -4 10 -24q-2 -3 -14 -23l-86 -140q-13 -18 -32 -14l-56 9q-15 3 -12 18l2 10q7 31 23 93l9 45q4 14 18 16l56 8q7 1 19 2.5t18 3.5z" />
    <glyph glyph-name="mu" unicode="&#xb5;" horiz-adv-x="700" 
d="M161 35q-2 -10 -2 -12l12 -80q10 -72 10 -88q0 -14 0.5 -42t0.5 -42q0 -20 -4 -36q-1 -13 -15 -13q-17 0 -68 -11q-14 -3 -58 -3q-14 0 -17 16q-2 14 -2 20q-2 68 0 90l2 46q1 12 3.5 33t3.5 32q0 6 2 22t2 25q0 12 -0.5 24.5t-1.5 28t-1 24.5q0 72 1 81t1 28q0 42 5 95
q1 17 3 50t4 49q1 9 2.5 36.5t4.5 42.5l3 10q3 12 15 15q8 3 33 3h11.5h14.5h12q52 0 57 -1h17q13 -1 17 -16l2 -33q0 -27 -1 -42q-3 -28 -5 -84q-5 -55 -2 -90q2 -25 11 -46q9 -19 26 -30q10 -7 23 -4q30 4 41 36q6 15 12 56l9 74l3 49q2 16 2 96v56q-2 17 16 17q6 0 73 8
h48q13 0 15 -15q1 -11 1 -31l-3 -61q-3 -39 -3 -116q0 -14 -0.5 -39t-0.5 -39q0 -17 3 -32q2 -12 5 -17q6 -12 20.5 -13t23.5 11q16 23 11 56q-2 15 1 19.5t18 9.5q45 11 49 12q7 3 19 1q4 0 11 -7q5 -4 6 -12q14 -66 3 -118q-13 -49 -32 -75q-17 -18 -30 -29q-2 -3 -20 -13
l-30 -13q-25 -10 -54 -1q-34 15 -45 24q-13 12 -17 20q-1 3 -3 5q-7 12 -17 2q-4 -3 -10 -10.5t-9 -11.5q-32 -33 -73 -50q-23 -11 -62 -5q-5 1 -15.5 3t-15.5 4q-17 3 -30 14l-31 31q-2 1 -8 7q-2 0 -3 -1z" />
    <glyph glyph-name="paragraph" unicode="&#xb6;" horiz-adv-x="618" 
d="M303 635l56 3q63 -3 66 -3q38 1 83 -5q2 0 22 -3.5t30 -5.5q15 -3 17 -20q1 -16 3 -45t4 -45q3 -23 1 -69l-6 -66q-1 -23 -1 -67q0 -9 2 -23.5t2 -19.5q0 -2 0.5 -7.5t0.5 -9.5q2 -59 -1 -88q-3 -58 -2 -63q1 -6 1 -55q-1 -21 -22 -22q-58 -2 -99 10q-13 4 -17 9t-4 19
q0 18 -1 55t-1 57q0 13 2 38t2 32l2 57q2 46 2 67q2 30 1 46q0 9 -0.5 19t-1.5 23t-1 20q-1 9 -4.5 13t-14.5 3h-54q-8 0 -10 -1q-7 -2 -9 -4t-2 -10q0 -11 2 -41q0 -7 0.5 -21t0.5 -21v-67q-1 -31 -1 -89q-2 -56 -2 -85v-28q-1 -32 1 -101q0 -7 -2 -21q-5 -17 -20 -17
q-30 2 -42 2q-10 1 -29 1h-28t-25 2q-15 2 -15 16l3 61q6 46 6 69q2 46 -2 80q-2 30 -6 60q-1 14 -18 18q-40 6 -53 15q-25 15 -41 27q-12 9 -25 31q-14 23 -26 59q-8 24 -3 59q8 47 19 65q7 12 19 22q38 28 51 33q5 2 15.5 5t12.5 4l51 12q4 1 8 1.5t9 1t8 0.5q10 1 27.5 3
t27.5 4q11 1 31 1z" />
    <glyph glyph-name="periodcentered" unicode="&#xb7;" horiz-adv-x="235" 
d="M33 248h-1l4 43v9q0 32 1 49q0 18 17 21q54 11 59 11q12 2 65 -1q16 -1 19 -19q5 -40 2 -65q-1 -12 -4 -69q0 -8 -1 -10q-5 -14 -17 -13q-9 0 -31 2q-2 0 -4 0.5t-4 0.5q-13 -1 -26.5 0t-30.5 4t-26 4q-2 0 -3 1h-2q-15 4 -17 21v11z" />
    <glyph glyph-name="cedilla" unicode="&#xb8;" horiz-adv-x="303" 
d="M30 -93l2 72q0 8 -1 11q-4 22 1 49q5 17 20 17q16 -2 22 -2q30 -2 42 -2l26 -2q15 -2 15 -18t-2 -48q0 -8 2 -24q2 -14 15 -14q27 -2 29 -3q30 -4 51 -34q33 -44 28 -101q-1 -27 -20 -54q-33 -47 -77 -68q-37 -16 -67 -16h-33q-24 2 -34 5q-14 2 -15 16l-3 66q0 7 1 9
q3 16 19 16h31q43 -1 74 38q9 12 3 25.5t-21 15.5q-22 3 -43 0q-5 -1 -11 -1.5t-13.5 -1t-11.5 -0.5q-2 0 -6 -0.5t-6 -0.5q-14 0 -15 13q0 6 -0.5 19.5t-1.5 17.5z" />
    <glyph glyph-name="onesuperior" unicode="&#xb9;" horiz-adv-x="309" 
d="M151 277h1v38l-2 90q0 2 -0.5 6t-0.5 6q-3 15 -16 11q-38 -10 -57 -17l-12 -3q-16 -4 -21 13l-8 42q0 2 -3.5 16t-5.5 21q-3 13 7 22q62 56 64 58q12 11 33 33.5t32 34.5q12 14 27 12l57 -2q19 -1 19 -20l2 -74l6 -78l2 -54l3 -48q1 -11 1 -31v-8l-1 -22q0 -22 1 -22
q0 -45 -7 -106q0 -7 -1 -8q-5 -20 -23 -20l-58 -3q-2 0 -8 -0.5t-8 -0.5q-19 0 -20 19z" />
    <glyph glyph-name="ordmasculine" unicode="&#xba;" horiz-adv-x="536" 
d="M23 414q2 62 19 98q6 17 21 38q12 17 38 47q10 12 56 42q39 24 83 29q17 4 40 4q19 0 34 -4q37 -6 57 -16q41 -24 55 -36q21 -20 38 -49q36 -69 46 -138q1 -8 3 -23.5t2 -22.5q1 -16 -3 -32q-8 -40 -16 -57q-20 -39 -42 -55q-5 -3 -13 -11q-36 -33 -83 -41q-40 -7 -48 -6
q-87 8 -95 10l-41 9q-38 5 -72 36q-24 20 -45 57q-13 24 -22 45q-13 36 -12 76zM370 382q0 14 -2 19q-10 58 -58 100q-21 17 -35 18q-21 5 -36 -1q-32 -14 -46 -44q-9 -19 -14 -35q-9 -24 -6 -37q10 -68 77 -94q7 -3 21 -5t17 -3q34 -10 61 24q25 30 21 58zM501 62h1l-2 -49
q-1 -18 -19 -19q-5 0 -16.5 1t-17.5 1h-87l-45 -4q-29 -2 -57 -6q-8 -2 -24.5 -3.5t-24.5 -2.5q-9 -1 -28 0.5t-28 -0.5q-46 -2 -69 -9l-20 -4q-15 -3 -19 12q-2 8 -2 10q0 13 -0.5 40t-0.5 41q0 5 2 19q3 20 23 25q5 2 16 3t16 3q6 1 19 3.5t20 3.5q16 3 48 5h26.5t33.5 2
q28 1 54 7q44 6 76 0q34 -5 55 -2q7 1 19 1q22 2 29 2q15 0 19 -15q3 -15 3 -31v-34z" />
    <glyph glyph-name="guillemotright" unicode="&#xbb;" horiz-adv-x="635" 
d="M154 33v-1l-36 3l-60 3h-5q-21 2 -12 20q10 26 17 38l2 2q6 14 14 28t18.5 31t15.5 26q16 27 50 81q1 3 4 6q11 14 0 28q-2 2 -20 31q-5 8 -15 22t-15 22l-23 37l-30 54l-20 39q-9 17 11 22q6 1 39.5 7t51.5 8q7 1 63 1q11 -1 17 -15q3 -8 8.5 -22t7.5 -21q19 -44 21 -47
q21 -37 36 -70q2 -7 5.5 -13.5t8.5 -14t7 -11.5l24 -45q9 -18 -4 -31q-4 -4 -10 -12t-9 -11q-17 -20 -71 -107l-45 -73q-8 -15 -25 -15h-21zM361 523q54 -2 77 -2q12 0 42 2q15 1 22 -10q35 -54 41 -65q27 -49 44 -96q3 -6 9.5 -23.5t10.5 -26.5q11 -20 -3 -39l-43 -67
q-5 -9 -10 -20t-11 -24t-10 -21q-39 -76 -51 -93l-11 -18q-8 -11 -19 -9q-7 2 -39 -1q-39 -6 -78 -3l-19 3q-16 4 -8 20v1q11 14 26 41t18 32l59 91l25 40l9 15t9 16q9 15 0 30l-23 40q-17 32 -41 66l-63 103q-9 14 8 17q11 1 29 1z" />
    <glyph glyph-name="onequarter" unicode="&#xbc;" horiz-adv-x="1003" 
d="M583 654h1q-2 -14 -3 -41.5t-3 -41.5q-3 -38 -28 -157q-5 -25 -12.5 -70t-10.5 -59q-17 -93 -21 -113q-7 -35 -23 -101l-24 -111l-3 -11q-4 -10 -16 -12q-21 0 -59 -2q-9 0 -28 -0.5t-29 -0.5q-7 -1 -17 2q-13 3 -11 14q2 18 6 36q3 15 9 43.5t8 41.5q1 7 3 20.5t4 20.5
q2 9 6 26t5 25l26 146l3 18t4 18q9 28 14 70q3 28 13 84l21 113l13 60q0 2 0.5 3t0.5 3q4 13 9 16.5t17 3.5q30 -2 60 3q8 0 50 -2q15 -1 15 -18v-1v-26zM151 277h1v38l-2 90q0 2 -0.5 6t-0.5 6q-3 15 -16 11q-38 -10 -57 -17l-12 -3q-16 -4 -21 13l-8 42q0 2 -3.5 16
t-5.5 21q-3 13 7 22q62 56 64 58q12 11 33 33.5t32 34.5q12 14 27 12l57 -2q19 -1 19 -20l2 -74l6 -78l2 -54l3 -48q1 -11 1 -31v-8l-1 -22q0 -22 1 -22q0 -45 -7 -106q0 -7 -1 -8q-5 -20 -23 -20l-58 -3q-2 0 -8 -0.5t-8 -0.5q-19 0 -20 19zM678 504h22q43 -2 51 -4
q11 0 13 -12q1 -11 1 -30q0 -4 -0.5 -12t-0.5 -12q-2 -12 -2.5 -33t-2.5 -33q0 -4 -0.5 -9t-0.5 -8q-1 -9 -4 -53l-2 -43q0 -18 17 -16q7 0 21 2q2 0 8 0.5t8 0.5q14 1 16 15q1 11 1 29v38q0 21 19 22q24 4 76 -4q20 -1 20 -24l2 -50q1 -10 4 -13.5t13 -6.5q8 -2 14 -6
t6 -20q0 -15 -2 -47q0 -14 -2 -38q0 -9 -1 -12q-3 -14 -16 -14q-11 -1 -13.5 -3t-4.5 -14l-2 -33q-2 -10 -4 -29t-3 -29v-3q-3 -13 -9 -18.5t-20 -6.5q-7 -1 -21 0t-18 1q-3 0 -10 0.5t-10 0.5h-13q-21 2 -20 22q2 51 5 76q0 5 0.5 13t0.5 12q-1 12 -14 13h-20
q-10 0 -29 0.5t-28 0.5t-26 -0.5t-26 -0.5q-23 0 -29 2q-19 1 -19 21q-2 61 -7 92q-1 4 -1 36q0 53 1 80q0 1 3 46l3 42t4 42q0 6 2 16q2 14 16 14h34z" />
    <glyph glyph-name="onehalf" unicode="&#xbd;" horiz-adv-x="930" 
d="M583 654h1q-2 -14 -3 -41.5t-3 -41.5q-3 -38 -28 -157q-5 -25 -12.5 -70t-10.5 -59q-17 -93 -21 -113q-7 -35 -23 -101l-24 -111l-3 -11q-4 -10 -16 -12q-21 0 -59 -2q-9 0 -28 -0.5t-29 -0.5q-7 -1 -17 2q-13 3 -11 14q2 18 6 36q3 15 9 43.5t8 41.5q1 7 3 20.5t4 20.5
q2 9 6 26t5 25l26 146l3 18t4 18q9 28 14 70q3 28 13 84l21 113l13 60q0 2 0.5 3t0.5 3q4 13 9 16.5t17 3.5q30 -2 60 3q8 0 50 -2q15 -1 15 -18v-1v-26zM797 149l11 -3h17q40 -3 47 -4q14 -2 27 -6q15 -4 15 -21q2 -29 1 -43q0 -34 -4 -61q0 -1 -0.5 -3t-0.5 -4
q-5 -12 -16 -11l-36 4q-1 1 -7 1q-82 2 -123 2q-1 0 -46 -3q-40 -2 -60 -2q-8 -1 -12.5 3.5t-4.5 13.5v51q0 3 -0.5 11t-0.5 11q0 11 1 18l6 33q3 11 14 16q6 3 16.5 8t16.5 9l31 19q19 12 31 27q2 3 7.5 9.5t8.5 10.5q29 41 25 81q-4 36 -42 48q-4 2 -20 4q-2 0 -24.5 2
t-25.5 -1h-10q-17 3 -17 19v41l-2 50q-1 12 2 16t14 6q64 9 112 5q60 -7 98 -38q36 -30 44 -77q4 -25 2 -74q0 -5 -1 -6q-17 -55 -21 -65q-18 -44 -58 -77q-11 -8 -15 -20zM151 277h1v38l-2 90q0 2 -0.5 6t-0.5 6q-3 15 -16 11q-38 -10 -57 -17l-12 -3q-16 -4 -21 13l-8 42
q0 2 -3.5 16t-5.5 21q-3 13 7 22q62 56 64 58q12 11 33 33.5t32 34.5q12 14 27 12l57 -2q19 -1 19 -20l2 -74l6 -78l2 -54l3 -48q1 -11 1 -31v-8l-1 -22q0 -22 1 -22q0 -45 -7 -106q0 -7 -1 -8q-5 -20 -23 -20l-58 -3q-2 0 -8 -0.5t-8 -0.5q-19 0 -20 19z" />
    <glyph glyph-name="threequarters" unicode="&#xbe;" horiz-adv-x="1020" 
d="M600 654h1q-2 -14 -3.5 -41.5t-2.5 -41.5q-3 -38 -28 -157q-5 -25 -12.5 -70t-10.5 -59q-17 -93 -21 -113q-7 -35 -23 -101l-24 -111l-3 -11q-4 -10 -16 -12q-21 0 -59 -2q-10 0 -29 -0.5t-28 -0.5q-7 -1 -17 2q-13 3 -11 14q1 18 6 36q3 15 9 43.5t8 41.5q1 7 3 20.5
t4 20.5q1 9 5 26t6 25l26 146q2 6 4 18l3 18q9 28 14 70q3 28 13 84l21 113l13 60q0 2 0.5 3t0.5 3q4 13 9 16.5t17 3.5q30 -2 60 3q8 0 50 -2q15 -1 15 -18v-1v-26zM695 504h22q43 -2 51 -4q12 0 13 -12q1 -11 1 -30q0 -4 -0.5 -12t-0.5 -12q-1 -12 -2 -33t-3 -33
q0 -4 -0.5 -9t-0.5 -8q-1 -9 -4 -53l-2 -43q0 -18 17 -16q7 0 21 2q3 0 8 0.5t8 0.5q14 1 16 15q1 11 1 29v38q0 21 19 22q24 4 76 -4q20 -1 20 -24l2 -50q1 -10 4 -13.5t13 -6.5q8 -2 14 -6t6 -20q0 -15 -2 -47q0 -14 -2 -38q0 -9 -1 -12q-3 -14 -16 -14q-11 -1 -13.5 -3
t-4.5 -14l-2 -33q-2 -10 -4 -29t-3 -29v-3q-3 -13 -9 -18.5t-20 -6.5q-7 -1 -21 0t-18 1t-10 0.5t-10 0.5h-13q-21 2 -20 22q2 51 5 76q0 5 0.5 13t0.5 12q-1 12 -14 13l-10 -1q-10 0 -10 1q-9 0 -28 0.5t-29 0.5q-8 0 -26 -0.5t-26 -0.5q-23 0 -29 2q-19 1 -19 21
q-2 61 -7 92q-1 4 -1 36q0 53 1 80q0 1 3 46q2 14 4 42l3 42q0 6 2 16q2 14 16 14h34zM298 510h1l-2 -32q-4 -36 -36 -70l-15 -14q-7 -9 -7 -12.5t8 -9.5q11 -8 18 -15q55 -48 37 -114q-1 -5 -20 -48q-8 -17 -34 -47q-21 -22 -59 -29q-22 -6 -53 -4q-4 0 -16 1.5t-18 2
t-15.5 2.5t-17 5t-14.5 7l-3 2q-22 9 -19 34l8 58q3 14 18 13q4 0 11.5 -1.5t8.5 -1.5q49 -5 78 32q8 11 1 24q-11 22 -36 29q-2 1 -26 9q-19 6 -18 27q2 43 4 54q0 9 2.5 13.5t6 6t12.5 3.5q3 1 6.5 1.5t8 1t6.5 0.5q21 4 34 17q24 24 6 49q-11 18 -25 22q-51 17 -81 16
q-4 0 -10 -0.5t-10 -0.5q-16 0 -18 17l-3 59v21q0 16 16 20q18 8 37 9q7 0 14.5 0.5t16.5 1.5t14 1q12 0 34 -2q32 -6 48 -11q29 -9 48 -28q31 -27 43 -62q7 -15 9 -44q1 -3 1 -13z" />
    <glyph glyph-name="questiondown" unicode="&#xbf;" horiz-adv-x="481" 
d="M19 233v14q-3 29 20 70q27 44 73 69q14 8 21 13q20 14 20 38q0 20 -2 60v7q0 8 6.5 12.5t12.5 2.5q13 -2 34 -5.5t30 -4.5q54 -7 68 -7q10 -1 41 -7q12 -3 13 -18q3 -17 -3 -49q-1 -6 -3 -17t-4 -16q-15 -42 -60 -61q-8 -3 -29.5 -12t-32.5 -14q-25 -13 -39 -24
q-24 -18 -24 -52q2 -36 27 -55q15 -13 40 -11q24 2 44 11q24 10 27 40q1 8 2 22t3 22q0 3 0.5 8t0.5 7q3 15 17 13q6 0 15 -1.5t14 -1.5q10 -2 28 -3t27 -2l36 -3q18 -2 17 -21q-2 -81 -27 -144q-21 -50 -47 -78q-21 -23 -49 -33q-20 -9 -47 -16q-27 -8 -55 -5l-38 2
q-21 1 -41 12q-7 4 -21 10q-23 11 -46 32q-38 34 -56 93q-14 56 -13 103zM202 547q-15 0 -23 1q-17 3 -18 18l-3 31l-10 70q0 9 1 11q2 9 11 10h12q30 -5 89 1h22q9 0 25 -2q24 0 26 -21q2 -9 4 -41q1 -13 1 -39q2 -20 -18 -23q-64 -10 -96 -14q-14 -2 -23 -2z" />
    <glyph glyph-name="Agrave" unicode="&#xc0;" horiz-adv-x="498" 
d="M210 647v-3q13 2 38 4t37 3q1 0 4 0.5t4 0.5q35 -2 63 -7q6 -1 16 -3t16 -3q18 -5 21 -24q4 -18 16 -92l9 -60t10 -61q4 -26 10 -86q2 -12 3 -35t2 -34q5 -49 7 -110q1 -8 -2 -93q0 -16 -17 -16q-29 -2 -57 3l-45 8l-7 2q-15 5 -15 20l-2 49l-3 42t-4 42v14q-1 19 -20 19
t-30 -1q-8 -2 -26 -3t-26 -3q-8 -1 -11 -3.5t-5 -11.5l-8 -48q-2 -10 -4.5 -31t-4.5 -31q-5 -25 -11 -73q-2 -9 -6 -12.5t-14 -5.5l-48 -9q-2 0 -4 -1h-3q-38 -2 -54 -2t-15 16q1 18 6 41l9 50l13 80l11 66q13 73 22 118q21 115 28 143l13 55q2 9 5 28t5 28v4q1 8 4 12
t6.5 5.5t11.5 3.5t25.5 3t26.5 2zM307 366v14v1q0 11 -2 33l-8 86l-3 24q-3 10 -12 12q-2 0 -7 0.5t-7 0.5q-14 1 -18 -2.5t-6 -17.5l-16 -87q-10 -60 -11 -64q-3 -15 2 -19.5t20 -1.5q7 1 20 2t19 3l16 2q13 1 13 14zM162 896q6 -2 18 -3.5t19 -2.5l56 -8q14 -2 18 -16
l9 -45q16 -62 23 -93l2 -10q3 -15 -12 -18l-56 -9q-19 -4 -32 14l-86 140q-12 20 -14 23q-12 20 10 24l5 2q8 0 40 2z" />
    <glyph glyph-name="Aacute" unicode="&#xc1;" horiz-adv-x="498" 
d="M210 644v3q-9 -1 -26.5 -2t-25.5 -3t-11.5 -3.5t-6.5 -5.5t-4 -12v-4q-2 -9 -5 -28t-5 -28l-13 -55q-7 -28 -28 -143q-9 -45 -22 -118l-11 -66l-13 -80l-9 -50q-5 -23 -6 -41q-1 -16 15 -16t54 2q1 0 3 0.5t4 0.5l48 9q10 2 14 5.5t6 12.5q6 48 11 73q2 10 4.5 31t4.5 31
l8 48q2 9 5 11.5t11 3.5q8 2 26 3t26 3q11 1 30 1t20 -19v-14q2 -14 4 -42l3 -42l2 -49q0 -15 15 -20l7 -2l45 -8q28 -5 57 -3q17 0 17 16q3 85 2 93q-2 61 -7 110q-1 11 -2 34t-3 35q-6 60 -10 86q-4 21 -10 61l-9 60q-12 74 -16 92q-3 19 -21 24q-6 1 -16 3t-16 3
q-28 5 -63 7q-1 0 -4 -0.5t-4 -0.5q-12 -1 -37 -3t-38 -4zM307 380v-14q0 -13 -13 -14l-16 -2q-6 -2 -19 -3t-20 -2q-15 -3 -20 1.5t-2 19.5q1 4 11 64l16 87q2 14 6 17.5t18 2.5q2 0 7 -0.5t7 -0.5q9 -2 12 -12l3 -24l8 -86q2 -22 2 -33v-1zM357 901q32 -2 40 -2l5 -2
q22 -4 10 -24q-2 -3 -14 -23l-86 -140q-13 -18 -32 -14l-56 9q-15 3 -12 18v1q1 2 1.5 4.5t0.5 4.5q7 31 23 93l9 45q4 14 18 16l56 8q7 1 19 2.5t18 3.5z" />
    <glyph glyph-name="Acircumflex" unicode="&#xc2;" horiz-adv-x="498" 
d="M210 647v-3q13 2 38 4t37 3q1 0 4 0.5t4 0.5q35 -2 63 -7q6 -1 16 -3t16 -3q18 -5 21 -24q4 -18 16 -92l9 -60t10 -61q4 -26 10 -86q2 -12 3 -35t2 -34q5 -49 7 -110q1 -8 -2 -93q0 -16 -17 -16q-29 -2 -57 3l-45 8l-7 2q-15 5 -15 20l-2 49l-3 42t-4 42v14q-1 19 -20 19
t-30 -1q-8 -2 -26 -3t-26 -3q-8 -1 -11 -3.5t-5 -11.5l-8 -48q-2 -10 -4.5 -31t-4.5 -31q-5 -25 -11 -73q-2 -9 -6 -12.5t-14 -5.5l-48 -9q-2 0 -4 -1h-3q-38 -2 -54 -2t-15 16q1 18 6 41l9 50l13 80l11 66q13 73 22 118q21 115 28 143l13 55q2 9 5 28t5 28v4q1 8 4 12
t6.5 5.5t11.5 3.5t25.5 3t26.5 2zM307 366v14v1q0 11 -2 33l-8 86l-3 24q-3 10 -12 12q-2 0 -7 0.5t-7 0.5q-14 1 -18 -2.5t-6 -17.5l-16 -87q-10 -60 -11 -64q-3 -15 2 -19.5t20 -1.5q7 1 20 2t19 3l16 2q13 1 13 14zM305 910v-1q4 0 11.5 -0.5t11.5 -0.5q17 0 27 -16
q13 -22 48 -103q1 -4 5.5 -14t6.5 -16q4 -7 9.5 -21t8.5 -22q9 -23 -13 -24l-32 -2q-57 -3 -58 -3q-17 -2 -23 13q-1 2 -6 11t-7 14q-6 11 -16.5 30.5t-14.5 27.5l-6 7q-8 8 -11 -1q-9 -13 -14 -28l-19 -54q-5 -15 -21 -15q-75 3 -77 3q-3 1 -8.5 1h-9.5q-10 1 -10 15
q3 11 4 13q13 31 31 93q10 31 38 71q5 9 17 13q33 7 56 7q5 0 17 1t18 1h37z" />
    <glyph glyph-name="Atilde" unicode="&#xc3;" horiz-adv-x="498" 
d="M210 647v-3q13 2 38 4t37 3q1 0 4 0.5t4 0.5q35 -2 63 -7q6 -1 16 -3t16 -3q18 -5 21 -24q4 -18 16 -92l9 -60t10 -61q4 -26 10 -86q2 -12 3 -35t2 -34q5 -49 7 -110q1 -8 -2 -93q0 -16 -17 -16q-29 -2 -57 3l-45 8l-7 2q-15 5 -15 20l-2 49l-3 42t-4 42v14q-1 19 -20 19
t-30 -1q-8 -2 -26 -3t-26 -3q-8 -1 -11 -3.5t-5 -11.5l-8 -48q-2 -10 -4.5 -31t-4.5 -31q-5 -25 -11 -73q-2 -9 -6 -12.5t-14 -5.5l-48 -9q-2 0 -4 -1h-3q-38 -2 -54 -2t-15 16q1 18 6 41l9 50l13 80l11 66q13 73 22 118q21 115 28 143l13 55q2 9 5 28t5 28v4q1 8 4 12
t6.5 5.5t11.5 3.5t25.5 3t26.5 2zM307 366v14v1q0 11 -2 33l-8 86l-3 24q-3 10 -12 12q-2 0 -7 0.5t-7 0.5q-14 1 -18 -2.5t-6 -17.5l-16 -87q-10 -60 -11 -64q-3 -15 2 -19.5t20 -1.5q7 1 20 2t19 3l16 2q13 1 13 14zM404 922l55 -3q17 -2 17 -18q0 -25 -2 -75
q0 -37 -16 -70q-4 -10 -12 -18q-24 -29 -75 -42q-10 -3 -15 -4q-25 -9 -65 0q-42 10 -60 50q-3 6 -9 18.5t-10 19.5q-4 9 -12 14q-16 10 -21 -9q-3 -13 -3 -28q0 -2 3 -23q2 -15 -12 -17q-8 -2 -48 -4h-52q-12 0 -15 11q-3 8 -3 14q-8 66 -8 73q0 35 21 60q25 31 65 40
q8 3 27 3q15 -1 46 1q26 1 55 -19q21 -19 33 -54q2 -3 3.5 -10t3.5 -10l3 -10q5 -11 15.5 -11.5t16.5 9.5q13 22 14 40v53q0 15 14 16q8 2 37 2h8z" />
    <glyph glyph-name="Adieresis" unicode="&#xc4;" horiz-adv-x="498" 
d="M210 647v-3q13 2 38 4t37 3q1 0 4 0.5t4 0.5q35 -2 63 -7q6 -1 16 -3t16 -3q18 -5 21 -24q4 -18 16 -92l9 -60t10 -61q4 -26 10 -86q2 -12 3 -35t2 -34q5 -49 7 -110q1 -8 -2 -93q0 -16 -17 -16q-29 -2 -57 3l-45 8l-7 2q-15 5 -15 20l-2 49l-3 42t-4 42v14q-1 19 -20 19
t-30 -1q-8 -2 -26 -3t-26 -3q-8 -1 -11 -3.5t-5 -11.5l-8 -48q-2 -10 -4.5 -31t-4.5 -31q-5 -25 -11 -73q-2 -9 -6 -12.5t-14 -5.5l-48 -9q-2 0 -4 -1h-3q-38 -2 -54 -2t-15 16q1 18 6 41l9 50l13 80l11 66q13 73 22 118q21 115 28 143l13 55q2 9 5 28t5 28v4q1 8 4 12
t6.5 5.5t11.5 3.5t25.5 3t26.5 2zM307 366v14v1q0 11 -2 33l-8 86l-3 24q-3 10 -12 12q-2 0 -7 0.5t-7 0.5q-14 1 -18 -2.5t-6 -17.5l-16 -87q-10 -60 -11 -64q-3 -15 2 -19.5t20 -1.5q7 1 20 2t19 3l16 2q13 1 13 14zM283 762q1 9 1.5 25t2.5 24q4 21 24 22l84 4
q16 1 21 -17q12 -41 7 -89l-2 -17q-3 -16 -16 -17q-24 -3 -25 -3q-21 -4 -49 -4q-4 0 -26 2q-15 3 -16 18q-1 9 -2.5 26.5t-3.5 25.5zM97 765v44q0 12 3.5 17t14.5 7q20 5 38 6q29 2 48 -3q16 -4 16 -21q0 -25 -1 -38q0 -17 -2 -55v-8q0 -20 -19 -20q-7 0 -21 0.5t-22 0.5
q-12 0 -36 -2q-16 -1 -17 12q-1 7 -1.5 14.5t-1 16.5t-0.5 14q0 2 0.5 7t0.5 8z" />
    <glyph glyph-name="Aring" unicode="&#xc5;" horiz-adv-x="498" 
d="M278 864q47 1 80 -30q11 -11 18 -16q20 -15 29 -38q15 -38 20 -79q4 -26 -7 -59q-2 -2 -3 -6t-2 -6q-3 -13 -2 -22q4 -16 8.5 -48.5t8.5 -49.5q7 -38 17 -109q6 -42 9 -86q2 -12 3 -35t3 -34q1 -19 3.5 -55t3.5 -55q0 -14 -0.5 -29t-1.5 -34t-1 -29q0 -14 -17 -16
q-32 0 -59 4l-43 8l-6 2q-15 4 -16 20q0 16 -2 50q-1 14 -3 41t-4 41v14q-1 19 -20 19q-18 0 -29 -1q-26 -1 -52 -6q-9 -1 -12 -3.5t-5 -11.5l-9 -57q-11 -74 -13 -82q-2 -7 -3.5 -20.5t-2.5 -20.5q-2 -12 -5.5 -15.5t-15.5 -5.5l-47 -9q-1 0 -5 -0.5t-6 -0.5l-47 -2
q-19 0 -18 19q2 19 6 39l9 49q6 35 13 79l12 68l21 117q17 92 29 146q1 9 13 53l4 22q3 12 -4 22q-6 8 -11 20q-28 56 -18 117q4 33 29 58q19 19 30 28q24 21 54 26q54 9 67 9zM307 367v13h1l-2 34l-11 104q0 2 -0.5 5t-0.5 4q-5 8 -9 8q-22 2 -29 2q-8 1 -9 -6q-2 -8 -2 -9
q-3 -15 -8 -41.5t-9 -48.5t-7 -42q-4 -15 -4 -33q-1 -8 2 -10.5t12 -2.5q1 0 3 0.5t4 0.5l21 4l35 3q13 1 13 15zM308 692l-2 10q-8 36 -44 46q-11 5 -22.5 -1t-14.5 -18q-4 -16 3 -31q13 -22 32 -32q14 -9 31 -2t17 28z" />
    <glyph glyph-name="AE" unicode="&#xc6;" horiz-adv-x="723" 
d="M288 649h36q1 0 32.5 0.5t32.5 -0.5l30 -3t30 -2q5 0 35 2q3 0 12 1t14 0h40q38 2 58 2q10 0 32 -2q12 0 14 -14q2 -16 2 -25q2 -35 0 -71q0 -19 -4 -34q-2 -14 -17 -14l-38 3q-9 1 -25 1q-12 0 -38 -2q-11 0 -14.5 -3.5t-4.5 -14.5q0 -7 0.5 -19t0.5 -19l3 -60
q1 -14 5.5 -17.5t17.5 -0.5q41 7 68 13q20 5 41 3q14 0 17 -12q2 -4 3 -12.5t2 -12.5q1 -6 1 -73q0 -14 -14 -17l-37 -8q-40 -8 -60 -11l-27 -6q-9 -1 -9 -8q-1 -18 0 -36q0 -14 13 -11q15 3 65 1q31 -1 63 -6h12q18 0 19 -18q2 -26 2 -39q0 -47 -1 -71q0 -13 -14 -15
l-60 -6l-32 -4q-6 0 -17 -0.5t-16 -0.5h-49q-27 0 -81 -2q-32 -2 -47 -5q-17 -2 -17 14q-1 47 5 102q1 27 0 55q0 13 -14 13l-47 -4l-48 -3q-4 0 -12.5 -0.5t-13.5 -0.5q-10 -1 -13 -11l-9 -38q-11 -50 -14 -68l-4 -15q-3 -16 -21 -18l-68 -8q-5 0 -37 2l-35 3q-15 1 -15 17
q0 3 2 17q1 7 11.5 59.5t15.5 80.5q6 35 18 76q7 23 28 110l20 73q7 27 28 130q4 19 16 36q9 12 24 15l68 12h36zM368 352v89h1v20q0 1 -0.5 4t-0.5 5q-3 10 -12 10q-8 0 -11 -1q-8 -1 -23 -3t-23 -4q-12 -3 -16 -7.5t-6 -16.5l-8 -51l-8 -63q-2 -11 11 -13q2 0 6 0.5t7 0.5
q38 6 57 5h12q10 1 12 11z" />
    <glyph glyph-name="Ccedilla" unicode="&#xc7;" horiz-adv-x="397" 
d="M162 341q-2 -65 35 -121q15 -23 38 -38q21 -13 46 -16q37 -5 58 -10q11 -2 14.5 -7t2.5 -16q-1 -7 -1 -18v-79v-12q-5 -20 -24 -19q-33 2 -54 5h-4q-7 0 -11 -0.5t-6 -3.5t-2.5 -6t-0.5 -10v-2q1 -12 5 -16t16 -5q4 0 10 -0.5t10 -0.5q27 -1 50 -28q28 -33 33 -88
q4 -43 -28 -85q-33 -42 -70 -57q-37 -16 -66 -16q-43 0 -57 3l-12 2q-13 4 -13 17l-3 65v8q3 17 21 17q9 1 25 -1q46 -1 77 36q12 15 3 31q-4 13 -18 13q-34 0 -50 -1q-6 0 -12 -0.5t-14 -1.5t-12 -1q-10 -1 -14 2.5t-5 14.5q-2 18 0 77q0 8 -1 23.5t-1 23.5v24q3 15 -10 24
q-21 14 -45 46q-21 28 -32 61q-13 45 -17 85q-3 30 2 79q8 52 10 61q15 70 52 126l21 26q38 43 98 68q41 15 59 16q50 3 58 1q17 -4 29 -14q9 -6 9 -18q-1 -7 -4 -39l-12 -77q-2 -11 -5 -14t-15 -5t-24 0q-32 2 -53 -8q-8 -2 -28 -11q-49 -22 -55 -71z" />
    <glyph glyph-name="Egrave" unicode="&#xc8;" horiz-adv-x="378" 
d="M33 88h1l3 122q0 34 4 65v21q0 24 2 74q0 7 0.5 14t1.5 15.5t1 13.5l2 44q2 54 4 67q3 55 3 56l3 53l2 8q4 19 22 19q13 2 59 2q17 0 35 -3h13q30 -2 43 -2q4 0 17.5 1t20.5 0q10 0 29 -0.5t28 -0.5q12 -2 14 -13v-4q0 -18 0.5 -52t0.5 -51q0 -18 -17 -21q-31 -5 -55 -2
q-22 1 -54 -7q-10 -3 -10 -14q0 -5 0.5 -14t0.5 -13l3 -30l2 -7q3 -15 17 -12q22 5 57 -1l32 -3q15 -3 17 -20q3 -23 5 -71v-14q0 -15 -14 -17q-6 -2 -38 -4q-8 -1 -52 -4q-17 0 -26 -1q-11 -1 -14.5 -5t-3.5 -15l4 -63q0 -9 1 -11q1 -15 15 -15q34 -2 52 -2l46 -2
q20 0 21 -21v-1l2 -107v-6q0 -20 -19 -20q-9 0 -26.5 0.5t-31.5 1t-26 1.5l-93 9h-22l-61 2q-16 1 -18 16zM93 904q6 -2 18 -3.5t19 -2.5l56 -8q14 -2 18 -16l9 -45q16 -62 23 -93l2 -10q3 -15 -12 -18l-56 -9q-19 -4 -32 14l-86 140q-13 20 -14 23q-12 20 10 24l5 2
q8 0 40 2z" />
    <glyph glyph-name="Eacute" unicode="&#xc9;" horiz-adv-x="378" 
d="M34 88h-1l3 -44q2 -15 18 -16l61 -2h22l93 -9q12 -1 26 -1.5t31.5 -1t26.5 -0.5q19 0 19 20v6l-2 107v1q-1 21 -21 21l-46 2q-18 0 -52 2q-14 0 -15 15q-1 2 -1 11l-4 63q0 11 3.5 15t14.5 5q9 1 26 1q44 3 52 4q32 2 38 4q14 2 14 17v14q-2 48 -5 71q-2 17 -17 20l-32 3
q-35 6 -57 1q-14 -3 -17 12l-2 7l-3 30q0 4 -0.5 13t-0.5 14q0 11 10 14q32 8 54 7q24 -3 55 2q17 3 17 21q0 17 -0.5 51t-0.5 52v4q-2 11 -14 13q-9 0 -28 0.5t-29 0.5q-7 1 -20.5 0t-17.5 -1q-13 0 -43 2h-13q-18 3 -35 3q-46 0 -59 -2q-18 0 -22 -19l-2 -8l-3 -53
q0 -1 -3 -56q-2 -13 -4 -67l-2 -44q0 -2 -1.5 -18t-1.5 -25q-2 -50 -2 -74v-21q-4 -31 -4 -65zM299 913q32 -2 40 -2l5 -2q22 -4 10 -24q-1 -3 -14 -23l-86 -140q-13 -18 -32 -14l-56 9q-15 3 -12 18l2 10q7 31 23 93l9 45q4 14 18 16l56 8q7 1 19 2.5t18 3.5z" />
    <glyph glyph-name="Ecircumflex" unicode="&#xca;" horiz-adv-x="378" 
d="M33 88h1l3 122q0 34 4 65v21q0 24 2 74q0 7 0.5 14t1.5 15.5t1 13.5l2 44q2 54 4 67q3 55 3 56l3 53l2 8q4 19 22 19q13 2 59 2q17 0 35 -3h13q30 -2 43 -2q4 0 17.5 1t20.5 0q10 0 29 -0.5t28 -0.5q12 -2 14 -13v-4q0 -18 0.5 -52t0.5 -51q0 -18 -17 -21q-31 -5 -55 -2
q-22 1 -54 -7q-10 -3 -10 -14q0 -5 0.5 -14t0.5 -13l3 -30l2 -7q3 -15 17 -12q22 5 57 -1l32 -3q15 -3 17 -20q3 -23 5 -71v-14q0 -15 -14 -17q-6 -2 -38 -4q-8 -1 -52 -4q-17 0 -26 -1q-11 -1 -14.5 -5t-3.5 -15l4 -63q0 -9 1 -11q1 -15 15 -15q34 -2 52 -2l46 -2
q20 0 21 -21v-1l2 -107v-6q0 -20 -19 -20q-9 0 -26.5 0.5t-31.5 1t-26 1.5l-93 9h-22l-61 2q-16 1 -18 16zM237 912v-1q4 0 11.5 -0.5t11.5 -0.5q17 0 27 -16q13 -22 48 -103q1 -4 5.5 -14t6.5 -16q4 -7 9 -21.5t9 -21.5q9 -23 -13 -24l-32 -2q-57 -3 -58 -3q-17 -2 -23 13
q-1 3 -6 11.5t-7 13.5q-6 11 -16.5 30.5t-14.5 27.5l-6 7q-8 8 -11 -1q-9 -13 -14 -28l-19 -54q-5 -15 -21 -15q-75 3 -77 3q-4 1 -9.5 1h-8.5q-10 1 -10 15q3 11 4 13q13 31 31 93q10 31 38 71q5 9 17 13q33 7 56 7q5 0 17 1t18 1h37z" />
    <glyph glyph-name="Edieresis" unicode="&#xcb;" horiz-adv-x="378" 
d="M33 88h1l3 122q0 34 4 65v21q0 24 2 74q0 7 0.5 14t1.5 15.5t1 13.5l2 44q2 54 4 67q3 55 3 56l3 53l2 8q4 19 22 19q13 2 59 2q17 0 35 -3h13q30 -2 43 -2q4 0 17.5 1t20.5 0q10 0 29 -0.5t28 -0.5q12 -2 14 -13v-4q0 -18 0.5 -52t0.5 -51q0 -18 -17 -21q-31 -5 -55 -2
q-22 1 -54 -7q-10 -3 -10 -14q0 -5 0.5 -14t0.5 -13l3 -30l2 -7q3 -15 17 -12q22 5 57 -1l32 -3q15 -3 17 -20q3 -23 5 -71v-14q0 -15 -14 -17q-6 -2 -38 -4q-8 -1 -52 -4q-17 0 -26 -1q-11 -1 -14.5 -5t-3.5 -15l4 -63q0 -9 1 -11q1 -15 15 -15q34 -2 52 -2l46 -2
q20 0 21 -21v-1l2 -107v-6q0 -20 -19 -20q-9 0 -26.5 0.5t-31.5 1t-26 1.5l-93 9h-22l-61 2q-16 1 -18 16zM211 770q1 9 1.5 25t2.5 24q4 21 24 22l84 4q16 1 21 -17q12 -41 7 -89l-2 -17q-3 -16 -16 -17q-24 -3 -25 -3q-21 -4 -49 -4q-4 0 -26 2q-15 3 -16 18
q-1 9 -2.5 26.5t-3.5 25.5zM25 773v44q0 12 3.5 17t14.5 7q20 5 38 6q29 2 48 -3q16 -4 16 -21q0 -25 -1 -38q0 -17 -2 -55v-8q0 -20 -19 -20q-7 0 -21 0.5t-22 0.5q-12 0 -36 -2q-16 -1 -17 12q-1 7 -1.5 14.5t-1 16.5t-0.5 14q0 2 0.5 7t0.5 8z" />
    <glyph glyph-name="Igrave" unicode="&#xcc;" 
d="M32 39h1q-2 22 -2 32q0 14 2 44v14v55l3 58l3 57l6 102l2 51q2 32 5 48v10l3 94q0 8 2 24q2 11 7 15.5t17 6.5q6 0 19.5 2t21.5 3t25 2.5t26 2.5q10 0 26 2q3 0 11 -2q14 -3 15 -15q5 -38 1 -69q-3 -20 -5 -61q-1 -16 -3 -47t-4 -47q-1 -13 -1 -41l-3 -78v-19t-1 -18
q-1 -14 -3 -42.5t-4 -43.5v-8l-3 -94l-2 -36q-1 -25 -26 -27q-11 -2 -33 -2.5t-33 -1.5q-7 0 -21.5 -2t-22.5 -3q-3 -1 -12 -1q-16 0 -17 16v19zM37 902q6 -2 18 -3.5t19 -2.5l56 -8q14 -2 18 -16l9 -45q16 -62 23 -93l2 -10q3 -15 -12 -18l-56 -9q-19 -4 -32 14l-86 140
q-13 20 -14 23q-12 20 10 24l5 2q8 0 40 2z" />
    <glyph glyph-name="Iacute" unicode="&#xcd;" 
d="M33 39h-1v-19q1 -16 17 -16q9 0 12 1q8 1 22.5 3t21.5 2q11 1 33 1.5t33 2.5q25 2 26 27l2 36l3 94v8q2 15 4 43.5t3 42.5q1 6 1 18v19l3 78q0 28 1 41q2 16 4 47t3 47q2 41 5 61q4 31 -1 69q-1 12 -15 15q-8 2 -11 2q-16 -2 -26 -2q-9 -1 -26 -2.5t-25 -2.5t-21.5 -3
t-19.5 -2q-12 -2 -17 -6.5t-7 -15.5q-2 -16 -2 -24l-3 -94v-10q-3 -16 -5 -48l-2 -51l-6 -102l-3 -57l-3 -58v-55v-14q-2 -30 -2 -44q0 -10 2 -32zM238 904q32 -2 40 -2l5 -2q22 -4 10 -24q-1 -3 -14 -23l-86 -140q-13 -18 -32 -14l-56 9q-15 3 -12 18l2 10q7 31 23 93l9 45
q4 14 18 16l56 8q7 1 19 2.5t18 3.5z" />
    <glyph glyph-name="Icircumflex" unicode="&#xce;" 
d="M32 39h1q-2 22 -2 32q0 14 2 44v14v55l3 58l3 57l6 102l2 51q2 32 5 48v10l3 94q0 8 2 24q2 11 7 15.5t17 6.5q6 0 19.5 2t21.5 3t25 2.5t26 2.5q10 0 26 2q3 0 11 -2q14 -3 15 -15q5 -38 1 -69q-3 -20 -5 -61q-1 -16 -3 -47t-4 -47q-1 -13 -1 -41l-3 -78v-19t-1 -18
q-1 -14 -3 -42.5t-4 -43.5v-8l-3 -94l-2 -36q-1 -25 -26 -27q-11 -2 -33 -2.5t-33 -1.5q-7 0 -21.5 -2t-22.5 -3q-3 -1 -12 -1q-16 0 -17 16v19zM176 924v-1q4 0 11.5 -0.5t11.5 -0.5q17 0 27 -16q13 -22 48 -103q1 -4 5.5 -14t6.5 -16q3 -7 8.5 -21t9.5 -22q9 -23 -13 -24
l-32 -2q-57 -3 -58 -3q-17 -2 -23 13q-1 3 -6 11.5t-7 13.5q-6 11 -16.5 30.5t-14.5 27.5l-6 7q-8 8 -11 -1q-9 -13 -14 -28l-19 -54q-4 -15 -21 -15q-75 3 -77 3q-4 1 -9 1h-9q-10 1 -10 15q3 11 4 13q13 31 31 93q10 31 38 71q5 9 17 13q33 7 56 7q6 0 18 1t17 1h37z" />
    <glyph glyph-name="Idieresis" unicode="&#xcf;" 
d="M32 39h1q-2 22 -2 32q0 14 2 44v14v55l3 58l3 57l6 102l2 51q2 32 5 48v10l3 94q0 8 2 24q2 11 7 15.5t17 6.5q6 0 19.5 2t21.5 3t25 2.5t26 2.5q10 0 26 2q3 0 11 -2q14 -3 15 -15q5 -38 1 -69q-3 -20 -5 -61q-1 -16 -3 -47t-4 -47q-1 -13 -1 -41l-3 -78v-19t-1 -18
q-1 -14 -3 -42.5t-4 -43.5v-8l-3 -94l-2 -36q-1 -25 -26 -27q-11 -2 -33 -2.5t-33 -1.5q-7 0 -21.5 -2t-22.5 -3q-3 -1 -12 -1q-16 0 -17 16v19zM162 775q1 9 1.5 25t2.5 24q4 21 24 22l84 4q16 1 21 -17q12 -41 7 -89l-2 -17q-3 -16 -16 -17q-24 -3 -25 -3q-21 -4 -49 -4
q-4 0 -26 2q-15 3 -16 18q-1 9 -2.5 26.5t-3.5 25.5zM-24 778v44q0 12 3.5 17t14.5 7q20 5 38 6q29 2 48 -3q16 -4 16 -21q0 -25 -1 -38q0 -17 -2 -55v-8q0 -20 -19 -20q-8 0 -22 0.5t-21 0.5q-12 0 -36 -2q-16 -1 -17 12q-1 7 -1.5 14.5t-1 16.5t-0.5 14q0 3 0.5 8t0.5 7z
" />
    <glyph glyph-name="Eth" unicode="&#xd0;" horiz-adv-x="469" 
d="M37 33h1v62q0 18 -0.5 55.5t-0.5 55.5q0 9 0.5 25.5t0.5 24.5q0 11 -3.5 14.5t-14.5 4.5q-12 0 -16.5 4t-6.5 15q-5 44 -1 79l2 31q3 19 23 21h12q12 3 14 15l2 38q3 62 4 75v16l3 73q1 12 5.5 16.5t16.5 6.5q56 6 106 5q46 0 69 -3q74 -10 132 -66q18 -18 34 -52
q12 -26 25 -71q9 -40 3 -81q-7 -56 -9 -65q-5 -32 -24 -80q-19 -58 -49 -102q-4 -7 -24 -29q-4 -4 -22 -23t-29 -29q-23 -21 -50 -41q-10 -9 -22 -14q-55 -23 -111 -33h-11q-12 -1 -35 -1q-18 0 -21 18zM265 401v-20q-2 -71 -4 -89q0 -15 -17 -17q-2 -1 -9 -1
q-6 0 -15.5 0.5t-13.5 0.5q-11 0 -14.5 -3.5t-4.5 -14.5q-1 -7 -1 -21q-2 -21 0 -44q0 -13 13 -6q9 6 16 13q6 6 16 17.5t15 16.5q37 38 49 69q25 65 20 120q-4 34 -28.5 62t-58.5 32l-21 3q-11 0 -13 -11q-1 -2 -1 -8q0 -19 2 -57v-5q1 -13 13 -13l23 -2q11 0 16 -1
q17 -4 18 -21z" />
    <glyph glyph-name="Ntilde" unicode="&#xd1;" horiz-adv-x="598" 
d="M211 355l-4 -22q0 -4 0.5 -12.5t0.5 -13.5q0 -3 -0.5 -9t-0.5 -10l-3 -62l-4 -31q-2 -11 -3.5 -33.5t-2.5 -33.5q-3 -23 -3 -92q0 -12 -1 -19q0 -16 -15 -16h-38q-16 1 -32 0q-23 -3 -60 4q-13 1 -13 16q0 13 2 35q3 93 3 94q0 36 4 67l3 38q3 49 4 58q2 44 5 68
q1 9 3 26t2 25q3 45 3 46l6 75q3 16 5 48q2 13 6.5 17.5t16.5 5.5q36 2 54 -1l24 -3l24 -3q30 -3 36 -4q1 0 9 -2q17 -3 23 -21q1 -3 3 -10t4 -11q12 -25 23 -44q33 -57 64 -130q32 -73 35 -79q2 -4 6 -9q4 2 6 11l2 16v46q2 54 2 77l2 49l4 81q2 30 2 44q2 18 19 18
q3 0 10.5 -1t12.5 0q10 0 34 2q27 2 32 2q15 -3 16 -16q1 -7 1 -17q1 -12 2 -36.5t3 -36.5l3 -57l2 -87q0 -12 0.5 -33t0.5 -33q1 -29 1 -88q0 -27 2 -89l4 -74q0 -7 0.5 -22t0.5 -23q0 -2 -0.5 -6t-0.5 -5q-3 -12 -15 -14l-59 -8q-5 -1 -16 -1h-16l-59 -4h-1l-1 -1
q-16 -1 -23 2.5t-13 17.5t-21 52t-23 58l-36 87q-9 20 -26.5 60t-26.5 60q-6 13 -14 17zM445 934l55 -3q17 -2 17 -18q0 -25 -2 -75q0 -37 -16 -70q-5 -10 -12 -18q-24 -29 -75 -42q-10 -3 -15 -4q-25 -9 -65 0q-42 10 -60 50q-3 6 -9 18.5t-10 19.5q-4 9 -12 14
q-16 10 -21 -9q-3 -13 -3 -28q0 -2 3 -23q2 -15 -12 -17q-8 -2 -48 -4h-52q-12 0 -15 11q-3 8 -3 14q-8 66 -8 73q0 35 21 60q25 31 65 40q8 3 27 3q15 -1 46 1q26 1 55 -19q21 -19 33 -54q1 -3 3.5 -10t3.5 -10l3 -10q5 -11 15.5 -11.5t16.5 9.5q13 22 14 40v53q0 15 14 16
q8 2 37 2h8z" />
    <glyph glyph-name="Ograve" unicode="&#xd2;" horiz-adv-x="678" 
d="M650 340h-1v-5q3 -44 -21 -113l-2 -4t-1.5 -3.5l-1.5 -4.5t-2 -5q-8 -28 -37 -72q-13 -20 -24 -32q-4 -4 -11 -12.5t-11 -12.5q-49 -51 -107 -71q-16 -5 -67 -12q-15 -2 -74 0q-18 1 -43 13q-24 9 -60 29q-1 0 -20 14l-35 26q-35 24 -57 58q-38 62 -45 93q-3 9 -3 17
q-5 41 3 83q14 70 26 103q11 32 33 68q39 65 68 96q20 23 52 43q8 6 16 11q42 28 83 35q21 2 30 1q28 0 84 -2q22 -1 42 -12q16 -7 46 -23q24 -12 54 -47q29 -33 52 -91q15 -36 29 -106q1 -10 2 -31t3 -31zM476 342q0 22 -2 28q-1 6 -3 15t-2 13q-8 39 -45 87q-14 17 -49 32
q-31 15 -54 4h-2q-25 -5 -45 -22q-21 -18 -35 -37q-26 -35 -42.5 -86.5t-10.5 -93.5q8 -55 48 -92q14 -13 44 -28q34 -16 68 -15q48 5 68 33l7 7q34 38 48 93q7 20 7 62zM243 938q6 -2 18 -3.5t19 -2.5l56 -8q14 -2 18 -16l9 -45q16 -62 23 -93l2 -10q3 -15 -12 -18l-56 -9
q-19 -4 -32 14l-86 140q-13 20 -14 23q-12 20 10 24l5 2q8 0 40 2z" />
    <glyph glyph-name="Oacute" unicode="&#xd3;" horiz-adv-x="678" 
d="M649 340h1q-2 10 -3 31t-2 31q-14 70 -29 106q-23 58 -52 91q-30 35 -54 47q-30 16 -46 23q-20 11 -42 12q-56 2 -84 2q-9 1 -30 -1q-41 -7 -83 -35q-8 -5 -16 -11q-32 -20 -52 -43q-29 -31 -68 -96q-22 -36 -33 -68q-12 -33 -26 -103q-8 -42 -3 -83q0 -8 3 -17
q7 -31 45 -93q22 -34 57 -58l35 -26q19 -14 20 -14q36 -20 60 -29q25 -12 43 -13q59 -2 74 0q51 7 67 12q58 20 107 71q4 4 11 12.5t11 12.5q11 12 24 32q29 44 37 72q1 2 3 8t4 9q24 69 21 113v5zM476 342q0 -42 -7 -62q-14 -55 -48 -93l-7 -7q-20 -28 -68 -33
q-34 -1 -68 15q-30 15 -44 28q-40 37 -48 92q-6 42 10.5 93.5t42.5 86.5q14 19 35 37q20 17 45 22h2q23 11 54 -4q35 -15 49 -32q37 -48 45 -87q0 -4 2 -13t3 -15q2 -6 2 -28zM438 933q32 -2 40 -2l5 -2q22 -4 10 -24q-2 -3 -14 -23l-86 -140q-13 -18 -32 -14l-56 9
q-15 3 -12 18l2 10q7 31 23 93l9 45q4 14 18 16l56 8q7 1 19 2.5t18 3.5z" />
    <glyph glyph-name="Ocircumflex" unicode="&#xd4;" horiz-adv-x="678" 
d="M650 340h-1v-5q3 -44 -21 -113l-2 -4t-1.5 -3.5l-1.5 -4.5t-2 -5q-8 -28 -37 -72q-13 -20 -24 -32q-4 -4 -11 -12.5t-11 -12.5q-49 -51 -107 -71q-16 -5 -67 -12q-15 -2 -74 0q-18 1 -43 13q-24 9 -60 29q-1 0 -20 14l-35 26q-35 24 -57 58q-38 62 -45 93q-3 9 -3 17
q-5 41 3 83q14 70 26 103q11 32 33 68q39 65 68 96q20 23 52 43q8 6 16 11q42 28 83 35q21 2 30 1q28 0 84 -2q22 -1 42 -12q16 -7 46 -23q24 -12 54 -47q29 -33 52 -91q15 -36 29 -106q1 -10 2 -31t3 -31zM476 342q0 22 -2 28q-1 6 -3 15t-2 13q-8 39 -45 87q-14 17 -49 32
q-31 15 -54 4h-2q-25 -5 -45 -22q-21 -18 -35 -37q-26 -35 -42.5 -86.5t-10.5 -93.5q8 -55 48 -92q14 -13 44 -28q34 -16 68 -15q48 5 68 33l7 7q34 38 48 93q7 20 7 62zM387 947v-1q4 0 11.5 -0.5t11.5 -0.5q17 0 27 -16q13 -22 48 -103q1 -4 5.5 -14t6.5 -16q3 -7 9 -21.5
t9 -21.5q9 -23 -13 -24l-32 -2q-57 -3 -58 -3q-17 -2 -23 13q-1 2 -6 11t-7 14q-6 11 -16.5 30.5t-14.5 27.5l-6 7q-8 8 -11 -1q-9 -13 -14 -28l-19 -54q-5 -15 -21 -15q-75 3 -77 3h-9.5t-8.5 1q-10 1 -10 15q3 12 4 13q13 31 31 93q10 31 38 71q5 9 17 13q33 7 56 7
q5 0 17 1t18 1h37z" />
    <glyph glyph-name="Otilde" unicode="&#xd5;" horiz-adv-x="678" 
d="M650 340h-1v-5q3 -44 -21 -113l-2 -4t-1.5 -3.5l-1.5 -4.5t-2 -5q-8 -28 -37 -72q-13 -20 -24 -32q-4 -4 -11 -12.5t-11 -12.5q-49 -51 -107 -71q-16 -5 -67 -12q-15 -2 -74 0q-18 1 -43 13q-24 9 -60 29q-1 0 -20 14l-35 26q-35 24 -57 58q-38 62 -45 93q-3 9 -3 17
q-5 41 3 83q14 70 26 103q11 32 33 68q39 65 68 96q20 23 52 43q8 6 16 11q42 28 83 35q21 2 30 1q28 0 84 -2q22 -1 42 -12q16 -7 46 -23q24 -12 54 -47q29 -33 52 -91q15 -36 29 -106q1 -10 2 -31t3 -31zM476 342q0 22 -2 28q-1 6 -3 15t-2 13q-8 39 -45 87q-14 17 -49 32
q-31 15 -54 4h-2q-25 -5 -45 -22q-21 -18 -35 -37q-26 -35 -42.5 -86.5t-10.5 -93.5q8 -55 48 -92q14 -13 44 -28q34 -16 68 -15q48 5 68 33l7 7q34 38 48 93q7 20 7 62zM502 963l55 -3q17 -2 17 -18q0 -25 -2 -75q0 -37 -16 -70q-4 -11 -12 -18q-24 -29 -75 -42
q-10 -3 -15 -4q-25 -9 -65 0q-42 10 -60 50q-3 6 -9 18.5t-10 19.5q-4 9 -12 14q-16 10 -21 -9q-3 -14 -3 -28q0 -2 3 -23q2 -15 -12 -17q-8 -2 -48 -4h-52q-12 0 -15 11q-3 7 -3 14q-8 66 -8 73q0 34 21 60q25 31 65 40q8 3 27 3q15 -1 46 1q26 1 55 -19q21 -19 33 -54
q2 -4 4 -10t3 -10l3 -10q5 -11 15.5 -11.5t16.5 9.5q13 22 14 40v53q0 15 14 16q8 2 37 2h8z" />
    <glyph glyph-name="Odieresis" unicode="&#xd6;" horiz-adv-x="678" 
d="M650 340h-1v-5q3 -44 -21 -113l-2 -4t-1.5 -3.5l-1.5 -4.5t-2 -5q-8 -28 -37 -72q-13 -20 -24 -32q-4 -4 -11 -12.5t-11 -12.5q-49 -51 -107 -71q-16 -5 -67 -12q-15 -2 -74 0q-18 1 -43 13q-24 9 -60 29q-1 0 -20 14l-35 26q-35 24 -57 58q-38 62 -45 93q-3 9 -3 17
q-5 41 3 83q14 70 26 103q11 32 33 68q39 65 68 96q20 23 52 43q8 6 16 11q42 28 83 35q21 2 30 1q28 0 84 -2q22 -1 42 -12q16 -7 46 -23q24 -12 54 -47q29 -33 52 -91q15 -36 29 -106q1 -10 2 -31t3 -31zM476 342q0 22 -2 28q-1 6 -3 15t-2 13q-8 39 -45 87q-14 17 -49 32
q-31 15 -54 4h-2q-25 -5 -45 -22q-21 -18 -35 -37q-26 -35 -42.5 -86.5t-10.5 -93.5q8 -55 48 -92q14 -13 44 -28q34 -16 68 -15q48 5 68 33l7 7q34 38 48 93q7 20 7 62zM367 804q1 9 1.5 25t2.5 24q4 21 24 22l84 4q16 1 21 -17q12 -41 7 -89l-2 -17q-3 -16 -16 -17
q-24 -3 -25 -3q-21 -4 -49 -4q-4 0 -26 2q-15 3 -16 18q-1 9 -2.5 26.5t-3.5 25.5zM181 807v44q0 12 3.5 17t14.5 7q20 5 38 6q29 2 48 -3q16 -4 16 -21q0 -25 -1 -38q0 -17 -2 -55v-8q0 -20 -19 -20q-7 0 -21 0.5t-22 0.5q-12 0 -36 -2q-16 -1 -17 12q-1 7 -1.5 14.5
t-1 16.5t-0.5 14q0 2 0.5 7t0.5 8z" />
    <glyph glyph-name="multiply" unicode="&#xd7;" horiz-adv-x="453" 
d="M59 191q1 5 4 11q12 21 16 26l48 63q8 9 8 14t-8 14q-20 26 -55 54l-33 31q-7 7 -8 10q-6 10 0 18q3 4 21 29.5t32 36.5q31 29 41 36q9 6 12.5 5.5t12.5 -5.5q17 -12 39 -40l10.5 -10.5l12 -12l10.5 -10.5l21 -20q12 -11 23 0l18 19q7 8 20.5 21t19.5 20q2 3 6 8t7 8
q11 11 22 2q12 -10 18 -17q7 -8 20 -24.5t21 -25.5q8 -10 3 -21q-26 -48 -36 -58q-5 -5 -10.5 -11t-12 -13.5t-10.5 -11.5q-9 -10 -1 -20q25 -27 30 -34q6 -7 16.5 -22t14.5 -21q7 -10 3 -19q-18 -38 -33 -64q-12 -21 -37 -41q-12 -9 -21 2q-2 3 -11 13.5t-14 16.5
q-21 24 -41 50l-9 7q-10 7 -16 -2q-4 -5 -10 -14t-9 -13q-18 -27 -34 -45q-10 -10 -22 -19q-13 -10 -26 2l-12 12q-7 6 -41 37q-10 10 -15 17q-4 4 -5 11z" />
    <glyph glyph-name="Oslash" unicode="&#xd8;" horiz-adv-x="678" 
d="M340 681v-1l81 -2q16 0 38 -9q17 -6 28 2q7 7 17 2q1 -1 16 -7q11 -4 31 -12t28 -11q18 -8 26 -13q12 -7 14 -13.5t-4 -18.5l-15 -34q-5 -11 1 -23q21 -41 43 -131q5 -28 5 -50q2 -44 -1 -67q-4 -26 -16 -63q-1 -3 -15 -40q-11 -24 -16 -32q-29 -54 -70 -93
q-45 -45 -97 -62q-8 -2 -69 -13q-15 -2 -74 0q-9 1 -25.5 6.5l-19.5 6.5q-2 1 -5.5 2.5t-5.5 2.5q-12 3 -20 -6l-9 -12q-8 -13 -24 -7l-110 45l-12 7q-8 8 -4 17q2 5 8 13t19 28q9 12 1 25l-31 50q-26 47 -27 93q-2 28 13 104q14 67 37 106q11 19 35 57l6 9q11 21 42 56
q18 19 50 41q3 2 9 5.5t7 4.5q36 27 83 35q7 2 32 2zM185 306q0 -10 1 -17q0 -5 2 -19q2 -11 7 -11q3 0 10 7q8 8 13 17q38 58 58 87q5 8 17 23t17 23q10 14 27 42.5t27 42.5q0 1 1 3l1 2q3 9 -4 12q-14 6 -22 5q-21 -3 -36 -10q-31 -11 -55 -41q-36 -46 -52 -96
q-12 -39 -12 -70zM476 331v19q-1 5 -4 6.5t-6 -2.5q-6 -6 -11 -14q-14 -19 -39.5 -57.5t-38.5 -58.5l-44 -65q-12 -14 7 -14q44 -2 70 27q11 11 20 23q46 58 46 136z" />
    <glyph glyph-name="Ugrave" unicode="&#xd9;" horiz-adv-x="583" 
d="M310 16h-37q-43 0 -59 4q-36 10 -50 21q-32 20 -34 22q-45 35 -72 93q-10 21 -13 50q-1 12 -3.5 34t-3.5 34q0 8 -2 24l-3 24q-2 41 0 82q0 15 2 53l4 40q1 7 4 46l3 33t4 34q0 5 1.5 15t1.5 11q3 20 22 17q14 -1 36 2l23 2q7 0 19.5 0.5t23.5 1t21 1.5q14 0 15 -13
q0 -3 -0.5 -8t-0.5 -7q-4 -46 -6 -93q0 -1 -3 -92q-1 -23 -1 -66q0 -67 2 -86q2 -42 5 -51q5 -20 20 -31q21 -17 43 -23q35 -12 58 17q18 20 29 51q15 43 20 96q2 11 3.5 32t2.5 32q0 4 -0.5 11t-0.5 10q1 24 1 72l-4 98q0 6 -0.5 18.5t-0.5 18.5q1 13 14 16q6 2 15 3t15 2
l60 12q6 1 55 1q11 2 14 -12l1 -2v-3q-2 -42 -2 -63q-1 -8 -1 -24q-2 -86 -4 -104l-8 -112q-6 -72 -22 -140q-4 -17 -14 -39q-21 -45 -32 -65q-14 -28 -30 -43q-41 -35 -64 -43q-31 -12 -67 -14zM201 921q6 -2 18 -3.5t19 -2.5l56 -8q14 -2 18 -16l9 -45q16 -62 23 -93
l2 -10q3 -15 -12 -18l-56 -9q-19 -4 -32 14l-86 140q-12 20 -14 23q-12 20 10 24l5 2q8 0 40 2z" />
    <glyph glyph-name="Uacute" unicode="&#xda;" horiz-adv-x="583" 
d="M273 16h37q36 2 67 14q23 8 64 43q16 15 30 43q11 20 32 65q10 22 14 39q16 68 22 140l8 112q2 18 4 104q0 16 1 24q0 21 2 63q0 1 -0.5 3l-0.5 2q-3 14 -14 12q-49 0 -55 -1l-60 -12q-6 -1 -15 -2t-15 -3q-13 -3 -14 -16q0 -6 0.5 -18.5t0.5 -18.5l4 -98q0 -48 -1 -72
q0 -3 0.5 -10t0.5 -11q-1 -11 -2.5 -32t-3.5 -32q-5 -53 -20 -96q-11 -31 -29 -51q-23 -29 -58 -17q-22 6 -43 23q-15 11 -20 31q-3 8 -5 51q-2 19 -2 86q0 43 1 66l3 92q2 47 6 93q0 2 0.5 7t0.5 8q-1 13 -15 13q-10 -1 -21 -1.5t-23.5 -1t-19.5 -0.5l-23 -2q-22 -3 -36 -2
q-19 3 -22 -17q0 -1 -1.5 -11t-1.5 -15q-2 -12 -4 -34l-3 -33q-3 -39 -4 -46l-4 -40q-2 -38 -2 -53q-2 -41 0 -82l3 -24t2 -24q1 -12 3.5 -34t3.5 -34q3 -29 13 -50q27 -58 72 -93q2 -2 34 -22q14 -11 50 -21q16 -4 59 -4zM398 918q32 -2 40 -2l5 -2q22 -4 10 -24
q-2 -3 -14 -23l-86 -140q-13 -18 -32 -14l-56 9q-15 3 -12 18l2 10q7 31 23 93l9 45q4 14 18 16l56 8q7 1 19 2.5t18 3.5z" />
    <glyph glyph-name="Ucircumflex" unicode="&#xdb;" horiz-adv-x="583" 
d="M310 16h-37q-43 0 -59 4q-36 10 -50 21q-32 20 -34 22q-45 35 -72 93q-10 21 -13 50q-1 12 -3.5 34t-3.5 34q0 8 -2 24l-3 24q-2 41 0 82q0 15 2 53l4 40q1 7 4 46l3 33t4 34q0 5 1.5 15t1.5 11q3 20 22 17q14 -1 36 2l23 2q7 0 19.5 0.5t23.5 1t21 1.5q14 0 15 -13
q0 -3 -0.5 -8t-0.5 -7q-4 -46 -6 -93q0 -1 -3 -92q-1 -23 -1 -66q0 -67 2 -86q2 -42 5 -51q5 -20 20 -31q21 -17 43 -23q35 -12 58 17q18 20 29 51q15 43 20 96q2 11 3.5 32t2.5 32q0 4 -0.5 11t-0.5 10q1 24 1 72l-4 98q0 6 -0.5 18.5t-0.5 18.5q1 13 14 16q6 2 15 3t15 2
l60 12q6 1 55 1q11 2 14 -12l1 -2v-3q-2 -42 -2 -63q-1 -8 -1 -24q-2 -86 -4 -104l-8 -112q-6 -72 -22 -140q-4 -17 -14 -39q-21 -45 -32 -65q-14 -28 -30 -43q-41 -35 -64 -43q-31 -12 -67 -14zM325 938v-1q4 0 11.5 -0.5t11.5 -0.5q17 0 27 -16q13 -22 48 -103
q1 -4 5.5 -14t6.5 -16q4 -7 9 -21t9 -22q9 -23 -13 -24l-32 -2q-57 -3 -58 -3q-17 -2 -23 13q-1 3 -6 11.5t-7 13.5q-6 11 -16.5 30.5t-14.5 27.5l-6 7q-8 8 -11 -1q-9 -13 -14 -28l-19 -54q-5 -15 -21 -15q-75 3 -77 3q-3 1 -9 1h-9q-10 1 -10 15q3 11 4 13q13 31 31 93
q10 31 38 71q5 9 17 13q33 7 56 7q5 0 17 1t18 1h37z" />
    <glyph glyph-name="Udieresis" unicode="&#xdc;" horiz-adv-x="583" 
d="M310 16h-37q-43 0 -59 4q-36 10 -50 21q-32 20 -34 22q-45 35 -72 93q-10 21 -13 50q-1 12 -3.5 34t-3.5 34q0 8 -2 24l-3 24q-2 41 0 82q0 15 2 53l4 40q1 7 4 46l3 33t4 34q0 5 1.5 15t1.5 11q3 20 22 17q14 -1 36 2l23 2q7 0 19.5 0.5t23.5 1t21 1.5q14 0 15 -13
q0 -3 -0.5 -8t-0.5 -7q-4 -46 -6 -93q0 -1 -3 -92q-1 -23 -1 -66q0 -67 2 -86q2 -42 5 -51q5 -20 20 -31q21 -17 43 -23q35 -12 58 17q18 20 29 51q15 43 20 96q2 11 3.5 32t2.5 32q0 4 -0.5 11t-0.5 10q1 24 1 72l-4 98q0 6 -0.5 18.5t-0.5 18.5q1 13 14 16q6 2 15 3t15 2
l60 12q6 1 55 1q11 2 14 -12l1 -2v-3q-2 -42 -2 -63q-1 -8 -1 -24q-2 -86 -4 -104l-8 -112q-6 -72 -22 -140q-4 -17 -14 -39q-21 -45 -32 -65q-14 -28 -30 -43q-41 -35 -64 -43q-31 -12 -67 -14zM313 787q1 9 1.5 25t2.5 24q4 21 24 22l84 4q16 1 21 -17q12 -41 7 -89
l-2 -17q-3 -16 -16 -17q-24 -3 -25 -3q-21 -4 -49 -4q-4 0 -26 2q-15 3 -16 18q-1 9 -2.5 26.5t-3.5 25.5zM127 790v44q0 12 3.5 17t14.5 7q20 5 38 6q29 2 48 -3q16 -4 16 -21q0 -25 -1 -38q0 -17 -2 -55v-8q0 -20 -19 -20q-7 0 -21 0.5t-22 0.5q-12 0 -36 -2
q-16 -1 -17 12q-1 7 -1.5 14.5t-1 16.5t-0.5 14q0 3 0.5 8t0.5 7z" />
    <glyph glyph-name="Yacute" unicode="&#xdd;" horiz-adv-x="606" 
d="M66 671h-22h-20q-7 0 -9 -4t2 -9q1 -2 8 -9q9 -9 17 -22q32 -51 53 -76q1 -5 5 -8q24 -44 51 -83q9 -12 32 -44.5t36 -49.5q10 -13 10 -31q1 -24 1 -72v-29q0 -4 0.5 -12t0.5 -13q1 -1 1 -22l-1 -21q2 -46 2 -64q1 0 1 -14l-1 -13q0 -31 1 -47q0 -18 15 -20q24 -2 35 -2
l31 -2l70 -3q17 0 21 18q0 1 0.5 5t0.5 6v11.5v13v10.5q2 62 5 93v13t1 14q0 7 1 25t0 29q-1 15 2 83q2 28 14 40q2 2 2 3q9 15 45.5 74.5t54.5 92.5q11 19 29 57l23 57q2 6 2 8q3 16 -13 19h-5q-23 5 -44 6q-10 1 -57 4q-6 1 -17.5 0t-15.5 -1q-16 1 -24 -14
q-6 -10 -15.5 -28.5t-14.5 -27.5t-52 -105q-5 -13 -10 -14t-13 10q-32 38 -65 80q-21 23 -41 50q-4 4 -9.5 13.5t-9.5 13.5q-8 12 -19 12q-11 1 -31 1q-22 0 -64 -2zM401 922q32 -2 40 -2l5 -2q22 -4 10 -24q-2 -3 -14 -23l-86 -140q-13 -18 -32 -14l-56 9q-15 3 -12 18
l2 10q7 31 23 93l9 45q4 14 18 16l56 8q7 1 19 2.5t18 3.5z" />
    <glyph glyph-name="Thorn" unicode="&#xde;" horiz-adv-x="476" 
d="M51 354h1l-3 93q-1 0 -1 28l1 28q0 3 -1 8.5t0 9.5q0 7 0.5 22t0.5 22q0 18 -1 29q-2 35 5 54q6 21 29 18q6 -2 17 -2t17 -2l36 -4q7 -1 20.5 -2.5t20.5 -3.5q23 -5 20 -28q-2 -22 -2 -30q0 -10 11 -10q13 0 35 2q37 3 79 -8q16 -4 28 -16q25 -25 38 -45q35 -61 43 -106
q11 -63 -6 -125q-3 -7 -5 -21q-15 -67 -72 -106q-24 -16 -40 -24l-9 -4q-9 -5 -29 -13q-3 -1 -13 -5t-16 -6l-12 -3t-12 -4q-3 -1 -17 -4q-14 -2 -14 -20q1 -16 1 -49l-3 -12q-5 -11 -16 -11l-75 -3q-29 0 -50 5q-19 4 -18 24q0 14 0.5 40.5t1 48.5t1.5 41q0 36 3 74l4 37
l2 38v45zM307 356l-2 18q-3 28 -16 49q-9 15 -21 19q-28 9 -47 6q-14 -2 -14 -15q0 -4 0.5 -12t0.5 -11q0 -44 -1 -67q0 -7 -0.5 -14t-1.5 -16t-1 -14q0 -7 -2 -23q-2 -18 18 -15q2 0 4 1t4 1q5 1 44 25q30 20 35 68z" />
    <glyph glyph-name="germandbls" unicode="&#xdf;" horiz-adv-x="589" 
d="M163 -105l-58 -3l-45 3q-3 0 -8 1.5t-6 1.5q-12 4 -15 18q-9 29 -3 79l9 69v24q2 46 2 69q0 9 -0.5 26t-0.5 25q0 31 1 47q2 45 4 55l4 30l8 69q9 66 16 82q23 61 70 108q5 5 7 6l26 13t31 15q20 9 45 14q36 7 72 12q22 3 58 -6q37 -10 54 -16q9 -3 21 -11q51 -39 73 -94
q8 -22 10 -56q2 -24 0 -48q-5 -47 -28 -78q-2 -3 -24 -25l-13 -12q-15 -17 -3 -33l21 -23q6 -6 24 -22t27 -25q18 -20 21 -50q8 -47 -21 -91q-42 -69 -125 -106q-15 -6 -56 -12q-8 -1 -16.5 -1.5t-18.5 -1t-16 -0.5q-11 0 -14.5 3.5t-5.5 13.5q-1 7 -1 20l-2 60q0 6 -2 15.5
t-2 13.5q-3 20 17 23q29 4 71 38q15 13 15 35q-1 13 -10 25q-15 15 -33 22q-35 12 -62 47q-10 13 -10 32v4q-4 33 27 54q10 7 34 20l27 15q33 21 24 57q-10 40 -51 49q-36 7 -67 -13q-24 -17 -28 -45l-10 -49q-3 -16 -10 -66q-1 -14 -2 -39t-2 -39t-3 -39.5t-2 -38.5
q-1 -15 -1 -43q0 -11 -0.5 -34t-0.5 -34q0 -5 1 -14t1 -13q1 -7 1 -18q0 -25 -2 -75q0 -14 -4 -26q-3 -12 -16 -13q-4 0 -12 -0.5t-12 -0.5z" />
    <glyph glyph-name="agrave" unicode="&#xe0;" horiz-adv-x="605" 
d="M571 73l4 -38q0 -8 -2.5 -11t-10.5 -5l-27 -3q-22 -2 -30 -2q-6 0 -17.5 0.5t-16.5 0.5q-21 0 -32 -1q-23 -3 -26 20l-13 74l-9 63q-3 15 -7 19.5t-20 9.5q-37 8 -66 8q-27 0 -42 1q-10 1 -13.5 -1.5t-4.5 -12.5q-1 -5 -4.5 -33t-4.5 -44q-1 -20 -7 -60q-2 -18 -5 -27
q-4 -15 -22 -17l-84 -8q-11 -2 -32.5 -3t-32.5 -2q-6 0 -8 1q-15 2 -12 17q2 6 4 19t3 19l22 111q3 15 8.5 41.5t7.5 35.5l21 100q3 11 5 37q14 82 29 142l23 96q1 8 5 17q6 23 30 24q69 8 102 5q11 -2 32.5 -2t31.5 -2l60 -8l70 -8q9 -1 13.5 -2t7.5 -6t3 -7t2 -12l8 -66
q2 -33 5 -49q7 -79 10 -95q2 -14 7 -40.5t7 -39.5l8 -51q4 -24 6 -49l3 -30l3 -30q1 -12 3 -35.5t4 -35.5q0 -17 1 -25zM373 362v1q0 1 -0.5 1t-0.5 1l-9 72q-7 34 -10 46t-15 14q-18 2 -27 2q-11 0 -16 -12q-2 -4 -3.5 -13t-2.5 -13q-4 -15 -16 -86q-5 -11 -6 -21
q-1 -8 2.5 -12t11.5 -3q5 0 6 1l71 4q15 2 15 18zM200 926q6 -2 18 -3.5t19 -2.5l56 -8q14 -2 18 -16l9 -45q16 -62 23 -93l2 -10q3 -15 -12 -18l-56 -9q-19 -4 -32 14l-86 140q-13 20 -14 23q-12 20 10 24l5 2q8 0 40 2z" />
    <glyph glyph-name="aacute" unicode="&#xe1;" horiz-adv-x="605" 
d="M417 931q32 -2 40 -2l5 -2q22 -4 10 -24q-2 -3 -14 -23l-86 -140q-13 -18 -32 -14l-56 9q-15 3 -12 18v1q1 2 1.5 4.5t0.5 4.5q7 31 23 93l9 45q4 14 18 16l56 8q7 1 19 2.5t18 3.5zM575 35l-4 38q-1 8 -1 25q-2 12 -4 35.5t-3 35.5l-3 30l-3 30q-2 25 -6 49l-8 51
q-2 13 -7 39.5t-7 40.5q-3 16 -10 95q-3 16 -5 49l-8 66q-2 10 -2 12t-3 7t-7.5 6t-13.5 2l-70 8l-60 8q-10 2 -31.5 2t-32.5 2q-33 3 -102 -5q-24 -1 -30 -24q-4 -9 -5 -17l-23 -96q-15 -60 -29 -142q-2 -26 -5 -37l-21 -100q-2 -9 -7.5 -35.5t-8.5 -41.5l-22 -111
q-1 -6 -3 -19t-4 -19q-3 -15 12 -17q2 -1 8 -1q11 1 32.5 2t32.5 3l84 8q18 2 22 17q3 9 5 27q6 40 7 60q1 16 4.5 44t4.5 33q1 10 4.5 12.5t13.5 1.5q15 -1 42 -1q29 0 66 -8q16 -5 20 -9.5t7 -19.5l9 -63l13 -74q3 -23 26 -20q11 1 32 1q5 0 16.5 -0.5t17.5 -0.5q8 0 30 2
h11q11 1 16 3q8 2 10.5 5t2.5 11zM373 362q0 -16 -15 -18l-71 -4q-1 -1 -6 -1q-8 -1 -11.5 3t-2.5 12q1 10 6 21q12 71 16 86q1 4 2.5 13t3.5 13q5 12 16 12q9 0 27 -2q12 -2 15 -14t10 -46l9 -72q0 -1 0.5 -1t0.5 -1v-1z" />
    <glyph glyph-name="acircumflex" unicode="&#xe2;" horiz-adv-x="605" 
d="M571 73l4 -38q0 -8 -2.5 -11t-10.5 -5l-27 -3q-22 -2 -30 -2q-6 0 -17.5 0.5t-16.5 0.5q-21 0 -32 -1q-23 -3 -26 20l-13 74l-9 63q-3 15 -7 19.5t-20 9.5q-37 8 -66 8q-27 0 -42 1q-10 1 -13.5 -1.5t-4.5 -12.5q-1 -5 -4.5 -33t-4.5 -44q-1 -20 -7 -60q-2 -18 -5 -27
q-4 -15 -22 -17l-84 -8q-11 -2 -32.5 -3t-32.5 -2q-6 0 -8 1q-15 2 -12 17q2 6 4 19t3 19l22 111q3 15 8.5 41.5t7.5 35.5l21 100q3 11 5 37q14 82 29 142l23 96q1 8 5 17q6 23 30 24q69 8 102 5q11 -2 32.5 -2t31.5 -2l60 -8l70 -8q9 -1 13.5 -2t7.5 -6t3 -7t2 -12l8 -66
q2 -33 5 -49q7 -79 10 -95q2 -14 7 -40.5t7 -39.5l8 -51q4 -24 6 -49l3 -30l3 -30q1 -12 3 -35.5t4 -35.5q0 -17 1 -25zM373 362v1q0 1 -0.5 1t-0.5 1l-9 72q-7 34 -10 46t-15 14q-18 2 -27 2q-11 0 -16 -12q-2 -4 -3.5 -13t-2.5 -13q-4 -15 -16 -86q-5 -11 -6 -21
q-1 -8 2.5 -12t11.5 -3q5 0 6 1l71 4q15 2 15 18zM367 933v-1q4 0 11.5 -0.5t11.5 -0.5q17 0 27 -16q13 -22 48 -103q1 -4 5.5 -14t6.5 -16q3 -7 8.5 -21t9.5 -22q9 -23 -13 -24l-32 -2q-57 -3 -58 -3q-17 -2 -23 13q-1 2 -6 11t-7 14q-6 11 -16.5 30.5t-14.5 27.5l-6 7
q-8 8 -11 -1q-9 -13 -14 -28l-19 -54q-5 -15 -21 -15q-75 3 -77 3h-9t-9 1q-10 1 -10 15q3 12 4 13q13 31 31 93q10 31 38 71q5 9 17 13q33 7 56 7q5 0 17 1t18 1h37z" />
    <glyph glyph-name="atilde" unicode="&#xe3;" horiz-adv-x="605" 
d="M571 73l4 -38q0 -8 -2.5 -11t-10.5 -5l-27 -3q-22 -2 -30 -2q-6 0 -17.5 0.5t-16.5 0.5q-21 0 -32 -1q-23 -3 -26 20l-13 74l-9 63q-3 15 -7 19.5t-20 9.5q-37 8 -66 8q-27 0 -42 1q-10 1 -13.5 -1.5t-4.5 -12.5q-1 -5 -4.5 -33t-4.5 -44q-1 -20 -7 -60q-2 -18 -5 -27
q-4 -15 -22 -17l-84 -8q-11 -2 -32.5 -3t-32.5 -2q-6 0 -8 1q-15 2 -12 17q2 6 4 19t3 19l22 111q3 15 8.5 41.5t7.5 35.5l21 100q3 11 5 37q14 82 29 142l23 96q1 8 5 17q6 23 30 24q69 8 102 5q11 -2 32.5 -2t31.5 -2l60 -8l70 -8q9 -1 13.5 -2t7.5 -6t3 -7t2 -12l8 -66
q2 -33 5 -49q7 -79 10 -95q2 -14 7 -40.5t7 -39.5l8 -51q4 -24 6 -49l3 -30l3 -30q1 -12 3 -35.5t4 -35.5q0 -17 1 -25zM373 362v1q0 1 -0.5 1t-0.5 1l-9 72q-7 34 -10 46t-15 14q-18 2 -27 2q-11 0 -16 -12q-2 -4 -3.5 -13t-2.5 -13q-4 -15 -16 -86q-5 -11 -6 -21
q-1 -8 2.5 -12t11.5 -3q5 0 6 1l71 4q15 2 15 18zM471 950l55 -3q17 -2 17 -18q0 -25 -2 -75q0 -37 -16 -70q-5 -10 -12 -18q-24 -29 -75 -42q-10 -3 -15 -4q-25 -9 -65 0q-42 10 -60 50q-3 6 -9 18.5t-10 19.5q-4 9 -12 14q-16 10 -21 -9q-3 -13 -3 -28q0 -2 3 -23
q2 -15 -12 -17q-8 -1 -48 -4h-52q-12 0 -15 11q-3 8 -3 14q-8 66 -8 73q0 35 21 60q25 31 65 40q8 3 27 3q15 -1 46 1q26 1 55 -19q21 -19 33 -54q1 -3 3 -10t4 -10l3 -10q5 -11 15.5 -11.5t16.5 9.5q13 22 14 40v53q0 15 14 16q8 2 37 2h8z" />
    <glyph glyph-name="adieresis" unicode="&#xe4;" horiz-adv-x="605" 
d="M571 73l4 -38q0 -8 -2.5 -11t-10.5 -5l-27 -3q-22 -2 -30 -2q-6 0 -17.5 0.5t-16.5 0.5q-21 0 -32 -1q-23 -3 -26 20l-13 74l-9 63q-3 15 -7 19.5t-20 9.5q-37 8 -66 8q-27 0 -42 1q-10 1 -13.5 -1.5t-4.5 -12.5q-1 -5 -4.5 -33t-4.5 -44q-1 -20 -7 -60q-2 -18 -5 -27
q-4 -15 -22 -17l-84 -8q-11 -2 -32.5 -3t-32.5 -2q-6 0 -8 1q-15 2 -12 17q2 6 4 19t3 19l22 111q3 15 8.5 41.5t7.5 35.5l21 100q3 11 5 37q14 82 29 142l23 96q1 8 5 17q6 23 30 24q69 8 102 5q11 -2 32.5 -2t31.5 -2l60 -8l70 -8q9 -1 13.5 -2t7.5 -6t3 -7t2 -12l8 -66
q2 -33 5 -49q7 -79 10 -95q2 -14 7 -40.5t7 -39.5l8 -51q4 -24 6 -49l3 -30l3 -30q1 -12 3 -35.5t4 -35.5q0 -17 1 -25zM373 362v1q0 1 -0.5 1t-0.5 1l-9 72q-7 34 -10 46t-15 14q-18 2 -27 2q-11 0 -16 -12q-2 -4 -3.5 -13t-2.5 -13q-4 -15 -16 -86q-5 -11 -6 -21
q-1 -8 2.5 -12t11.5 -3q5 0 6 1l71 4q15 2 15 18zM344 794q1 9 1.5 25t2.5 24q4 21 24 22l84 4q16 1 21 -17q12 -41 7 -89l-2 -17q-3 -16 -16 -17q-24 -3 -25 -3q-21 -4 -49 -4q-4 0 -26 2q-15 3 -16 18q-1 9 -2.5 26.5t-3.5 25.5zM158 797v44q0 12 3.5 17t14.5 7q20 5 38 6
q29 2 48 -3q16 -4 16 -21q0 -25 -1 -38q0 -17 -2 -55v-8q0 -20 -19 -20q-8 0 -22 0.5t-21 0.5q-12 0 -36 -2q-16 -1 -17 12q-1 7 -1.5 14.5t-1 16.5t-0.5 14q0 2 0.5 7t0.5 8z" />
    <glyph glyph-name="aring" unicode="&#xe5;" horiz-adv-x="605" 
d="M353 879q31 3 60 -19q8 -5 14 -12q4 -2 10 -8l6 -5q22 -18 33 -44q14 -36 18 -76q3 -24 -3 -47l-3 -10q-3 -8 4 -12q13 -8 15 -27q2 -11 3.5 -32.5t3.5 -32.5l9 -93q6 -59 13 -89q9 -46 15 -94q1 -8 3 -24.5t4 -24.5q3 -20 5 -59l3 -36t4 -36q0 -12 1 -15l3 -34
q0 -2 0.5 -5.5t0.5 -4.5q1 -11 -2.5 -15t-14.5 -6q-30 -2 -42 -2h-31t-32 -1q-12 0 -15 -1q-20 -1 -25 20q-7 38 -17 104l-7 42q-2 15 -17 18q-33 10 -73 10q-13 0 -43 2q-10 0 -13 -2.5t-5 -11.5q-2 -7 -3 -19.5t-2 -18.5q-2 -8 -4 -44q-1 -38 -13 -83q-3 -15 -20 -17
l-86 -8l-63 -4h-9q-15 2 -12 17q3 20 14 74l14 68q4 14 9.5 43t8.5 43l20 98q2 7 3 20t3 21q10 70 28 136q4 14 10 41.5t9 41.5l8 29q3 12 12 21t6 20q-1 5 -2 14t-3 13q-5 32 1 59q9 36 29 55l34 32q20 16 45 21q60 10 78 10zM320 500q-14 0 -19 -3.5t-8 -15.5q0 -1 -1 -5
t-2 -7.5t-1 -7.5l-16 -86q-4 -10 -6 -22q-1 -8 2.5 -11.5t11.5 -2.5l37 3l42 3q13 1 13 15q0 5 -1 6q-3 36 -9 72q-6 30 -10 45q-3 14 -16 15q-3 0 -9 0.5t-8 1.5zM376 708v5q0 2 -1 3q-5 27 -36 45q-11 5 -21 3q-22 -3 -25 -22q-2 -12 1 -19q7 -29 38 -44q15 -7 29.5 1
t14.5 28z" />
    <glyph glyph-name="ae" unicode="&#xe6;" horiz-adv-x="765" 
d="M369 185h-55h-48h-6q-11 -1 -15.5 -4.5t-7.5 -14.5q-4 -12 -9 -35.5t-8 -35.5q-3 -11 -8.5 -32t-9.5 -32q-3 -17 -18 -18q-28 -6 -54 -10q-32 -2 -47 -2l-48 4q-13 1 -12 15q0 3 2 11l16 73q12 62 37 130q11 27 17 63q24 103 41 144q5 12 11.5 36t7.5 29l15 57
q7 20 15 62q2 4 3.5 11t2.5 11q4 12 16 15q43 9 55 9q4 -1 25 2q16 3 32 0l32 -2q8 -1 29.5 -3t32.5 -4q25 -6 37 -3q24 2 38 5l21 2q68 8 125 4q10 0 13 -1q14 -3 16 -17t2 -19q2 -14 4 -82v-14q0 -18 -18 -21q-9 -2 -66 -9q-8 -1 -48 -4q-12 -1 -12 -14l1 -13
q0 -14 -1 -14l-3 -43q0 -7 1 -10q2 -8 10 -8t24 2l23 3q0 1 9 0.5t10 -0.5q2 0 6 -0.5t6 -0.5h69q17 0 21 -16q2 -7 4 -30q3 -30 -2 -78q-2 -12 -12 -16q-8 -2 -11 -2q-47 -2 -90 -14q-4 -1 -28 -4l-23 -2q-12 -1 -12 -13q2 -33 4 -42q3 -11 14 -9l56 8l34 3q32 2 46 2
q22 0 39 -4q11 -2 13 -13q8 -29 8 -33q0 -37 -2 -111q0 -12 -5 -27q-4 -16 -21 -19q-27 -4 -60 -1l-36 3q-70 2 -105 2l-88 2q-13 0 -22 4q-13 3 -15 17q-3 21 -3 41q-1 11 0 30t1 25q0 20 -2 62q0 13 -14 13zM387 361v81q0 13 -2 43q0 14 -15 14h-33q-15 -1 -19.5 -4.5
t-8.5 -18.5l-22 -91l-10 -47q-4 -17 13 -19q22 -2 33 -2q6 0 19.5 0.5t21.5 0.5h3q17 2 18 18q2 16 2 25z" />
    <glyph glyph-name="ccedilla" unicode="&#xe7;" horiz-adv-x="453" 
d="M419 53v-25q2 -17 -17 -22q-6 -2 -17.5 -3.5t-17.5 -2.5q-9 -1 -29 -3.5t-29 -3.5q-1 0 -9 -2q-9 -3 -9 -12q-1 -15 2.5 -19t18.5 -6q4 0 9 -0.5t9 -0.5q31 -1 55 -32q34 -45 29 -105q-1 -27 -20 -52q-30 -47 -76 -69q-41 -16 -69 -16q-42 0 -56 3l-12 2q-11 4 -13 16
l-3 66q0 8 1 10q3 15 19 15q9 1 28 -1q43 -1 76 37q7 10 5.5 21.5t-9.5 17.5q-3 2 -22 5q-22 0 -33 -1l-46 -4q-16 -2 -18 15q-3 41 0 81q2 27 -3 54q-1 7 -9 13q-15 12 -28 20q-24 14 -45 44q-5 8 -14 24.5t-15 24.5q-5 9 -8 18t-5.5 22.5t-3.5 18.5q-10 35 -10 118
q0 56 10 106q11 69 47 127q26 40 36 50q12 12 44 34q32 21 71 38q19 8 57 16q18 4 42 1q6 -1 12.5 -1.5t14.5 -1t12 -0.5l24 -4q18 -5 18 -23q-1 -44 -8 -100q0 -2 -3 -11q-4 -12 -18 -15l-84 -12l-17 -2q-58 -11 -86 -63q-18 -31 -18 -68q-2 -62 21 -113l20 -44
q19 -35 43 -46q22 -8 35 -8q20 -1 58 -7q8 -2 34 0q20 2 23 -18l8 -100q-1 -1 -2 -1z" />
    <glyph glyph-name="egrave" unicode="&#xe8;" horiz-adv-x="487" 
d="M406 602l3 -53v-6q-1 -13 -14 -16q-7 -1 -16 -1q-21 -3 -92 -5q-34 -2 -51 -5q-11 -2 -13.5 -5.5t-2.5 -15.5q-2 -19 0 -39q0 -26 2 -33q1 -12 13 -13q1 -1 9 -0.5t9 0.5h47q29 0 44 -1q39 -1 77 -6q19 -2 20 -21l6 -78q2 -14 2 -22q0 -14 -13 -17q-47 -7 -54 -7
q-4 0 -9.5 0.5t-8.5 0.5q-32 1 -110 -10l-25 -3q-12 -4 -12 -13q-2 -24 -2 -35q-1 -8 -1 -23q0 -13 17 -15q25 -2 44 2q21 4 64 4h46t45 -1q9 0 12 -1q11 -3 13 -15v-13q0 -2 1.5 -24.5t1.5 -33.5q1 -12 -1 -35v-12q-2 -14 -14 -16q-17 -3 -50 -5h-18.5t-18.5 -1l-33 -3
q-23 -3 -68 -3q-63 5 -120 -8q-34 -7 -55 -4q-9 1 -28 -1q-9 -1 -14.5 4t-4.5 14q2 25 5 38v7v78q2 66 5 101q1 42 6 86l9 118q7 86 7 111q1 26 7 76l3 27q2 23 24 24h15q12 1 34 1q6 0 17 -0.5t17 -0.5q60 3 61 3q15 1 45 -1q46 -6 68 -5q10 1 30 -1q16 0 19 -15
q2 -7 2 -30q0 -15 -1 -23zM145 946q6 -2 18 -3.5t19 -2.5l56 -8q14 -2 18 -16l9 -45q16 -62 23 -93l2 -10q3 -15 -12 -18l-56 -9q-19 -4 -32 14l-86 140q-13 20 -14 23q-12 20 10 24l5 2q8 0 40 2z" />
    <glyph glyph-name="eacute" unicode="&#xe9;" horiz-adv-x="487" 
d="M406 602q1 8 1 23q0 23 -2 30q-3 15 -19 15q-20 2 -30 1q-22 -1 -68 5q-30 2 -45 1q-1 0 -61 -3q-6 0 -17 0.5t-17 0.5q-22 0 -34 -1h-15q-22 -1 -24 -24l-3 -27q-6 -50 -7 -76q0 -25 -7 -111l-9 -118q-5 -44 -6 -86q-3 -35 -5 -101v-78v-7q-3 -13 -5 -38q-1 -9 4.5 -14
t14.5 -4q19 2 28 1q21 -3 55 4q57 13 120 8q45 0 68 3l33 3q6 1 18.5 1h18.5q33 2 50 5q12 2 14 16v12q2 23 1 35q0 8 -0.5 18t-1.5 21.5t-1 18.5v13q-2 12 -13 15q-3 1 -12 1q-15 1 -45 1h-46q-43 0 -64 -4q-19 -4 -44 -2q-17 2 -17 15q0 15 1 23q0 11 2 35q0 9 12 13l25 3
q78 11 110 10q3 0 8.5 -0.5t9.5 -0.5q7 0 54 7q13 3 13 17q0 8 -2 22l-6 78q-1 19 -20 21q-38 5 -77 6q-15 1 -44 1h-47q-1 0 -9 -0.5t-9 0.5q-12 1 -13 13q-2 7 -2 33q-2 20 0 39q0 12 2.5 15.5t13.5 5.5q17 3 51 5q71 2 92 5q9 0 16 1q13 3 14 16v6zM344 940q32 -2 40 -2
l5 -2q22 -4 10 -24q-1 -3 -14 -23l-86 -140q-13 -18 -32 -14l-56 9q-15 3 -12 18l2 10q7 31 23 93l9 45q4 14 18 16l56 8q7 1 19 2.5t18 3.5z" />
    <glyph glyph-name="ecircumflex" unicode="&#xea;" horiz-adv-x="487" 
d="M406 602l3 -53v-6q-1 -13 -14 -16q-7 -1 -16 -1q-21 -3 -92 -5q-34 -2 -51 -5q-11 -2 -13.5 -5.5t-2.5 -15.5q-2 -19 0 -39q0 -26 2 -33q1 -12 13 -13q1 -1 9 -0.5t9 0.5h47q29 0 44 -1q39 -1 77 -6q19 -2 20 -21l6 -78q2 -14 2 -22q0 -14 -13 -17q-47 -7 -54 -7
q-4 0 -9.5 0.5t-8.5 0.5q-32 1 -110 -10l-25 -3q-12 -4 -12 -13q-2 -24 -2 -35q-1 -8 -1 -23q0 -13 17 -15q25 -2 44 2q21 4 64 4h46t45 -1q9 0 12 -1q11 -3 13 -15v-13q0 -2 1.5 -24.5t1.5 -33.5q1 -12 -1 -35v-12q-2 -14 -14 -16q-17 -3 -50 -5h-18.5t-18.5 -1l-33 -3
q-23 -3 -68 -3q-63 5 -120 -8q-34 -7 -55 -4q-9 1 -28 -1q-9 -1 -14.5 4t-4.5 14q2 25 5 38v7v78q2 66 5 101q1 42 6 86l9 118q7 86 7 111q1 26 7 76l3 27q2 23 24 24h15q12 1 34 1q6 0 17 -0.5t17 -0.5q60 3 61 3q15 1 45 -1q46 -6 68 -5q10 1 30 -1q16 0 19 -15
q2 -7 2 -30q0 -15 -1 -23zM279 948v-1q4 0 11.5 -0.5t11.5 -0.5q17 0 27 -16q13 -22 48 -103q1 -4 5.5 -14t6.5 -16q4 -7 9.5 -21t8.5 -22q9 -23 -13 -24l-32 -2q-57 -3 -58 -3q-17 -2 -23 13q-1 2 -6 11t-7 14q-6 11 -16.5 30.5t-14.5 27.5l-6 7q-8 8 -11 -1
q-9 -13 -14 -28l-19 -54q-5 -15 -21 -15q-75 3 -77 3q-4 1 -9.5 1h-8.5q-10 1 -10 15q3 11 4 13q13 31 31 93q10 31 38 71q5 9 17 13q33 7 56 7q5 0 17 1t18 1h37z" />
    <glyph glyph-name="edieresis" unicode="&#xeb;" horiz-adv-x="487" 
d="M406 602l3 -53v-6q-1 -13 -14 -16q-7 -1 -16 -1q-21 -3 -92 -5q-34 -2 -51 -5q-11 -2 -13.5 -5.5t-2.5 -15.5q-2 -19 0 -39q0 -26 2 -33q1 -12 13 -13q1 -1 9 -0.5t9 0.5h47q29 0 44 -1q39 -1 77 -6q19 -2 20 -21l6 -78q2 -14 2 -22q0 -14 -13 -17q-47 -7 -54 -7
q-4 0 -9.5 0.5t-8.5 0.5q-32 1 -110 -10l-25 -3q-12 -4 -12 -13q-2 -24 -2 -35q-1 -8 -1 -23q0 -13 17 -15q25 -2 44 2q21 4 64 4h46t45 -1q9 0 12 -1q11 -3 13 -15v-13q0 -2 1.5 -24.5t1.5 -33.5q1 -12 -1 -35v-12q-2 -14 -14 -16q-17 -3 -50 -5h-18.5t-18.5 -1l-33 -3
q-23 -3 -68 -3q-63 5 -120 -8q-34 -7 -55 -4q-9 1 -28 -1q-9 -1 -14.5 4t-4.5 14q2 25 5 38v7v78q2 66 5 101q1 42 6 86l9 118q7 86 7 111q1 26 7 76l3 27q2 23 24 24h15q12 1 34 1q6 0 17 -0.5t17 -0.5q60 3 61 3q15 1 45 -1q46 -6 68 -5q10 1 30 -1q16 0 19 -15
q2 -7 2 -30q0 -15 -1 -23zM274 803q1 9 1.5 25t2.5 24q4 21 24 22l84 4q16 1 21 -17q12 -41 7 -89l-2 -17q-3 -16 -16 -17q-24 -3 -25 -3q-21 -4 -49 -4q-4 0 -26 2q-15 3 -16 18q-1 9 -2.5 26.5t-3.5 25.5zM88 806v44q0 12 3.5 17t14.5 7q20 5 38 6q29 2 48 -3
q16 -4 16 -21q0 -25 -1 -38q0 -17 -2 -55v-8q0 -20 -19 -20q-8 0 -22 0.5t-21 0.5q-12 0 -36 -2q-16 -1 -17 12q-1 7 -1.5 14.5t-1 16.5t-0.5 14q0 3 0.5 8t0.5 7z" />
    <glyph glyph-name="igrave" unicode="&#xec;" 
d="M37 118q0 8 0.5 23.5t0.5 22.5q0 8 -1 23.5t-1 23.5q-1 0 0 18v18v15q2 43 1 51q-1 9 0 25t1 21v59t1 59l4 125q1 12 1 37q1 15 15 20q14 2 15 2q29 1 69 -5q8 -2 23 -2t22 -2h6q15 0 21 -6t7 -21q0 -69 -11 -144q-10 -45 -4 -95q1 -4 1 -11v-10q0 -13 2 -40t3 -41v-23
v-27.5v-23.5v-5q-2 -72 -2 -107q0 -36 1 -53q0 -18 -6 -24t-23 -5l-60 2q-9 0 -28.5 -0.5t-29.5 -0.5q-3 -2 -8 0q-14 1 -16 16l-3 35q0 9 -0.5 25.5t-0.5 24.5zM26 920q6 -2 18 -3.5t19 -2.5l56 -8q14 -2 18 -16l9 -45q16 -62 23 -93q0 -2 1 -5l1 -5q3 -15 -12 -18l-56 -9
q-19 -4 -32 14l-86 140q-13 20 -14 23q-12 20 10 24l5 2q8 0 40 2z" />
    <glyph glyph-name="iacute" unicode="&#xed;" 
d="M37 118q0 -8 0.5 -24.5t0.5 -25.5l3 -35q2 -15 16 -16q5 -2 8 0q10 0 29.5 0.5t28.5 0.5l60 -2q17 -1 23 5t6 24q-1 17 -1 53q0 35 2 107v5v23.5v27.5v23q-1 14 -3 41t-2 40v10t-1 11q-6 50 4 95q11 75 11 144q-1 15 -7 21t-21 6h-6q-7 2 -22 2t-23 2q-40 6 -69 5
q-1 0 -15 -2q-14 -5 -15 -20q0 -25 -1 -37l-4 -125q-1 -19 -1 -59v-59q0 -5 -1 -21t0 -25q1 -8 -1 -51v-15v-18q-1 -18 0 -18q0 -8 1 -23.5t1 -23.5q0 -7 -0.5 -22.5t-0.5 -23.5zM229 920q32 -2 40 -2l5 -2q22 -4 10 -24q-1 -3 -14 -23l-86 -140q-13 -18 -32 -14l-56 9
q-15 3 -12 18l2 10q7 31 23 93l9 45q4 14 18 16l56 8q7 1 19 2.5t18 3.5z" />
    <glyph glyph-name="icircumflex" unicode="&#xee;" 
d="M37 118q0 8 0.5 23.5t0.5 22.5q0 8 -1 23.5t-1 23.5q-1 0 0 18v18v15q2 43 1 51q-1 9 0 25t1 21v59t1 59l4 125q1 12 1 37q1 15 15 20q14 2 15 2q29 1 69 -5q8 -2 23 -2t22 -2h6q15 0 21 -6t7 -21q0 -69 -11 -144q-10 -45 -4 -95q1 -4 1 -11v-10q0 -13 2 -40t3 -41v-23
v-27.5v-23.5v-5q-2 -72 -2 -107q0 -36 1 -53q0 -18 -6 -24t-23 -5l-60 2q-9 0 -28.5 -0.5t-29.5 -0.5q-3 -2 -8 0q-14 1 -16 16l-3 35q0 9 -0.5 25.5t-0.5 24.5zM170 928v-1q4 0 11.5 -0.5t11.5 -0.5q17 0 27 -16q13 -22 48 -103q1 -4 5.5 -14t6.5 -16q3 -8 9 -22l9 -21
q9 -23 -13 -24l-32 -2q-57 -3 -58 -3q-17 -2 -23 13q-1 2 -6 11t-7 14q-6 11 -16.5 30.5t-14.5 27.5l-6 7q-8 8 -11 -1q-9 -13 -14 -28l-19 -54q-4 -15 -21 -15q-75 3 -77 3q-4 1 -9.5 1h-8.5q-10 1 -10 15q3 11 4 13q13 31 31 93q10 31 38 71q5 9 17 13q33 7 56 7q6 0 18 1
t17 1h37z" />
    <glyph glyph-name="idieresis" unicode="&#xef;" 
d="M37 118q0 8 0.5 23.5t0.5 22.5q0 8 -1 23.5t-1 23.5q-1 0 0 18v18v15q2 43 1 51q-1 9 0 25t1 21v59t1 59l4 125q1 12 1 37q1 15 15 20q14 2 15 2q29 1 69 -5q8 -2 23 -2t22 -2h6q15 0 21 -6t7 -21q0 -69 -11 -144q-10 -45 -4 -95q1 -4 1 -11v-10q0 -13 2 -40t3 -41v-23
v-27.5v-23.5v-5q-2 -72 -2 -107q0 -36 1 -53q0 -18 -6 -24t-23 -5l-60 2q-9 0 -28.5 -0.5t-29.5 -0.5q-3 -2 -8 0q-14 1 -16 16l-3 35q0 9 -0.5 25.5t-0.5 24.5zM147 783q1 9 1.5 25t2.5 24q4 21 24 22l84 4q16 1 21 -17q12 -41 7 -89l-2 -17q-3 -16 -16 -17q-24 -3 -25 -3
q-21 -4 -49 -4q-4 0 -26 2q-15 3 -16 18q-1 9 -2.5 26.5t-3.5 25.5zM-39 786v44q0 12 3.5 17t14.5 7q20 5 38 6q29 2 48 -3q16 -4 16 -21q0 -25 -1 -38q0 -17 -2 -55v-8q0 -20 -19 -20q-7 0 -21 0.5t-22 0.5q-12 0 -36 -2q-16 -1 -17 12l-3 45q0 3 0.5 8t0.5 7z" />
    <glyph glyph-name="eth" unicode="&#xf0;" horiz-adv-x="557" 
d="M231 708q38 3 110 -17q28 -7 44 -16q32 -18 59 -48q21 -23 41 -62q19 -34 28 -58q18 -45 19 -86q5 -54 -5 -95q-2 -9 -10 -60q-5 -23 -17 -51q-14 -40 -29 -63q-3 -3 -4 -6q-15 -35 -74 -90q-19 -19 -79 -51q-18 -10 -62 -20q-34 -9 -82 -14q-17 -1 -50 -1
q-4 0 -11.5 -0.5t-10.5 -0.5q-12 -1 -17 2.5t-8 14.5q-12 41 -16 74l-9 75q-4 34 -10 92q0 2 -0.5 7.5t-0.5 9.5q-1 10 -11 12q-7 1 -19 1q-11 0 -15 3.5t-6 14.5q-3 17 -3 32q-1 39 3 79q3 21 21 21h13q17 1 18 17l3 46q1 14 3.5 42t3.5 42q0 12 1 19q1 14 3 42.5t3 42.5
q1 18 20 25q17 6 31 10q66 19 125 15zM228 524q-19 -3 -20 -3q-19 -4 -19 -24v-5q0 -14 2 -40q0 -12 2 -34q0 -8 11 -12q9 0 12 -1q12 0 19 -1q15 -3 17 -20q1 -1 1 -7q-2 -50 -2 -77l-2 -25q0 -15 -15 -18q-8 -1 -24 -1q-12 -1 -13 -13q0 -4 2 -14q2 -32 4 -38
q3 -18 16 -15q47 7 58 11l28 11q26 10 44 31q40 46 48 112q2 23 -4 37l-14 44q-12 26 -13 28q-28 42 -57 52l-9 4q-32 17 -72 18z" />
    <glyph glyph-name="ntilde" unicode="&#xf1;" horiz-adv-x="654" 
d="M216 359q-3 -4 -4 -8t-0.5 -8t-0.5 -8q-1 -15 -2 -46t-3 -46l-4 -37l-4 -55q-1 -27 -1 -77q0 -31 -1 -47q0 -22 -23 -24h-16l-74 -4q-5 0 -16 -0.5t-16 -0.5q-16 0 -16 16q-2 17 0 34q1 9 5 47t5 58q0 9 0.5 27t0.5 27l4 56q2 34 2 51q2 17 4 90v15l2 52v36q2 16 3 47.5
t3 47.5q1 13 7 39q3 14 19 14q5 1 16.5 1h17.5q13 0 37 2q32 2 38 2q8 -1 23 -1q17 0 24 -16q8 -21 9 -23q20 -38 29 -51q22 -34 35 -65q12 -25 22 -38q25 -32 69 -99q3 -5 11 -15q2 -3 12 -13q3 3 5 9q2 10 2 12v58q0 11 0.5 30.5t1 36t1.5 31.5q1 11 0 31t-1 26
q0 9 0.5 26t0.5 27q1 4 1 13q0 17 15 18t45 1q4 0 13 -0.5t15 -0.5q5 0 14 -1t16 -1.5t14 -0.5q17 -2 23 -17q6 -11 6 -42q0 -32 1 -49l4 -69q1 -11 4 -73q3 -68 2 -82q-2 -33 2 -56v-9l-2 -34q0 -6 -1 -18t-1.5 -21.5t-0.5 -17.5q-1 -9 -1 -25.5v-24.5q0 -1 -3 -37
q-1 -7 -3 -20.5t-4 -20.5q-1 -13 -15 -19q-33 -12 -72 -18h-21l-41 2l-21 2q-14 2 -20 15l-14 31l-31 55q-3 6 -8 17.5t-9 17.5l-14 34q-8 17 -16 30l-43 67q-8 14 -24.5 39t-24.5 38q-4 7 -12 10zM479 939l55 -3q17 -2 17 -18q0 -25 -2 -75q0 -37 -16 -70q-5 -11 -12 -18
q-24 -29 -75 -42q-10 -3 -15 -4q-25 -9 -65 0q-42 10 -60 50q-3 6 -9 18.5t-10 19.5q-4 9 -12 14q-16 10 -21 -9q-3 -14 -3 -28q0 -2 3 -23q2 -15 -12 -17q-8 -2 -48 -4h-52q-12 0 -15 11q-3 7 -3 14q-8 66 -8 73q0 34 21 60q25 31 65 40q8 3 27 3q15 -1 46 1q26 1 55 -19
q21 -19 33 -54q2 -3 3.5 -9.5t3.5 -10.5l3 -10q5 -11 15.5 -11.5t16.5 9.5q13 22 14 40v53q0 15 14 16q8 2 37 2h8z" />
    <glyph glyph-name="ograve" unicode="&#xf2;" horiz-adv-x="639" 
d="M29 300h-1q2 16 2.5 48.5t2.5 48.5q7 57 27 110q20 51 38 78q31 48 82 68q30 12 67 17q5 1 48 1q6 0 19 -0.5t21 -0.5q24 -3 29 -4q41 -11 76 -26q49 -23 86 -60q16 -16 38 -56q23 -44 39 -113q11 -50 8 -92q-1 -16 -1 -46q1 -20 -7 -58q-11 -42 -42 -87q-4 -7 -12 -17
l-22 -24q-9 -10 -71 -59q-48 -35 -88 -40l-65 -9q-78 -5 -127 36q-7 6 -20 16t-23.5 18.5t-19.5 16.5q-31 28 -58 87q-21 50 -26 107v40zM446 338v16q-1 16 -3 24l-8 39q-19 73 -91 94q-13 2 -19 1q-15 0 -32 -3l-12 -3t-12 -4q-39 -20 -58 -56q-28 -58 -34 -99
q-2 -18 -1 -26q0 -27 11 -54q15 -53 62 -80q42 -23 71 -18q36 6 51 18q40 28 61 75q12 28 14 76zM175 940q6 -2 18 -3.5t19 -2.5l56 -8q14 -2 18 -16l9 -45q16 -62 23 -93q0 -2 1 -5l1 -5q3 -15 -12 -18l-56 -9q-19 -4 -32 14l-86 140q-13 20 -14 23q-12 20 10 24l5 2
q8 0 40 2z" />
    <glyph glyph-name="oacute" unicode="&#xf3;" horiz-adv-x="639" 
d="M28 300h1v-40q5 -57 26 -107q27 -59 58 -87q9 -8 19.5 -16.5t23.5 -18.5t20 -16q49 -41 127 -36l65 9q40 5 88 40q62 49 71 59l22 24q8 10 12 17q31 45 42 87q8 38 7 58q0 30 1 46q3 42 -8 92q-16 69 -39 113q-22 40 -38 56q-37 37 -86 60q-35 15 -76 26q-5 1 -29 4
q-8 0 -21 0.5t-19 0.5q-43 0 -48 -1q-37 -5 -67 -17q-51 -20 -82 -68q-18 -27 -38 -78q-20 -53 -27 -110q-2 -16 -2.5 -48.5t-2.5 -48.5zM446 338q-2 -48 -14 -76q-21 -47 -61 -75q-15 -12 -51 -18q-29 -5 -71 18q-47 27 -62 80q-11 27 -11 54q-1 8 1 26q6 41 34 99
q19 36 58 56q4 2 12 4l12 3q16 3 32 3q6 1 19 -1q72 -21 91 -94l8 -39q1 -6 1.5 -12.5t1 -15t0.5 -12.5zM404 935q32 -2 40 -2l5 -2q22 -4 10 -24q-1 -3 -14 -23l-86 -140q-13 -18 -32 -14l-56 9q-15 3 -12 18l2 10q7 31 23 93l9 45q4 14 18 16l56 8q7 1 19 2.5t18 3.5z" />
    <glyph glyph-name="ocircumflex" unicode="&#xf4;" horiz-adv-x="639" 
d="M29 300h-1q2 16 2.5 48.5t2.5 48.5q7 57 27 110q20 51 38 78q31 48 82 68q30 12 67 17q5 1 48 1q6 0 19 -0.5t21 -0.5q24 -3 29 -4q41 -11 76 -26q49 -23 86 -60q16 -16 38 -56q23 -44 39 -113q11 -50 8 -92q-1 -16 -1 -46q1 -20 -7 -58q-11 -42 -42 -87q-4 -7 -12 -17
l-22 -24q-9 -10 -71 -59q-48 -35 -88 -40l-65 -9q-78 -5 -127 36q-7 6 -20 16t-23.5 18.5t-19.5 16.5q-31 28 -58 87q-21 50 -26 107v40zM446 338v16q-1 16 -3 24l-8 39q-19 73 -91 94q-13 2 -19 1q-15 0 -32 -3l-12 -3t-12 -4q-39 -20 -58 -56q-28 -58 -34 -99
q-2 -18 -1 -26q0 -27 11 -54q15 -53 62 -80q42 -23 71 -18q36 6 51 18q40 28 61 75q12 28 14 76zM353 939v-1q4 0 11.5 -0.5t11.5 -0.5q17 0 27 -16q13 -22 48 -103q1 -4 5.5 -14t6.5 -16q4 -8 9 -21.5t9 -21.5q9 -23 -13 -24l-32 -2q-57 -3 -58 -3q-17 -2 -23 13
q-1 2 -6 11t-7 14q-6 11 -16.5 30.5t-14.5 27.5l-6 7q-8 8 -11 -1q-9 -13 -14 -28l-19 -54q-5 -15 -21 -15q-75 3 -77 3h-9t-9 1q-10 1 -10 15q3 12 4 13q13 31 31 93q10 31 38 71q5 9 17 13q33 7 56 7q5 0 17 1t18 1h37z" />
    <glyph glyph-name="otilde" unicode="&#xf5;" horiz-adv-x="639" 
d="M29 300h-1q2 16 2.5 48.5t2.5 48.5q7 57 27 110q20 51 38 78q31 48 82 68q30 12 67 17q5 1 48 1q6 0 19 -0.5t21 -0.5q24 -3 29 -4q41 -11 76 -26q49 -23 86 -60q16 -16 38 -56q23 -44 39 -113q11 -50 8 -92q-1 -16 -1 -46q1 -20 -7 -58q-11 -42 -42 -87q-4 -7 -12 -17
l-22 -24q-9 -10 -71 -59q-48 -35 -88 -40l-65 -9q-78 -5 -127 36q-7 6 -20 16t-23.5 18.5t-19.5 16.5q-31 28 -58 87q-21 50 -26 107v40zM446 338v16q-1 16 -3 24l-8 39q-19 73 -91 94q-13 2 -19 1q-15 0 -32 -3l-12 -3t-12 -4q-39 -20 -58 -56q-28 -58 -34 -99
q-2 -18 -1 -26q0 -27 11 -54q15 -53 62 -80q42 -23 71 -18q36 6 51 18q40 28 61 75q12 28 14 76zM448 953l55 -3q17 -2 17 -18q0 -25 -2 -75q0 -37 -16 -70q-4 -11 -12 -18q-24 -29 -75 -42q-10 -3 -15 -4q-25 -9 -65 0q-42 10 -60 50q-3 6 -9 18.5t-10 19.5q-4 9 -12 14
q-16 10 -21 -9q-3 -14 -3 -28q0 -2 3 -23q2 -15 -12 -17q-8 -2 -48 -4h-52q-12 0 -15 11q-3 7 -3 14q-8 66 -8 73q0 34 21 60q25 31 65 40q8 3 27 3q15 -1 46 1q26 1 55 -19q21 -19 33 -54q1 -3 3.5 -9.5t3.5 -10.5l3 -10q5 -11 15.5 -11.5t16.5 9.5q13 22 14 40v53
q0 15 14 16q8 2 37 2h8z" />
    <glyph glyph-name="odieresis" unicode="&#xf6;" horiz-adv-x="639" 
d="M29 300h-1q2 16 2.5 48.5t2.5 48.5q7 57 27 110q20 51 38 78q31 48 82 68q30 12 67 17q5 1 48 1q6 0 19 -0.5t21 -0.5q24 -3 29 -4q41 -11 76 -26q49 -23 86 -60q16 -16 38 -56q23 -44 39 -113q11 -50 8 -92q-1 -16 -1 -46q1 -20 -7 -58q-11 -42 -42 -87q-4 -7 -12 -17
l-22 -24q-9 -10 -71 -59q-48 -35 -88 -40l-65 -9q-78 -5 -127 36q-7 6 -20 16t-23.5 18.5t-19.5 16.5q-31 28 -58 87q-21 50 -26 107v40zM446 338v16q-1 16 -3 24l-8 39q-19 73 -91 94q-13 2 -19 1q-15 0 -32 -3l-12 -3t-12 -4q-39 -20 -58 -56q-28 -58 -34 -99
q-2 -18 -1 -26q0 -27 11 -54q15 -53 62 -80q42 -23 71 -18q36 6 51 18q40 28 61 75q12 28 14 76zM329 797q1 9 1.5 25t2.5 24q4 21 24 22l84 4q16 1 21 -17q12 -41 7 -89l-2 -17q-3 -16 -16 -17q-24 -3 -25 -3q-21 -4 -49 -4q-4 0 -26 2q-15 3 -16 18q-1 9 -2.5 26.5
t-3.5 25.5zM143 800v44q0 12 3.5 17t14.5 7q20 5 38 6q29 2 48 -3q16 -4 16 -21q0 -25 -1 -38q0 -17 -2 -55v-8q0 -20 -19 -20q-7 0 -21 0.5t-22 0.5q-12 0 -36 -2q-16 -1 -17 12q-1 7 -1.5 14.5t-1 16.5t-0.5 14q0 3 0.5 8t0.5 7z" />
    <glyph glyph-name="divide" unicode="&#xf7;" horiz-adv-x="352" 
d="M326 331q-2 -10 -3 -29t-3 -28q0 -3 -2 -11q-4 -12 -16 -12l-67 2l-24 2q-8 0 -23.5 1t-23.5 1q-30 -1 -70 4q-30 2 -53 -2q-24 -3 -21 20q2 19 2 84q2 17 19 18l98 3l27 3q30 4 59 3q8 -2 33.5 -1.5t33.5 0.5h14q14 -3 16 -15q3 -7 3 -17v-25q1 0 1 -1zM246 183l3 -69
q1 -13 -5 -50l-3 -18q-3 -14 -17 -16q-16 0 -24 1l-69 8q-11 2 -19 5q-12 4 -14 18q0 6 -1 17t-1 16q-1 25 -1 77q0 19 19 22q39 6 55 7q24 2 34 2q9 0 27 -2q12 0 15 -12q0 -1 0.5 -3t0.5 -3zM98 496h1l-2 42q-2 22 -2 31q-2 14 14 16h15l28 1q28 0 28 -1q10 0 40 -2
q12 -2 16.5 -6.5t6.5 -17.5q0 -6 1.5 -17t2 -17t-0.5 -18q-1 -8 -3.5 -25.5t-3.5 -25.5q-5 -20 -25 -19l-38 4l-51 2q-1 0 -15 2q-12 1 -12 15v18v18z" />
    <glyph glyph-name="oslash" unicode="&#xf8;" horiz-adv-x="639" 
d="M276 671q54 0 70 -2q13 0 24 -4l41 -12q13 -4 23 6q1 3 5 7q10 10 24 4l85 -35q8 -4 19 -10q13 -9 7 -25q-6 -19 -15 -32q-9 -19 1 -35q17 -29 40 -107q12 -41 12 -95q0 -60 -2 -77q-4 -46 -25 -87q-15 -29 -41 -63q-4 -5 -15 -16t-33.5 -29t-30.5 -25q-18 -16 -54 -33
q-11 -7 -30 -10q-52 -8 -76 -11q-56 -5 -98 15l-14 9q-13 6 -21 -4l-9 -11q-10 -14 -26 -7l-60 24l-48 20q-7 4 -9 5q-14 9 -5 22q8 13 29 42l15 22q8 11 2 24l-2 4t-1.5 3.5l-1.5 4.5t-2 5q-21 48 -24 102q-4 38 1 85q1 7 1 17q-1 22 10 80q11 51 29 91q20 49 44 74
q28 33 67 46q29 12 65 17q17 3 29 1zM176 326q0 -8 3 -20q3 -10 11 -2q2 2 4 5t3 5q11 18 36 54q4 6 17.5 23t20.5 28q32 50 48 77l2 6q3 6 -5 8q-3 2 -6 0q-48 0 -83 -41q-18 -22 -41 -86q-10 -27 -10 -57zM440 371q-5 -1 -11 -9q-9 -12 -25 -36l-93 -139q-1 -2 -5 -9
q-3 -7 4 -8q1 -1 6 -1q6 1 15.5 2t14.5 3q16 4 42 26q31 26 50 79q8 24 8 81q0 8 -6 11z" />
    <glyph glyph-name="ugrave" unicode="&#xf9;" horiz-adv-x="611" 
d="M32 402h2v60q0 10 2 28l3 27q2 32 2 47q1 19 1 58q0 16 17 19t45 -2q50 -6 81 -1l17 2q1 0 5 -0.5t6 -0.5q13 -3 13 -16q0 -41 -1 -62q-2 -45 -5 -68l-2 -54l-3 -62l-3 -48l-2 -16q0 -39 17 -71q1 -3 3.5 -8l4.5 -9t4 -7q11 -17 29 -21t35 5q31 16 45 59q4 12 11 66l8 59
q2 18 2 28q2 13 4 74q1 9 -1 27q-6 40 0 80q3 16 1 49q0 14 3 17.5t17 4.5q39 4 88 -1q15 -2 65 -2q4 0 10 0.5t10 0.5q20 2 18 -18q-2 -15 -3 -44t-3 -44v-16t-2 -20l-13 -97l-9 -74q-8 -67 -10 -81q-7 -38 -22 -66q-25 -52 -40 -77q-27 -46 -62 -74q-24 -19 -63 -31
q-4 -1 -9.5 -2.5t-7.5 -1.5q-13 -4 -32 -4q-15 0 -49 -2q-40 -4 -85 21q-27 16 -59 44q-15 15 -27 37q-30 52 -45 121q-2 9 -3.5 27t-2.5 26q-1 20 -2 57t-3 57zM189 920q6 -2 18 -3.5t19 -2.5l56 -8q14 -2 18 -16l9 -45q16 -62 23 -93q0 -2 1 -5l1 -5q3 -15 -12 -18l-56 -9
q-19 -4 -32 14l-86 140q-12 20 -14 23q-12 20 10 24l5 2q8 0 40 2z" />
    <glyph glyph-name="uacute" unicode="&#xfa;" horiz-adv-x="611" 
d="M34 402h-2q2 -20 3 -57t2 -57q1 -8 2.5 -26t3.5 -27q15 -69 45 -121q12 -22 27 -37q32 -28 59 -44q45 -25 85 -21q34 2 49 2q19 0 32 4q2 0 7.5 1.5t9.5 2.5q39 12 63 31q35 28 62 74q15 25 40 77q15 28 22 66q2 14 10 81l9 74l13 97q2 7 2 20v16q2 15 3 44t3 44
q2 20 -18 18q-4 0 -10 -0.5t-10 -0.5q-50 0 -65 2q-49 5 -88 1q-14 -1 -17 -4.5t-3 -17.5q2 -33 -1 -49q-6 -40 0 -80q2 -18 1 -27q-2 -61 -4 -74q0 -10 -2 -28l-8 -59q-7 -54 -11 -66q-14 -43 -45 -59q-17 -9 -35 -5t-29 21q-2 3 -4 7l-4.5 9t-3.5 8q-17 32 -17 71l2 16
l3 48l3 62l2 54q3 23 5 68q1 21 1 62q0 13 -13 16q-2 0 -6 0.5t-5 0.5l-17 -2q-31 -5 -81 1q-28 5 -45 2t-17 -19q0 -39 -1 -58q0 -15 -2 -47l-3 -27t-2 -28v-60zM386 920q32 -2 40 -2l5 -2q22 -4 10 -24q-1 -3 -14 -23l-86 -140q-13 -18 -32 -14l-56 9q-15 3 -12 18l2 10
q7 31 23 93l9 45q4 14 18 16l56 8q7 1 19 2.5t18 3.5z" />
    <glyph glyph-name="ucircumflex" unicode="&#xfb;" horiz-adv-x="611" 
d="M32 402h2v60q0 10 2 28l3 27q2 32 2 47q1 19 1 58q0 16 17 19t45 -2q50 -6 81 -1l17 2q1 0 5 -0.5t6 -0.5q13 -3 13 -16q0 -41 -1 -62q-2 -45 -5 -68l-2 -54l-3 -62l-3 -48l-2 -16q0 -39 17 -71q1 -3 3.5 -8l4.5 -9t4 -7q11 -17 29 -21t35 5q31 16 45 59q4 12 11 66l8 59
q2 18 2 28q2 13 4 74q1 9 -1 27q-6 40 0 80q3 16 1 49q0 14 3 17.5t17 4.5q39 4 88 -1q15 -2 65 -2q4 0 10 0.5t10 0.5q20 2 18 -18q-2 -15 -3 -44t-3 -44v-16t-2 -20l-13 -97l-9 -74q-8 -67 -10 -81q-7 -38 -22 -66q-25 -52 -40 -77q-27 -46 -62 -74q-24 -19 -63 -31
q-4 -1 -9.5 -2.5t-7.5 -1.5q-13 -4 -32 -4q-15 0 -49 -2q-40 -4 -85 21q-27 16 -59 44q-15 15 -27 37q-30 52 -45 121q-2 9 -3.5 27t-2.5 26q-1 20 -2 57t-3 57zM339 942v-1q4 0 11.5 -0.5t11.5 -0.5q17 0 27 -16q13 -22 48 -103q1 -4 5.5 -14t6.5 -16q3 -8 8.5 -22t9.5 -21
q9 -23 -13 -24l-32 -2q-57 -3 -58 -3q-17 -2 -23 13q-1 3 -6 11.5t-7 13.5q-6 11 -16.5 30.5t-14.5 27.5l-6 7q-8 8 -11 -1q-9 -13 -14 -28l-19 -54q-5 -15 -21 -15q-75 3 -77 3q-3 1 -9 1h-9q-10 1 -10 15q3 11 4 13q13 31 31 93q10 31 38 71q5 9 17 13q33 7 56 7q5 0 17 1
t18 1h37z" />
    <glyph glyph-name="udieresis" unicode="&#xfc;" horiz-adv-x="611" 
d="M32 402h2v60q0 10 2 28l3 27q2 32 2 47q1 19 1 58q0 16 17 19t45 -2q50 -6 81 -1l17 2q1 0 5 -0.5t6 -0.5q13 -3 13 -16q0 -41 -1 -62q-2 -45 -5 -68l-2 -54l-3 -62l-3 -48l-2 -16q0 -39 17 -71q1 -3 3.5 -8l4.5 -9t4 -7q11 -17 29 -21t35 5q31 16 45 59q4 12 11 66l8 59
q2 18 2 28q2 13 4 74q1 9 -1 27q-6 40 0 80q3 16 1 49q0 14 3 17.5t17 4.5q39 4 88 -1q15 -2 65 -2q4 0 10 0.5t10 0.5q20 2 18 -18q-2 -15 -3 -44t-3 -44v-16t-2 -20l-13 -97l-9 -74q-8 -67 -10 -81q-7 -38 -22 -66q-25 -52 -40 -77q-27 -46 -62 -74q-24 -19 -63 -31
q-4 -1 -9.5 -2.5t-7.5 -1.5q-13 -4 -32 -4q-15 0 -49 -2q-40 -4 -85 21q-27 16 -59 44q-15 15 -27 37q-30 52 -45 121q-2 9 -3.5 27t-2.5 26q-1 20 -2 57t-3 57zM324 779q1 9 1.5 25t2.5 24q4 21 24 22l84 4q16 1 21 -17q12 -41 7 -89l-2 -17q-3 -16 -16 -17q-24 -3 -25 -3
q-21 -4 -49 -4q-4 0 -26 2q-15 3 -16 18q-1 9 -2.5 26.5t-3.5 25.5zM138 782v44q0 12 3.5 17t14.5 7q20 5 38 6q29 2 48 -3q16 -4 16 -21q0 -25 -1 -38q0 -17 -2 -55v-8q0 -20 -19 -20q-8 0 -22 0.5t-21 0.5q-12 0 -36 -2q-16 -1 -17 12q-1 7 -1.5 14.5t-1 16.5t-0.5 14
q0 3 0.5 8t0.5 7z" />
    <glyph glyph-name="yacute" unicode="&#xfd;" horiz-adv-x="594" 
d="M193 67h1v-20q1 -14 5.5 -18.5t18.5 -3.5q38 2 57 2q3 0 7.5 0.5t6.5 0.5l61 -2q8 0 16 -0.5t18 -1.5t16 -1q12 0 16 12q2 16 2 18q0 12 -0.5 25t-1.5 28.5t-1 24.5l-2 113q0 19 -2 65q-2 17 4 27q16 32 25 48l27 50q4 6 9.5 18.5t8.5 18.5l44 89q18 37 20 45
q16 46 23 69q3 15 -12 18l-23 2q-14 0 -21 1q-8 1 -23.5 2t-23.5 3l-32 2q-15 0 -23 -11q-32 -43 -59 -105l-48 -107l-6 -9q-5 -8 -10 0l-6 12q-2 4 -10 26q-23 59 -41 89q-20 37 -23 44l-14 27q-7 18 -29 18l-45 -3q-11 -2 -32 -4t-32 -3q-23 0 -30 -2q-16 -1 -11 -18
q3 -10 9 -19l33 -57q9 -16 26.5 -48.5t26.5 -48.5q25 -50 42 -68l15 -21q3 -5 12 -19t14 -23q8 -12 10 -26q4 -26 2 -77q-2 -48 -5 -72l-4 -44zM393 929q32 -2 40 -2l5 -2q22 -4 10 -24q-2 -3 -14 -23l-86 -140q-13 -18 -32 -14l-56 9q-15 3 -12 18l2 10q7 31 23 93l9 45
q4 14 18 16l56 8q7 1 19 2.5t18 3.5z" />
    <glyph glyph-name="thorn" unicode="&#xfe;" horiz-adv-x="470" 
d="M77 668h29q13 0 47 2h24q17 -2 17 -18q0 -6 -0.5 -17.5t-0.5 -17.5q0 -17 1 -26q2 -12 14 -12q13 0 27 -1.5t31.5 -4t27.5 -3.5q24 -1 60 -22q49 -30 76 -74q16 -28 16 -63t-3 -52q-3 -14 -11.5 -41t-9.5 -30l-8 -20q-9 -21 -20 -36l-21 -27q-18 -26 -43 -39
q-5 -3 -16 -8.5t-16 -9.5q-15 -9 -60 -20l-10 -2q-14 -4 -13 -20l4 -33q1 -19 0 -39q0 -10 -2 -28q-3 -15 -16 -16q-9 -2 -41 -4l-59 -4q-9 0 -27 -0.5t-27 -0.5q-15 0 -15 16l-2 36q0 9 -0.5 28.5t-0.5 29.5q-1 16 1 52l4 69q2 54 2 82q-2 50 -2 74v27l-4 82v8q0 77 1 116
q0 7 0.5 23t0.5 23q1 12 16 17q8 2 29 4zM197 322h-1q0 -15 2 -45q2 -20 19 -10l6 3t6 4q13 8 22 17q12 11 18 24q1 3 4.5 12.5t5.5 15.5q9 33 -10 56t-56 24q-1 0 -3 -0.5t-3 -0.5q-9 -1 -11 -12q0 -8 -0.5 -23t-0.5 -22t1 -21t1 -22z" />
    <glyph glyph-name="ydieresis" unicode="&#xff;" horiz-adv-x="594" 
d="M194 67h-1l6 66l4 44q3 24 5 72q2 51 -2 77q-2 14 -10 26q-5 9 -14 23t-12 19l-15 21q-17 18 -42 68q-9 16 -26.5 48.5t-26.5 48.5l-33 57q-6 9 -9 19q-5 17 11 18q7 2 30 2q11 1 32 3t32 4l45 3q22 0 29 -18l14 -27q3 -7 23 -44q18 -30 41 -89q8 -22 10 -26l6 -12
q5 -8 10 0l6 9l48 107q27 62 59 105q8 11 23 11l32 -2q8 -2 23.5 -3t23.5 -2q7 -1 21 -1l23 -2q15 -3 12 -18q-7 -23 -23 -69q-2 -7 -20 -45l-44 -89q-3 -6 -8.5 -18.5t-9.5 -18.5l-27 -50q-9 -16 -25 -48q-6 -10 -4 -27q2 -46 2 -65l2 -113q0 -3 1.5 -32.5t1.5 -45.5
q0 -2 -2 -18q-4 -12 -16 -12q-1 0 -20.5 1.5t-29.5 1.5l-61 2q-2 0 -6.5 -0.5t-7.5 -0.5q-19 0 -57 -2q-14 -1 -18.5 3.5t-5.5 18.5v20zM323 819q1 9 1.5 25t2.5 24q4 21 24 22l84 4q16 1 21 -17q12 -41 7 -89l-2 -17q-3 -16 -16 -17q-24 -3 -25 -3q-21 -4 -49 -4
q-4 0 -26 2q-15 3 -16 18q-1 9 -2.5 26.5t-3.5 25.5zM137 822v44q0 12 3.5 17t14.5 7q20 5 38 6q29 2 48 -3q16 -4 16 -21q0 -25 -1 -38q0 -17 -2 -55v-8q0 -20 -19 -20q-7 0 -21 0.5t-22 0.5q-12 0 -36 -2q-16 -1 -17 12q-1 7 -1.5 14.5t-1 16.5t-0.5 14q0 3 0.5 8t0.5 7z
" />
    <glyph glyph-name="dotlessi" unicode="&#x131;" 
d="M37 118q0 8 0.5 23.5t0.5 22.5q0 8 -1 23.5t-1 23.5q-1 0 0 18v18v15q2 43 1 51q-1 9 0 25t1 21v59t1 59l4 125q1 12 1 37q1 15 15 20q14 2 15 2q29 1 69 -5q8 -2 23 -2t22 -2h6q15 0 21 -6t7 -21q0 -69 -11 -144q-10 -45 -4 -95q1 -4 1 -11v-10q0 -13 2 -40t3 -41v-23
v-27.5v-23.5v-5q-2 -72 -2 -107q0 -36 1 -53q0 -18 -6 -24t-23 -5l-60 2q-9 0 -28.5 -0.5t-29.5 -0.5q-3 -2 -8 0q-14 1 -16 16l-3 35q0 9 -0.5 25.5t-0.5 24.5z" />
    <glyph glyph-name="Lslash" unicode="&#x141;" horiz-adv-x="394" 
d="M188 255v-30v-34q1 -17 19 -13q38 11 76 7h3q39 4 76 0q18 0 18 -19q1 -28 1 -84q0 -26 -1 -38q-2 -13 -6.5 -18t-16.5 -7q-60 -8 -73 -7q-4 0 -10 0.5t-10 0.5q-10 0 -21 -0.5t-24 -1.5t-21 -1q-15 -1 -40 -1q-2 0 -6 0.5t-5 0.5h-88q-9 0 -12 1q-10 2 -11 11
q-2 10 -2 14q0 12 -0.5 37t-0.5 38l4 100l3 39v7q-2 11 -12 12q-7 1 -16 1q-19 0 -21 17l-3 33q-1 40 3 79q3 21 22 21h18q11 1 15 4.5t6 14.5l8 61l8 76q2 7 3 20.5t3 19.5q3 15 16 19h6q19 0 61 -2q20 0 33 -4q11 -2 14 -7t2 -17q-6 -33 -9 -66q-1 -5 -1 -44q0 -24 -1 -36
q0 -5 -0.5 -13t-0.5 -12q0 -12 13 -15q12 0 15 -1q13 0 16 -1q20 -3 19 -22q0 -39 -1 -58q0 -15 -2 -45q0 -13 -4.5 -17.5t-17.5 -5.5h-24h-7q-12 -1 -13 -14z" />
    <glyph glyph-name="lslash" unicode="&#x142;" horiz-adv-x="422" 
d="M37 198h1l-3 84q0 9 -3 12.5t-13 5.5q-13 3 -16 17l-3 33q-1 40 3 79q3 19 21 21q11 1 14.5 4.5t3.5 14.5l2 94q2 43 5 64q3 30 31 34q12 2 32.5 5.5t32.5 4.5q4 1 24 -2l47 -3q19 0 16 -19l-12 -120q-2 -13 -2 -61q-1 -9 2.5 -12.5t13.5 -5.5q11 0 16 -1q21 -3 19 -23
q0 -36 -1 -53q0 -18 -2 -52q0 -17 -18 -20h-10h-15q-12 -1 -13 -13q-2 -24 -2 -36t2 -36v-4q-1 -5 0 -5q2 -15 16 -15q16 -1 96 -13q38 -6 57 -7q16 -1 19 -18q8 -52 11 -76q1 -16 0 -31q0 -15 -14 -17q-32 -6 -41 -7l-55 -2q-46 -2 -69 -2q-9 0 -23.5 1.5t-17.5 1.5
q-15 1 -46 1q-17 1 -52 1q-12 0 -19 -1h-10q-14 0 -17 14q-1 3 -1 12q0 39 -5 91z" />
    <glyph glyph-name="OE" unicode="&#x152;" horiz-adv-x="825" 
d="M787 609h1v-72q0 -11 -3.5 -15.5t-14.5 -6.5q-31 -5 -55 -2q-22 1 -53 -7q-9 -3 -9 -13v-27q2 -26 4 -32v-4q2 -10 6 -13t15 -1q14 4 35 2l33 -4l19 -2q16 -3 16 -19q3 -23 5 -73q1 -7 0 -13q0 -15 -14 -17q-6 -1 -37 -4l-54 -4h-18q-19 -1 -22 -20q-1 -15 0 -30
q0 -8 0.5 -21t0.5 -20q1 -11 5 -15t15 -4q38 -2 54 -2l39 -2q22 0 22 -22v-24q2 -56 2 -84v-8q-1 -16 -16 -16h-20q-7 0 -20 0.5t-21 0.5l-36 3l-66 6l-68 2q-13 0 -39 2q-12 0 -22 -5q-31 -19 -85 -28q-8 -1 -21.5 -2t-20.5 -3h-3q-7 1 -23.5 2t-26 1.5t-22.5 4t-24 8.5
q-10 5 -28.5 14t-28.5 14l-23 16q-30 22 -45 34q-30 27 -51 59q-34 61 -39 83q-3 9 -3 17q-5 41 3 83q14 72 27 104q13 34 26 56q39 62 45 71q26 40 55 60q40 30 63 42q45 26 90 25q51 -3 52 -3q12 -1 25 0q26 0 56 -14l22 -11q13 -6 22 0q7 3 15 3q20 3 39 3q47 -2 57 -4h8
q20 -1 59 -1q7 -1 20.5 0t17.5 1q30 -2 45 -2q13 -1 13 -15v-32zM476 343q3 23 -11 69q-9 36 -45 77q-7 8 -15 13q-21 13 -46 21q-10 4 -20 3q-24 -6 -35 -10q-31 -11 -59 -46q-38 -45 -57 -124q-9 -40 2 -83q16 -66 80 -97q4 -2 13.5 -6t12.5 -5q29 -14 70 -5q33 6 50 32
l4 4q31 35 49 92q7 21 7 65z" />
    <glyph glyph-name="oe" unicode="&#x153;" horiz-adv-x="899" 
d="M775 253q-22 1 -90 -8l-39 -4q-10 -2 -13 -5.5t-4 -12.5q-2 -32 -2 -48v-7q2 -11 15 -14q19 -3 57 3q24 4 49 3h38q3 0 9 -0.5t10 -0.5h40q22 0 24 -23v-46q1 -15 1 -47q1 -6 -1 -19q-1 -14 -15 -15q-9 -2 -26.5 -3.5t-26.5 -2.5h-4q-19 2 -68 -4q-36 -5 -65 -1
q-62 2 -93 -5q-7 -2 -20 -4t-20 -3q-22 -2 -30 -2h-39q-14 0 -16 15v9q-2 9 -10 6q-10 -4 -13 -7q-20 -12 -48 -17q-43 -10 -87 -12q-61 -2 -101 28q-54 40 -78 62q-27 23 -57 87q-20 47 -25 106q-4 44 2 89q1 2 1 8q-2 21 9 81q11 50 30 95q18 44 44 73q24 29 58 42
q30 13 65 19q16 4 59 2q26 0 38 -1q27 -2 29 -3q48 -12 75 -26q5 -4 16 -8.5t17 -8.5q13 -4 16 8q2 17 3 18q3 17 18 18q7 1 21 1h35.5t35.5 1q10 0 30.5 1t30.5 1q26 1 80 -5l43 -2h7q8 1 8 0q19 0 20 -16q2 -6 2 -18.5v-15.5v-53q0 -4 0.5 -12t0.5 -12q0 -15 -15 -16
l-32 -3l-57 -2q-12 -2 -34 -3t-34 -3q-17 -2 -16 -20v-58q0 -3 2 -13q1 -16 20 -16q30 2 44 2q45 0 90 -3q31 -2 47 -5q16 -1 17 -17q1 -8 3 -23t3 -22q2 -43 4 -53q1 -20 -18 -24q-38 -7 -51 -6q-4 0 -10 0.5t-9 0.5zM445 345h-1q0 10 -1 17q0 3 -3.5 22t-5.5 30
q-18 75 -91 96q-5 2 -20 2q-25 -2 -31 -4q-11 -2 -19 -5q-44 -17 -64 -59q-23 -47 -31 -84q-4 -16 -4 -36q0 -28 11 -58q16 -52 62 -80q43 -22 71 -17q37 6 52 17q40 30 60 77q6 12 9 25q1 9 3 28t3 29z" />
    <glyph glyph-name="Scaron" unicode="&#x160;" horiz-adv-x="508" 
d="M62 62v-36q0 -14 13 -20l25 -9q13 -4 39.5 -9.5t40.5 -8.5q20 -5 39 -6q43 0 77 10q46 13 83 34q18 10 52 44q24 24 37 56q18 42 18 107v2q-1 1 -1 3q-3 17 -19 56q-14 34 -36 51q-40 35 -80 53l-46 20l-17 8q-35 14 -61 28q-27 13 -33 46q-1 11 7 23q6 6 14 11
q24 17 63 15q42 -1 90 -6q14 -1 19 13l2 6l14 68q2 7 4 20t3 19q2 14 -10 18q-9 3 -10 3q-36 4 -71 6q-44 1 -87 -6q-23 -4 -47 -12q-6 -2 -17.5 -7t-17.5 -7q-45 -17 -71 -54q-23 -32 -36 -67t-14 -59q-1 -31 3 -62q10 -57 53 -98q25 -22 58 -34l22 -8q39 -13 78 -30
q17 -5 33 -16q18 -11 24 -31q2 -10 1 -14q-2 -16 -18 -24q-33 -18 -70 -12q-25 5 -40 1q-18 -3 -38 2l-48 9q-17 3 -21 -13l-2 -13q0 -11 -0.5 -34.5t-0.5 -35.5zM330 735v-1h-37q-5 0 -17 1t-18 1q-23 0 -56 7q-12 4 -17 13q-28 40 -38 71q-18 62 -31 93q-1 2 -4 13
q0 12 10 15h9t9 1q2 0 77 3q17 0 21 -15l19 -54q5 -15 14 -28q4 -8 11 -1l6 7q4 8 14.5 27.5t16.5 30.5q2 5 7 13.5t6 11.5q6 15 23 13q1 0 58 -3l32 -2q22 -1 13 -24q-3 -8 -8.5 -22t-9.5 -21q-2 -6 -6.5 -16t-5.5 -14q-35 -81 -48 -103q-10 -16 -27 -16q-4 0 -11.5 -0.5
t-11.5 -0.5z" />
    <glyph glyph-name="scaron" unicode="&#x161;" horiz-adv-x="526" 
d="M232 706q-2 -1 -6 -1q-25 -4 -52 -6q-52 -4 -93 -53q-27 -38 -37 -73q-12 -37 -14 -80q-3 -35 9 -90q15 -54 66 -95q44 -37 126 -57q52 -13 75 -25q13 -7 22 -19q8 -12 2 -25q-6 -14 -19 -20q-37 -17 -70 -7q-18 5 -37 6q-51 2 -80 19q-10 6 -21 9q-13 4 -19 -8
q0 -1 -1.5 -4.5t-2.5 -5.5q-16 -51 -22 -107l-3 -18q-1 -16 14 -24q7 -2 8 -3q55 -19 93 -23l28 -2q46 -3 51 -2q77 10 97 14q53 11 99 55q32 32 47 86q5 16 7 50q5 38 -3 63l-4 23q-12 47 -36 72q-6 5 -17.5 15t-16.5 15q-17 12 -37 17q-12 2 -36.5 8t-36.5 9q-46 9 -73 22
q-23 10 -30 20q-20 22 -11 43q3 8 16 21t39 18q6 2 28 2q23 4 50 4q44 -2 68 -5q16 -1 21 14q2 14 2 15l6 48l4 50q0 17 -17 22q-13 5 -27 6q-13 1 -40 1q-20 -1 -61 -1q-3 0 -17 2q-26 2 -38 5zM313 756v-1h-37q-6 0 -18 1t-17 1q-23 0 -56 7q-12 4 -17 13q-28 40 -38 71
q-18 62 -31 93q-1 1 -4 13q0 12 10 15q3 1 8.5 1h9.5q2 0 77 3q16 0 21 -15l19 -54q5 -15 14 -28q4 -8 11 -1l6 7q4 8 14.5 27.5t16.5 30.5q2 5 7 14t6 11q6 15 23 13q1 0 58 -3l32 -2q22 -1 13 -24q-4 -8 -9.5 -21.5t-8.5 -21.5q-2 -6 -6.5 -16t-5.5 -14q-35 -81 -48 -103
q-10 -16 -27 -16q-4 0 -11.5 -0.5t-11.5 -0.5z" />
    <glyph glyph-name="Ydieresis" unicode="&#x178;" horiz-adv-x="606" 
d="M44 671h22q42 2 64 2q20 0 31 -1q11 0 19 -12q4 -4 9.5 -13.5t9.5 -13.5q20 -27 41 -50q33 -43 65 -80q8 -11 13 -10t10 14q47 96 52 105t14.5 27.5t15.5 28.5q8 15 24 14q4 0 15.5 1t17.5 0q48 -3 57 -4q21 -1 44 -6h5q16 -3 13 -19q0 -2 -2 -8l-23 -57q-18 -38 -29 -57
q-18 -33 -54.5 -92.5t-45.5 -74.5q0 -1 -2 -3q-12 -12 -14 -40q-3 -68 -2 -83q1 -11 0 -29t-1 -25q-1 -5 -1 -14v-13q-3 -31 -5 -93v-10.5v-13v-11.5q0 -2 -0.5 -6t-0.5 -5q-4 -18 -21 -18l-70 3l-31 2q-11 0 -35 2q-15 2 -15 20q-1 16 -1 47l1 13q0 14 -1 14q0 18 -2 64
l1 21q0 21 -1 22q0 5 -0.5 13t-0.5 12v29q0 48 -1 72q0 18 -10 31q-13 17 -36 49.5t-32 44.5q-27 39 -51 83q-4 3 -5 8q-21 25 -53 76q-8 13 -17 22q-7 7 -8 9q-4 5 -2 9t9 4h20zM325 787q1 9 1.5 25t2.5 24q4 21 24 22l84 4q16 1 21 -17q12 -41 7 -89l-2 -17
q-3 -16 -16 -17q-24 -3 -25 -3q-21 -4 -49 -4q-4 0 -26 2q-15 3 -16 18q-1 9 -2.5 26.5t-3.5 25.5zM139 790v44q0 12 3.5 17t14.5 7q20 5 38 6q29 2 48 -3q16 -4 16 -21q0 -25 -1 -38q0 -17 -2 -55v-8q0 -20 -19 -20q-7 0 -21 0.5t-22 0.5q-12 0 -36 -2q-16 -1 -17 12
q-1 7 -1.5 14.5t-1 16.5t-0.5 14q0 3 0.5 8t0.5 7z" />
    <glyph glyph-name="Zcaron" unicode="&#x17d;" horiz-adv-x="541" 
d="M263 205l9 11q7 7 14.5 15t17 17t14.5 14q2 0 2 2l67 63q27 27 90 103q9 10 21 29q8 10 8 31q-2 30 -2 41q0 14 -10 108q-1 15 -6 29q-4 15 -21 15l-7 1q-8 0 -8 -1q-40 -3 -72 1q-48 3 -49 3q-31 2 -52 -3l-34 -8q-24 -5 -46 -6q-7 0 -19 -0.5t-22.5 -1t-19.5 -1.5
q-22 -1 -77 -7q-19 -1 -19 -21q0 -10 0.5 -30.5t0.5 -30.5l3 -40q1 -16 16 -16q22 -2 30 0q18 3 81 1q41 -3 105 2q29 2 48 -3q16 -4 6 -17q-2 -3 -7.5 -8t-7.5 -9q-70 -83 -95 -107q-5 -6 -15.5 -15.5t-16.5 -14.5q-10 -10 -29 -30.5t-29 -30.5q-12 -12 -37.5 -34.5
t-35.5 -32.5l-12 -11q-7 -6 -7 -16q-2 -10 -4 -56q0 -4 -0.5 -9.5t-0.5 -7.5q0 -12 -0.5 -36t-0.5 -36q0 -9 2 -25q3 -13 17 -13q5 0 6 1q20 4 81 6q72 0 107 1q45 2 76 8q32 6 51 5q2 0 66 -3l46 -3q19 -1 20 17q2 38 2 59q0 11 -0.5 31.5t-0.5 30.5q0 2 -1 3v1
q-2 21 -22 21q-8 1 -22 1l-60 3q-14 1 -40.5 2t-39.5 2q-5 1 -44 1q-8 0 -15 5zM323 738v-1h-37q-6 0 -18 1t-17 1q-23 0 -56 7q-12 4 -17 13q-28 40 -38 71q-18 62 -31 93q-1 1 -4 13q0 12 10 15q4 1 9.5 1h8.5q2 0 77 3q16 0 21 -15l19 -54q5 -15 14 -28q4 -8 11 -1l6 7
q4 8 14.5 27.5t16.5 30.5q2 5 7 13.5t6 11.5q6 15 23 13q1 0 58 -3l32 -2q22 -1 13 -24q-4 -7 -9.5 -21t-8.5 -22q-2 -6 -6.5 -16t-5.5 -14q-35 -81 -48 -103q-10 -16 -27 -16q-4 0 -11.5 -0.5t-11.5 -0.5z" />
    <glyph glyph-name="zcaron" unicode="&#x17e;" horiz-adv-x="524" 
d="M35 577v-35v-29q0 -17 18 -17q3 0 8 0.5t9 0.5t28.5 -1.5t36.5 -1.5q28 0 82 2h33q13 0 7 -13q0 -1 -2 -3q-5 -7 -14.5 -22.5t-15.5 -23.5q-11 -16 -29 -48q-33 -58 -68 -98q-8 -10 -34.5 -40.5t-39.5 -48.5q-11 -16 -10 -30q2 -23 -4 -84q-3 -39 -3 -40q-1 -11 -1 -35
q0 -14 13 -14h34q53 2 63 1q46 -4 96 2q18 2 94 14q46 9 92 12q8 1 45 4q17 4 18 18q4 23 2 55q-1 18 -7 50l-3 31q-1 13 -15 15q-35 5 -61 4q-14 -1 -36 2q-46 7 -65 4h-19q-14 0 -9 14q0 2 1.5 4.5t1.5 3.5q4 5 10 15q34 56 46 71q13 15 46 67q17 30 42 54l31 30
q24 21 19 50q-1 5 -4 37l1 22q0 22 -1 22q0 19 -2 57q0 13 -15 14q-15 3 -32 3q-25 0 -75 -2l-33 -3q-20 -3 -56 -5l-70 -2q-19 0 -57 -2l-59 -2h-6.5h-8.5h-7q-15 -1 -15 -17v-62zM310 733v-1h-37q-5 0 -17.5 1t-17.5 1q-23 0 -56 7q-12 4 -17 13q-28 40 -38 71
q-18 62 -31 93q-1 2 -4 13q0 12 10 15h8.5t9.5 1q2 0 77 3q17 0 21 -15l19 -54q5 -15 14 -28q4 -8 11 -1l6 7q4 8 14.5 27.5t16.5 30.5q2 5 7 14t6 11q6 15 23 13q1 0 58 -3l32 -2q22 -1 13 -24q-4 -8 -9 -22t-9 -21q-2 -6 -6.5 -16t-5.5 -14q-35 -81 -48 -103
q-10 -16 -27 -16q-4 0 -11.5 -0.5t-11.5 -0.5z" />
    <glyph glyph-name="florin" unicode="&#x192;" horiz-adv-x="575" 
d="M73 254l45 3h13q15 -1 15 -16v-14q-2 -41 12 -67l9 -14q8 -10 19.5 -11t21.5 7q20 18 21 45q0 5 -0.5 13t-0.5 12q-2 38 -4 45q-2 9 -5.5 12t-12.5 4q-7 1 -14.5 1.5t-17 1t-14.5 0.5q-20 2 -24 4q-14 3 -14 17q-3 27 -5 81q-1 22 22 30q19 7 59 9q14 0 18 4t4 18
q-2 40 -2 60q-1 34 4 81l8 41q1 7 8 26q7 18 23 28q29 18 44 24q33 12 72 14q35 0 46 -3q14 -3 26 -9q25 -15 40 -30q20 -18 35 -39q11 -15 19 -52q3 -11 5 -35q5 -42 -8 -102q-2 -7 -3 -8q-5 -12 -9.5 -15t-15.5 -3q-2 0 -65 3q-1 0 -2 1q-3 1 -5 1q-13 3 -15 17l-3 47
q-1 14 -8 26q-9 14 -28.5 14.5t-28.5 -17.5q-9 -21 -9 -49v-7v-8.5v-7.5q2 -14 17 -18q4 -2 11.5 -3.5t11.5 -2.5q12 -4 14 -17q8 -56 8 -63q0 -6 2 -17.5t2 -15.5v-8q0 -17 -18 -20q-3 0 -11 -2q-11 -3 -11 -12l2 -33q4 -29 -1 -77q0 -3 -0.5 -8.5t-1 -10t-1.5 -8.5l-8 -34
q-2 -6 -6 -17t-5 -16q-5 -16 -33 -57q-15 -19 -53 -25q-24 -4 -70 2q-42 6 -79 27q-34 20 -61 46q-26 31 -31 69q-2 18 -2 27v60q0 19 1 30q1 18 20 21h28z" />
    <glyph glyph-name="circumflex" unicode="&#x2c6;" horiz-adv-x="391" 
d="M242 650v-1q4 0 11.5 -0.5t11.5 -0.5q17 0 27 -16q13 -22 48 -103q1 -4 5.5 -14t6.5 -16q4 -8 9 -22t9 -21q9 -23 -13 -24l-32 -2q-57 -3 -58 -3q-17 -2 -23 13q-1 2 -6 11t-7 14q-6 11 -16.5 30.5t-14.5 27.5l-6 7q-8 8 -11 -1q-9 -13 -14 -28l-19 -54q-4 -15 -21 -15
q-75 3 -77 3q-3 1 -9 1h-9q-10 1 -10 15q3 11 4 13q13 31 31 93q10 31 38 71q5 9 17 13q33 7 56 7q6 0 18 1t17 1h37z" />
    <glyph glyph-name="caron" unicode="&#x2c7;" horiz-adv-x="391" 
d="M242 427v-1h-37q-5 0 -17 1t-18 1q-23 0 -56 7q-12 4 -17 13q-28 40 -38 71q-18 62 -31 93q-1 2 -4 13q0 12 10 15h9.5t8.5 1q2 0 77 3q17 0 21 -15l19 -54q5 -15 14 -28q4 -8 11 -1l6 7q4 8 14.5 27.5t16.5 30.5q2 5 7 13.5t6 11.5q6 15 23 13q1 0 58 -3l32 -2
q22 -1 13 -24q-4 -8 -9 -22t-9 -21q-2 -6 -6.5 -16t-5.5 -14q-35 -81 -48 -103q-10 -16 -27 -16q-4 0 -11.5 -0.5t-11.5 -0.5z" />
    <glyph glyph-name="breve" unicode="&#x2d8;" horiz-adv-x="388" 
d="M361 621v-9q-5 -79 -61 -117q-31 -21 -63 -21q-2 0 -6 -0.5t-6 -0.5q-13 -3 -41 3q-40 7 -50 10q-32 11 -63 37q-8 8 -13 17q-19 33 -23 62q-4 15 -4 32q-1 17 6.5 23.5t23.5 7.5q11 2 20 -2q32 -6 56 -5q11 0 15.5 -4t6.5 -15q5 -30 37 -48q9 -6 21 -4.5t19 8.5
q7 8 7 17l-2 20q-3 18 15 22q25 5 46 -1q15 -3 30 -3q19 0 24 -6.5t5 -22.5z" />
    <glyph glyph-name="dotaccent" unicode="&#x2d9;" horiz-adv-x="235" 
d="M33 518h-1l4 43v9q0 32 1 49q0 18 17 21q54 11 59 11q12 2 65 -1q16 -1 19 -19q5 -40 2 -65q-1 -12 -4 -69q0 -8 -1 -10q-5 -14 -17 -13q-9 0 -31 2q-2 0 -4 0.5t-4 0.5q-13 -1 -26.5 0t-30.5 4t-26 4q-2 0 -3 1h-2q-15 4 -17 21v11z" />
    <glyph glyph-name="ring" unicode="&#x2da;" horiz-adv-x="374" 
d="M210 669q28 4 60 -18l10 -8l30 -26q12 -12 26 -46q16 -50 15 -84q0 -14 -5 -34q-14 -49 -50 -74q-32 -23 -70 -25q-14 -2 -18 -2q-13 0 -16 1q-38 6 -57 10q-36 9 -76 42q-4 4 -10 14q-20 32 -25 68q-6 28 -1 61q6 37 31 59l34 32q19 16 44 20q50 10 78 10zM233 497v9
q-10 35 -46 48q-11 5 -23 -2t-14 -19q-2 -13 1 -20q7 -27 37 -43q15 -9 30.5 -1t14.5 28z" />
    <glyph glyph-name="ogonek" unicode="&#x2db;" horiz-adv-x="306" 
d="M278 -29h2l-3 -46q-1 -13 -14 -13h-7q-30 5 -73 5q-9 0 -12 -1q-15 -2 -21 -16t4 -25q32 -42 75 -38h27q22 0 22 -21q1 -14 -1 -43q0 -9 -2 -25q0 -15 -14 -18q-12 -3 -36 -5h-12q-26 -3 -67 9q-30 9 -58 32l-32 33q-20 26 -26 59q-4 19 2 49q9 43 38 72q19 19 45 28
q11 4 76 16q23 4 67 4q20 -2 20 -21v-35z" />
    <glyph glyph-name="tilde" unicode="&#x2dc;" horiz-adv-x="493" 
d="M395 649l55 -3q17 -2 17 -18q0 -25 -2 -75q0 -37 -16 -70q-5 -11 -12 -18q-24 -29 -75 -42q-10 -3 -15 -4q-25 -9 -65 0q-42 10 -60 50q-3 6 -9 18.5t-10 19.5q-4 9 -12 14q-16 10 -21 -9q-3 -14 -3 -28q0 -2 3 -23q2 -15 -12 -17q-8 -2 -48 -4h-52q-12 0 -15 11
q-3 7 -3 14q-8 66 -8 73q0 34 21 60q25 31 65 40q8 3 27 3q15 -1 46 1q26 1 55 -19q21 -19 33 -54q2 -3 3.5 -10t3.5 -10l3 -10q5 -11 15.5 -11.5t16.5 9.5q13 22 14 40v53q0 15 14 16q8 2 37 2h8z" />
    <glyph glyph-name="hungarumlaut" unicode="&#x2dd;" horiz-adv-x="485" 
d="M173 662q32 -2 40 -2l5 -2q22 -4 10 -24q-2 -3 -14 -23l-86 -140q-13 -18 -32 -14l-56 9q-15 3 -12 18l2 10q7 31 23 93l9 45q4 14 18 16l56 8q7 1 19 2.5t18 3.5zM394 659q32 -2 40 -2l5 -2q22 -4 10 -24q-1 -3 -14 -23l-86 -140q-13 -18 -32 -14l-56 9q-15 3 -12 18
l1 1q0 2 0.5 4.5t0.5 4.5q7 31 23 93l9 45q4 14 18 16l56 8q7 1 19 2.5t18 3.5z" />
    <glyph glyph-name="endash" unicode="&#x2013;" horiz-adv-x="397" 
d="M33 290h1l-4 57q0 9 1 12q2 17 18 20q33 6 52 7q14 2 84 4q4 0 12 -0.5t13 -0.5q6 0 18.5 0.5t18.5 0.5q14 0 44 -2l49 -4q19 -1 20 -19q2 -26 2 -40l3 -63v-19q-2 -12 -14 -13q-8 -2 -40 -4l-47 -2q-26 -1 -103 8q-52 8 -100 1q-2 -1 -11 -1q-13 0 -16 12q-1 3 -1 11v35
z" />
    <glyph glyph-name="emdash" unicode="&#x2014;" horiz-adv-x="470" 
d="M35 290h-1v51q0 5 -2 19q-1 18 15 22q5 1 14 2.5t14 3.5q47 7 81 7l34 -3q8 -1 47 1q19 1 52 1q43 0 56 2q1 0 25 3q27 0 48 7l1 1q10 3 15 -1t4 -14v-39q1 -12 1 -35q0 -48 -1 -72q0 -18 -18 -20l-61 -2q-57 0 -86 -1q-16 0 -50 -6q-4 0 -11.5 -1t-13.5 -1.5t-11 -0.5
q-23 0 -67.5 0.5t-66.5 0.5q-18 1 -18 17v58z" />
    <glyph glyph-name="quoteleft" unicode="&#x2018;" horiz-adv-x="278" 
d="M160 338v1h-68q-7 0 -21 2q-15 1 -18 15l-3 22l-9 64q-3 32 -4 37q-6 51 19 105q10 27 37 51q9 9 37 20q3 1 9 2t9 3q23 9 63 3q18 -3 18 -22q0 -5 2 -31q0 -4 0.5 -9t0.5 -9q0 -12 -12 -16l-10 -2q-37 -10 -57 -45q-5 -11 -3 -21q0 -9 10 -9q8 0 26 2q26 2 39 2
q18 1 20 -18q2 -43 5 -64q2 -50 0 -65q-2 -16 -18 -18h-48h-24z" />
    <glyph glyph-name="quoteright" unicode="&#x2019;" horiz-adv-x="266" 
d="M34 515l-3 55q2 12 3 36.5t2 36.5q0 14 14 14h11q11 -1 29 -1q48 -2 72 -2q4 0 13 -0.5t14 -0.5q4 0 12.5 -0.5t13.5 -0.5q14 -2 17 -15q4 -16 6 -34q8 -44 3 -88q-2 -22 -2 -31q-4 -31 -15 -62q-6 -16 -25 -36q-29 -35 -72 -45q-34 -9 -48 -6q-8 0 -14 2q-15 3 -17 20
q-3 31 -4 37q0 4 -2 14q-1 16 15 20l23 3q29 4 51 33q1 1 4 12q3 17 -12 17q-16 1 -48 1q-20 0 -26 2q-14 3 -15 19z" />
    <glyph glyph-name="quotesinglbase" unicode="&#x201a;" horiz-adv-x="283" 
d="M114 175v1q64 -3 66 -3q27 -3 49 -9q19 -3 21 -24q3 -19 5 -56q2 -32 2 -48q0 -18 -3 -35q-2 -27 -5 -43q-5 -29 -20 -50q-17 -26 -42 -41q-35 -20 -58 -28q-41 -11 -77 4q-17 9 -17 27v54q0 19 20 21q17 2 30 5q28 6 41 31q10 15 3 40q-3 8 -13 8l-33 -3q-5 0 -16 -0.5
t-17 -0.5q-19 0 -19 19q-1 21 -1 65q2 33 4 41q3 18 20 23q14 2 18 2h42z" />
    <glyph glyph-name="quotedblleft" unicode="&#x201c;" horiz-adv-x="544" 
d="M160 338v1h-68q-7 0 -21 2q-15 1 -18 15l-3 22l-9 64q-3 32 -4 37q-6 51 19 105q10 27 37 51q9 9 37 20q3 1 9 2t9 3q23 9 63 3q18 -3 18 -22q0 -5 2 -31q0 -4 0.5 -9t0.5 -9q0 -12 -12 -16l-10 -2q-37 -10 -57 -45q-5 -11 -3 -21q0 -9 10 -9q8 0 26 2q26 2 39 2
q18 1 20 -18q2 -43 5 -64q2 -50 0 -65q-2 -16 -18 -18h-48h-24zM513 422h-1l2 -59q0 -17 -16 -20l-48 -9q-10 -2 -14 -2q-50 0 -99 9q-16 3 -17 19q-2 10 -4 30l-3 30q-3 34 10 93q7 35 13 47q25 52 78 57q30 5 60 0l11 -3q11 -5 11 -17q2 -26 2 -38q0 -20 -20 -22
q-25 -3 -43 -22q-10 -12 -9 -25q0 -17 17 -14l45 6h2q2 1 3 1q19 0 20 -19v-42z" />
    <glyph glyph-name="quotedblright" unicode="&#x201d;" horiz-adv-x="570" 
d="M542 558q4 -55 -23 -126q-14 -39 -44 -62l-12 -9q-39 -18 -75 -14l-9 2q-13 4 -17.5 10t-4.5 18q1 9 0 26t-1 23q0 16 15 20q20 4 28 7q16 4 22 15q2 2 4.5 6.5t3.5 5.5q6 18 -13 18q-32 -3 -63 -3q-20 -2 -23 19q-7 36 -13 103q0 6 -0.5 15t-0.5 13q-1 15 14 18
q30 6 42 6q19 2 83 2q30 -1 60 -6q17 -2 20 -18q2 -9 3.5 -26t2.5 -26q1 -12 1 -37zM34 515l-3 55q2 12 3 36.5t2 36.5q0 14 14 14h11q11 -1 29 -1q48 -2 72 -2q4 0 13 -0.5t14 -0.5q4 0 12.5 -0.5t13.5 -0.5q14 -2 17 -15q4 -16 6 -34q8 -44 3 -88q-2 -22 -2 -31
q-4 -31 -15 -62q-6 -16 -25 -36q-29 -35 -72 -45q-34 -9 -48 -6q-8 0 -14 2q-15 3 -17 20q-3 31 -4 37q0 4 -2 14q-1 16 15 20l23 3q29 4 51 33q1 1 4 12q3 17 -12 17q-16 1 -48 1q-20 0 -26 2q-14 3 -15 19z" />
    <glyph glyph-name="quotedblbase" unicode="&#x201e;" horiz-adv-x="563" 
d="M354 -6v1h-27q-19 0 -20 18l-3 32l-3 89q0 9 2 15q3 16 18 16q42 2 62 2q42 -2 63 -5l48 -3q9 0 12 -1q14 -3 16 -17q1 -5 1.5 -10t1 -10.5t0.5 -8.5q3 -25 5 -66q3 -39 -6 -77q-2 -5 -3 -14t-2 -13q-9 -55 -50 -90q-36 -27 -43 -30q-41 -21 -89 -10q-9 1 -17 6
q-11 3 -11 14q-2 45 -1 66q1 16 18 16t26 1q10 2 16 5q20 11 35 26t10 43q-4 9 -12 8q-9 0 -31 -2q-13 0 -16 -1zM114 175v1q64 -3 66 -3q27 -3 49 -9q19 -3 21 -24q3 -19 5 -56q2 -32 2 -48q0 -18 -3 -35q-2 -27 -5 -43q-5 -29 -20 -50q-17 -26 -42 -41q-35 -20 -58 -28
q-41 -11 -77 4q-17 9 -17 27v54q0 19 20 21q17 2 30 5q28 6 41 31q10 15 3 40q-3 8 -13 8l-33 -3q-5 0 -16 -0.5t-17 -0.5q-19 0 -19 19q-1 21 -1 65q2 33 4 41q3 18 20 23q14 2 18 2h42z" />
    <glyph glyph-name="dagger" unicode="&#x2020;" horiz-adv-x="397" 
d="M301 628h1q-2 -22 -2 -33q0 -14 16 -18l37 -3q14 -2 17 -15q1 -3 1 -12q2 -41 0 -83q0 -17 -1 -28q0 -16 -17 -16l-40 -3q-7 0 -8 -1q-9 -2 -10 -9q0 -2 -0.5 -7t-0.5 -9q-1 -16 -2.5 -45.5t-2.5 -44.5q-3 -74 -4 -88q-4 -36 -4 -81v-49q1 -30 -3 -60q0 -1 -2 -9
q-3 -14 -17 -14q-16 -2 -23 -2q-38 -4 -77 0q-3 0 -14 4q-9 3 -10 13l-2 20v84q1 11 4 63q0 8 -0.5 22t-0.5 21q0 13 0.5 40t0.5 41v50q0 19 -2 53q-1 11 -4.5 14t-13.5 3h-3q-15 -2 -59 0q-17 2 -21 4q-14 3 -14 18q3 72 4 86q1 15 16 18q65 12 80 12q13 0 14 13q2 11 0 22
q-4 18 0 34l11 46q7 22 30 19l76 -12q6 -2 15.5 -2t14.5 -2q15 -2 19 -14q1 -1 1 -6v-34z" />
    <glyph glyph-name="daggerdbl" unicode="&#x2021;" horiz-adv-x="371" 
d="M344 549v-38q0 -26 2 -80v-8q-2 -15 -17 -15q-7 0 -20 0.5t-20 0.5q-11 1 -14 -2t-4 -13q-2 -11 0 -22q0 -12 14 -14q5 0 14 0.5t13 0.5q2 0 7 0.5t9 0.5q17 0 19 -17q2 -6 2 -27q2 -45 -4 -80q0 -2 -0.5 -5t-0.5 -4q-3 -11 -15 -13q-7 -2 -30 -4q-4 0 -14 -2
q-13 -4 -14 -17q0 -6 -0.5 -19.5t-0.5 -21.5l-3 -72q0 -29 -4 -52q-2 -12 -7.5 -16t-17.5 -3q-42 3 -76 -4q-16 -3 -33 -3q-20 -2 -20 19q0 11 -0.5 33t-0.5 33q0 19 2 53q0 8 -0.5 25t-0.5 25v3q-2 15 -17 14q-13 0 -39 -2h-4q-15 2 -18 16q-3 15 -3 32q-2 15 -3 44t-2 43
v7q0 17 18 18t52 -5q2 -1 9 -1q10 1 11 10q0 25 -1 38q-2 12 -13 12h-29q-10 0 -17 1q-13 1 -13 16q0 5 0.5 13.5t0.5 12.5q0 11 -1 31.5t-1 31.5q0 9 2 25q3 18 21 19q2 0 4 -0.5t4 -0.5l28 2q10 2 11 12v9l-4 62q0 13 12 15q60 6 84 3q7 -1 21 -1q12 -1 35 -1
q19 -1 21 -21v-10l2 -50q0 -16 17 -18h22q7 0 9 -1q16 -3 16 -18z" />
    <glyph glyph-name="bullet" unicode="&#x2022;" horiz-adv-x="300" 
d="M164 439q23 0 46 -14q32 -22 45 -37q15 -15 20 -37q8 -47 -12 -94q-8 -18 -34 -37q-23 -12 -27 -16q-11 -7 -43 -13q-36 -3 -69 12q-44 18 -63 61q-8 19 -5 40q5 42 20 68q26 48 72 60q9 2 26 4t24 3z" />
    <glyph glyph-name="ellipsis" unicode="&#x2026;" horiz-adv-x="765" 
d="M340 156v1q22 -2 33 -2q5 0 11 0.5t13 1.5t11 1q30 2 42 2q2 0 4.5 -0.5t3.5 -0.5q13 -4 15 -17q3 -32 5 -95q0 -6 -1 -18t-1 -19q-1 -7 -1 -17q-1 -19 -19 -21q-22 0 -33 1q-10 2 -29 4t-29 3q-7 1 -21 2.5t-22 3.5q-17 2 -20 19q-2 6 -2 29l-2 97v4q2 15 7.5 19t18.5 3
q4 0 9 -0.5t7 -0.5zM663 160v1h32q18 0 21 -18q2 -7 3 -22t2 -22q1 -12 2 -36t3 -36q2 -16 2 -24q0 -17 -17 -19q-35 -4 -78 1q-5 1 -13.5 0t-11.5 -1q-8 0 -26 2q-13 1 -18 19v12q-3 19 -5 61q-1 22 0 45q0 16 17 24q30 15 65 13h22zM213 94v-8q0 -25 2 -75v-8
q-2 -17 -18 -16q-7 0 -14 0.5t-16 1.5t-14 1q-6 0 -16 0.5t-18.5 1t-16.5 1.5q-26 2 -37 5q-17 2 -17 19q0 64 3 85l3 24q3 16 17 16q12 0 25 2t29 5.5t25 4.5q6 2 36 4q16 3 22 -17q2 -8 2.5 -23.5t2.5 -23.5z" />
    <glyph glyph-name="perthousand" unicode="&#x2030;" horiz-adv-x="1205" 
d="M1183 312q3 -23 2 -28q-1 -9 -1.5 -39.5t-4.5 -46.5q-2 -9 -4.5 -25.5t-3.5 -20.5q-1 -11 -7 -29q-11 -35 -39 -53q-11 -9 -23 -17q-44 -33 -96 -27q-69 8 -111 59q-28 31 -34 78q-5 39 -5 93q0 4 0.5 12.5t0.5 13.5l3 57q2 45 16 76q7 19 24 31q34 24 61 27q21 2 32 1
q24 -2 35 1q14 3 44 -3q32 -6 48 -13q36 -16 50 -59q17 -51 13 -88zM988 254h-2q1 -7 2.5 -20t2.5 -20q1 -13 7 -26t18 -15t22 8q12 12 13 25q1 8 4 40q0 21 1 32q5 48 -11 85q-8 23 -35 20q-12 -3 -15 -15q0 -1 -1.5 -8.5t-1.5 -11.5q-1 -16 -4 -94zM803 284
q1 -50 -10 -110q-13 -57 -40 -99q-25 -42 -76 -53q-64 -15 -133 25q-12 9 -20 22q-12 22 -17 52q-4 34 -2 81q3 57 3 58q1 13 1.5 45t3.5 50q6 35 14 53q27 48 64 58q19 6 66 16q11 3 30 -2q64 -16 100 -75q11 -19 12 -42q2 -11 4 -55v-24zM685 257l-2 42q-1 23 -6 45
q-2 18 -20 22q-31 10 -36 -21l-2 -34q0 -9 -0.5 -25t-0.5 -25q3 -52 2 -57v-18q2 -23 25 -18q19 4 27 24q11 20 13 65zM377 39q-10 0 -29.5 0.5t-29.5 0.5h-51q-18 -1 -20 19q0 5 1 6q2 24 5 36q1 7 12 47q16 54 23 81l20 73q6 22 24.5 83.5t27.5 95.5q14 54 29 102l15 57
l3 13q1 11 12 12q5 0 13 0.5t13 0.5q31 -4 71 1q15 2 21 -4.5t3 -20.5q-2 -12 -4.5 -37t-4.5 -38q-4 -32 -12 -71q-4 -17 -10 -49.5t-9 -48.5q-4 -19 -11 -46q-22 -77 -34 -112q-2 -4 -3.5 -11.5t-2.5 -11.5q-9 -32 -25 -98l-11 -55q-1 -4 -4 -14q-5 -11 -16 -11h-16z
M308 500l2 -36q0 -44 -14 -91q-10 -33 -26 -62q-6 -10 -28 -32q-13 -13 -32 -14q-56 -8 -84 -5q-45 5 -66 40q-26 42 -30 68q-5 38 -1 68q1 12 3.5 37t3.5 38q6 55 12 78q10 43 54 60q9 4 23 7q16 5 27 4q37 0 64 -13q4 -2 12.5 -5t9.5 -4q37 -16 55 -63q9 -24 15 -75z
M134 452h1v-18q0 -20 9 -38q8 -19 27 -10q12 5 14 19v19l2 37q0 21 -11 41q-6 11 -18 14q-16 4 -19 -11q-1 -10 -2 -26.5t-3 -26.5z" />
    <glyph glyph-name="guilsinglleft" unicode="&#x2039;" horiz-adv-x="349" 
d="M195 545q10 -2 32 -4t32 -3q7 -2 20.5 -3t20.5 -2q27 -3 17 -28q-3 -10 -12 -29q-30 -58 -42 -74q-9 -11 -21 -31t-16 -26q-13 -18 -31 -39l-7 -7q-5 -11 -1 -17q1 -3 5 -7q34 -50 53 -75q8 -11 32 -52q4 -8 12.5 -21t12.5 -21l12 -19q9 -20 -10 -24q-30 -9 -68 -14
q-5 0 -15.5 1t-16.5 1q-13 1 -38 1q-22 2 -29 21q-8 18 -37 71l-52 99q-19 36 -22 42q-9 15 1 28q8 13 26 38.5t26 39.5q7 11 19 32t16 27q2 3 9 15.5t12 18.5l34 50q9 11 26 11z" />
    <glyph glyph-name="guilsinglright" unicode="&#x203a;" horiz-adv-x="374" 
d="M154 33v-1l-36 3l-60 3h-5q-21 2 -12 20q10 26 17 38l2 2q6 14 14 28t18.5 31t15.5 26q16 27 50 81q1 3 4 6q11 14 0 28q-2 2 -20 31q-5 8 -15 22t-15 22l-23 37l-30 54l-20 39q-9 17 11 22q6 1 39.5 7t51.5 8q7 1 63 1q11 -1 17 -15q3 -8 8.5 -22t7.5 -21q19 -44 21 -47
q21 -37 36 -70q2 -7 5.5 -13.5t8.5 -14t7 -11.5l24 -45q9 -18 -4 -31q-4 -4 -10 -12t-9 -11q-17 -20 -71 -107l-45 -73q-8 -15 -25 -15h-21z" />
    <glyph glyph-name="fraction" unicode="&#x2044;" horiz-adv-x="335" 
d="M81 -2v-3q-15 3 -49 5q-1 0 -5 2q-16 4 -12 19l4 31q5 30 31 144q34 144 45 189q28 110 34 132q4 15 10 42t9 37q13 42 16 51q4 13 18 13q16 2 47.5 3t47.5 3q9 0 31 -2q12 -2 10 -13q0 -13 -4 -22q-5 -24 -12 -92q-3 -42 -9 -84q-6 -45 -26 -113l-49 -170
q-3 -10 -5.5 -22t-5 -26t-4.5 -22q-9 -42 -14 -70l-3 -11q-5 -14 -19 -17q-12 -4 -29 -4q0 -1 -28 0h-29z" />
    <glyph glyph-name="Euro" unicode="&#x20ac;" horiz-adv-x="513" 
d="M330 481l-8 -8q5 -7 17 -7q40 -3 47 -4q17 -2 22.5 -8t4.5 -23q0 -45 -1 -68q0 -19 -18 -23q-28 -8 -69 -3q-25 3 -66 5q-11 2 -15 -6q-6 -10 -1 -22q3 -6 14 -6h33q6 0 17 -0.5t16 -0.5q17 -1 52 -1q21 0 22 -22l3 -42t4 -42q2 -17 -14 -18q-38 -6 -59 -3q-15 4 -34 -1
q-17 -2 -5 -13q6 -7 20 -17q18 -12 41 -17q23 -6 56 -13l23 -3q11 -3 13 -15q0 -26 2 -82q1 -5 2 -14.5t2 -14.5q0 -20 -5 -24q-12 -13 -29 -11q-29 2 -43 1q-22 -1 -44 3q-3 1 -12.5 3.5t-14.5 4.5q-72 34 -109 70q-28 28 -43 52q-30 53 -35 69q-5 17 -22 14l-42 -7h-9
q-11 0 -14 11q-2 10 -2 13v69q0 1 2 15t15 17l26 3h4q15 2 20 7t7 20q0 3 0.5 7t0.5 6q-2 11 -12 11h-12q-8 -2 -10 -2q-14 -3 -19 1t-4 18q0 29 8 83q3 22 28 25q23 4 49 4q14 2 21 14q7 11 20.5 35.5t21.5 37.5q19 33 52 60q10 8 15 13q14 13 55 28q22 8 65 14q16 2 18 3
q11 2 43 0q8 0 24 -2q5 -1 11 -4q13 -7 13 -19q1 -35 1 -103q1 -11 -2 -14.5t-15 -5.5q-7 -1 -18 -1q-69 -2 -113 -38z" />
    <glyph glyph-name="trademark" unicode="&#x2122;" horiz-adv-x="887" 
d="M545 484q-5 -3 -5 -12q0 -10 0.5 -30t0.5 -31q1 -5 1 -15.5v-16.5q0 -39 -4 -71q-3 -23 -9 -44q-3 -16 -19 -16q-1 0 -20.5 -0.5t-20.5 0.5q-15 0 -45 2l-17 2q-15 3 -15 19q0 5 0.5 16t0.5 16q0 34 1 50q0 4 1.5 23t1.5 29l9 96q2 53 4 66q2 54 4 67q0 12 10 16
q3 2 10.5 3t11.5 3l28 2q11 2 43 0h28q5 0 19 -2t19 -14l28 -62l9 -20l3 -6q7 -12 15 -1q0 1 2 3t2 3q25 45 34 82q4 18 23 20q14 1 43.5 3t44.5 4h28q14 -2 17 -14q6 -32 7 -42q1 -14 3 -40.5t4 -39.5q2 -11 4 -34t3 -34q0 -2 1 -4v-3v-84q2 -62 2 -90v-23q-1 -15 -16 -19
q-27 -5 -47 -2q-12 1 -35 1q-5 0 -19 2q-13 2 -15 15q-1 7 -1 21q2 18 -5 80q-2 38 -5 57q-2 9 -3.5 28t-2.5 29q0 11 -6 12q-3 0 -5 -0.5t-4 -3.5t-3 -4q-16 -21 -50 -63q-7 -9 -10 -11q-11 -11 -22 0q-8 7 -35 46q-11 18 -20 29q0 1 -1 2t-3 2.5t-3 2.5zM351 565h-1v-29
v-5q0 -16 -5.5 -21.5t-21.5 -5.5q-6 0 -19 0.5t-21 0.5q-10 1 -14.5 -3t-4.5 -16q0 -15 2 -45q3 -37 0 -75l-3 -50q-2 -44 -5 -68q-3 -22 -23 -20q-11 0 -30 2t-26 2l-42 6q-4 0 -5 1q-20 6 -18 26l2 29q3 39 4 46q2 9 3.5 25.5t3.5 25.5q1 7 1 21q0 12 0.5 33.5t0.5 31.5
q0 15 -3 28q-1 8 -3.5 10t-10.5 3t-47 -1q-21 -3 -23 -3q-20 0 -18 18l4 57q1 6 2 17.5t3 17.5q2 10 5 13t12 3l68 10q22 2 35 2h55l42 -3q41 -3 42 -3q25 -2 37 -5q19 -3 19 -22z" />
    <glyph glyph-name="minus" unicode="&#x2212;" horiz-adv-x="334" 
d="M33 289l3 51q0 2 2 10q5 14 19 17h4l78 2q7 0 25 1t29 0q7 0 14 -0.5t16 -1.5t14 -1l37 -2h3q16 -2 21.5 -7.5t4.5 -20.5l-3 -101q0 -19 -16 -19q-4 0 -13 -0.5t-14 -0.5q-11 0 -32 0.5t-33 0.5q-22 2 -30 2q-4 0 -11.5 -0.5t-11.5 -0.5q-28 -1 -84 -1q-18 0 -18 17
q-2 10 -4 55z" />
    <glyph glyph-name="fi" unicode="&#xfb01;" horiz-adv-x="700" 
d="M433 635v-54v-57q-2 -17 -17 -17q-43 -2 -74 2q-7 1 -21 1h-90q-4 0 -18 -2q-11 -2 -11 -12q0 -23 2 -71q0 -19 1 -30q0 -6 1 -8q3 -10 12 -7q16 4 47 5t38 2l41 2q9 0 11 -1q15 -1 17 -16l3 -20q3 -27 5 -81q2 -11 0 -21q0 -14 -15 -17q-70 -14 -103 -13h-39
q-2 0 -16 -2q-11 -2 -11 -13v-78q0 -23 1 -34l3 -57q1 -11 -3 -15.5t-15 -4.5q-13 0 -39 2q-30 4 -67 -1q-10 -1 -25 2q-12 2 -13 17q0 4 0.5 12t0.5 13v8q0 9 -0.5 25t-0.5 25q0 17 2 55q0 8 0.5 23t0.5 22q1 35 1 102q0 40 -1 60q0 9 -0.5 27t-0.5 27q0 10 1 30t1 31
q0 20 -2 66q0 24 -1 36q0 8 -0.5 21t-0.5 21q0 16 16 16q32 4 70 4h24h24q36 0 47 2q32 0 36 -1q8 -1 24 -1q60 0 76 -3q30 -5 52 -2h5q12 0 16.5 -4.5t4.5 -15.5zM482 118q0 8 0.5 23.5t0.5 22.5q0 8 -1 23.5t-1 23.5q-1 0 -1 18l1 18v15q3 43 1 51q-1 9 0 25t1 21
q1 19 1 58.5v59.5l4 125q1 12 1 37q1 15 15 20q14 2 15 2q29 1 69 -5q8 -2 23 -2t22 -2h6q15 0 21 -6t7 -21q0 -69 -11 -144q-10 -45 -4 -95v-11t1 -10q1 -13 3 -40t2 -41v-23v-27.5v-23.5v-5q-2 -72 -2 -107q0 -36 1 -53q0 -18 -6 -24t-23 -5l-60 2q-9 0 -28.5 -0.5
t-29.5 -0.5q-3 -2 -8 0q-14 1 -16 16l-3 35q0 9 -0.5 25.5t-0.5 24.5z" />
    <glyph glyph-name="fl" unicode="&#xfb02;" horiz-adv-x="867" 
d="M433 635v-54v-57q-2 -17 -17 -17q-43 -2 -74 2q-7 1 -21 1h-90q-4 0 -18 -2q-11 -2 -11 -12q0 -23 2 -71q0 -19 1 -30q0 -6 1 -8q3 -10 12 -7q16 4 47 5t38 2l41 2q9 0 11 -1q15 -1 17 -16l3 -20q3 -27 5 -81q2 -11 0 -21q0 -14 -15 -17q-70 -14 -103 -13h-39
q-2 0 -16 -2q-11 -2 -11 -13v-78q0 -23 1 -34l3 -57q1 -11 -3 -15.5t-15 -4.5q-13 0 -39 2q-30 4 -67 -1q-10 -1 -25 2q-12 2 -13 17q0 4 0.5 12t0.5 13v8q0 9 -0.5 25t-0.5 25q0 17 2 55q0 8 0.5 23t0.5 22q1 35 1 102q0 40 -1 60q0 9 -0.5 27t-0.5 27q0 10 1 30t1 31
q0 20 -2 66q0 24 -1 36q0 8 -0.5 21t-0.5 21q0 16 16 16q32 4 70 4h24h24q36 0 47 2q32 0 36 -1q8 -1 24 -1q60 0 76 -3q30 -5 52 -2h5q12 0 16.5 -4.5t4.5 -15.5zM728 19q-20 0 -62 -2q-2 0 -6 0.5t-6 0.5q-45 6 -68 3q-9 -1 -25.5 0t-21.5 1h-22q-3 -1 -11 -1
q-12 2 -15 13l-2 12v46l-4 44q-2 46 -2 69q-2 46 -2 67q0 31 2 95v28q2 12 4 64l2 39q0 43 1 66q2 40 5 65q0 1 0.5 3t0.5 3q4 21 24 24q8 3 23 5q8 2 22 4l21 3h7h8.5h6.5l52 -4q11 -1 15 -5t3 -15l-12 -120q0 -2 -3 -53l-3 -71q0 -15 -1 -22l-3 -62q-2 -65 -1 -78v-9v-11
v-10q0 -8 1 -10q1 -8 9 -10q1 -1 7 -1q18 0 100 -13q8 -1 26 -2.5t26 -3.5q18 -2 19 -16q5 -26 10 -68q2 -8 2 -37q0 -20 -18 -23q-24 -5 -49 -6q-13 -2 -60 -2z" />
  </font>
</defs>
</svg>
